%TF.GenerationSoftware,KiCad,Pcbnew,6.0.7+dfsg-1~bpo11+1*%
%TF.CreationDate,2022-10-07T09:30:16+00:00*%
%TF.ProjectId,0101-INDICATORS,30313031-2d49-44e4-9449-4341544f5253,rev?*%
%TF.SameCoordinates,Original*%
%TF.FileFunction,Legend,Bot*%
%TF.FilePolarity,Positive*%
%FSLAX46Y46*%
G04 Gerber Fmt 4.6, Leading zero omitted, Abs format (unit mm)*
G04 Created by KiCad (PCBNEW 6.0.7+dfsg-1~bpo11+1) date 2022-10-07 09:30:16*
%MOMM*%
%LPD*%
G01*
G04 APERTURE LIST*
%ADD10C,0.120000*%
G04 APERTURE END LIST*
D10*
%TO.C,D9*%
X7860000Y10210000D02*
X7860000Y12060000D01*
X6660000Y10210000D02*
X6660000Y12060000D01*
X6660000Y12060000D02*
X7860000Y12060000D01*
%TO.C,D10*%
X9200000Y12060000D02*
X10400000Y12060000D01*
X9200000Y10210000D02*
X9200000Y12060000D01*
X10400000Y10210000D02*
X10400000Y12060000D01*
%TO.C,D7*%
X3288000Y10210000D02*
X3288000Y12060000D01*
X2088000Y10210000D02*
X2088000Y12060000D01*
X2088000Y12060000D02*
X3288000Y12060000D01*
%TO.C,D12*%
X15480000Y10210000D02*
X15480000Y12060000D01*
X14280000Y10210000D02*
X14280000Y12060000D01*
X14280000Y12060000D02*
X15480000Y12060000D01*
%TO.C,D8*%
X5320000Y10210000D02*
X5320000Y12060000D01*
X4120000Y12060000D02*
X5320000Y12060000D01*
X4120000Y10210000D02*
X4120000Y12060000D01*
%TO.C,D13*%
X16312000Y12060000D02*
X17512000Y12060000D01*
X17512000Y10210000D02*
X17512000Y12060000D01*
X16312000Y10210000D02*
X16312000Y12060000D01*
%TO.C,D11*%
X11740000Y10210000D02*
X11740000Y12060000D01*
X11740000Y12060000D02*
X12940000Y12060000D01*
X12940000Y10210000D02*
X12940000Y12060000D01*
%TD*%
M02*
