%TF.GenerationSoftware,KiCad,Pcbnew,6.0.7+dfsg-1~bpo11+1*%
%TF.CreationDate,2022-10-07T09:30:16+00:00*%
%TF.ProjectId,0101-INDICATORS,30313031-2d49-44e4-9449-4341544f5253,rev?*%
%TF.SameCoordinates,Original*%
%TF.FileFunction,Copper,L1,Top*%
%TF.FilePolarity,Positive*%
%FSLAX46Y46*%
G04 Gerber Fmt 4.6, Leading zero omitted, Abs format (unit mm)*
G04 Created by KiCad (PCBNEW 6.0.7+dfsg-1~bpo11+1) date 2022-10-07 09:30:16*
%MOMM*%
%LPD*%
G01*
G04 APERTURE LIST*
G04 Aperture macros list*
%AMRoundRect*
0 Rectangle with rounded corners*
0 $1 Rounding radius*
0 $2 $3 $4 $5 $6 $7 $8 $9 X,Y pos of 4 corners*
0 Add a 4 corners polygon primitive as box body*
4,1,4,$2,$3,$4,$5,$6,$7,$8,$9,$2,$3,0*
0 Add four circle primitives for the rounded corners*
1,1,$1+$1,$2,$3*
1,1,$1+$1,$4,$5*
1,1,$1+$1,$6,$7*
1,1,$1+$1,$8,$9*
0 Add four rect primitives between the rounded corners*
20,1,$1+$1,$2,$3,$4,$5,0*
20,1,$1+$1,$4,$5,$6,$7,0*
20,1,$1+$1,$6,$7,$8,$9,0*
20,1,$1+$1,$8,$9,$2,$3,0*%
G04 Aperture macros list end*
%TA.AperFunction,SMDPad,CuDef*%
%ADD10RoundRect,0.135000X0.185000X-0.135000X0.185000X0.135000X-0.185000X0.135000X-0.185000X-0.135000X0*%
%TD*%
%TA.AperFunction,SMDPad,CuDef*%
%ADD11RoundRect,0.218750X-0.256250X0.218750X-0.256250X-0.218750X0.256250X-0.218750X0.256250X0.218750X0*%
%TD*%
%TA.AperFunction,ComponentPad*%
%ADD12R,1.700000X1.700000*%
%TD*%
%TA.AperFunction,ComponentPad*%
%ADD13O,1.700000X1.700000*%
%TD*%
%TA.AperFunction,ViaPad*%
%ADD14C,0.500000*%
%TD*%
%TA.AperFunction,Conductor*%
%ADD15C,0.200000*%
%TD*%
%TA.AperFunction,Conductor*%
%ADD16C,0.500000*%
%TD*%
G04 APERTURE END LIST*
D10*
%TO.P,R3,1*%
%TO.N,Net-(D3-Pad1)*%
X8530000Y5195000D03*
%TO.P,R3,2*%
%TO.N,/LED3*%
X8530000Y6215000D03*
%TD*%
%TO.P,R6,1*%
%TO.N,Net-(D6-Pad1)*%
X16150000Y5195000D03*
%TO.P,R6,2*%
%TO.N,/LED6*%
X16150000Y6215000D03*
%TD*%
%TO.P,R4,1*%
%TO.N,Net-(D4-Pad1)*%
X11070000Y5195000D03*
%TO.P,R4,2*%
%TO.N,/LED4*%
X11070000Y6215000D03*
%TD*%
D11*
%TO.P,D5,1,K*%
%TO.N,Net-(D5-Pad1)*%
X12340000Y5982500D03*
%TO.P,D5,2,A*%
%TO.N,VCC*%
X12340000Y4407500D03*
%TD*%
%TO.P,D3,1,K*%
%TO.N,Net-(D3-Pad1)*%
X7260000Y5982500D03*
%TO.P,D3,2,A*%
%TO.N,VCC*%
X7260000Y4407500D03*
%TD*%
D10*
%TO.P,R2,1*%
%TO.N,Net-(D2-Pad1)*%
X5990000Y5195000D03*
%TO.P,R2,2*%
%TO.N,/LED2*%
X5990000Y6215000D03*
%TD*%
%TO.P,R5,1*%
%TO.N,Net-(D5-Pad1)*%
X13610000Y5195000D03*
%TO.P,R5,2*%
%TO.N,/LED5*%
X13610000Y6215000D03*
%TD*%
%TO.P,R1,1*%
%TO.N,Net-(D1-Pad1)*%
X3450000Y5195000D03*
%TO.P,R1,2*%
%TO.N,/LED1*%
X3450000Y6215000D03*
%TD*%
D11*
%TO.P,D6,1,K*%
%TO.N,Net-(D6-Pad1)*%
X14880000Y5982500D03*
%TO.P,D6,2,A*%
%TO.N,VCC*%
X14880000Y4407500D03*
%TD*%
%TO.P,D2,1,K*%
%TO.N,Net-(D2-Pad1)*%
X4720000Y5982500D03*
%TO.P,D2,2,A*%
%TO.N,VCC*%
X4720000Y4407500D03*
%TD*%
D12*
%TO.P,J1,1,Pin_1*%
%TO.N,GND*%
X17425000Y16075000D03*
D13*
%TO.P,J1,2,Pin_2*%
%TO.N,VCC*%
X17425000Y13535000D03*
%TO.P,J1,3,Pin_3*%
%TO.N,/LED6*%
X14885000Y16075000D03*
%TO.P,J1,4,Pin_4*%
X14885000Y13535000D03*
%TO.P,J1,5,Pin_5*%
%TO.N,/LED5*%
X12345000Y16075000D03*
%TO.P,J1,6,Pin_6*%
X12345000Y13535000D03*
%TO.P,J1,7,Pin_7*%
%TO.N,/LED4*%
X9805000Y16075000D03*
%TO.P,J1,8,Pin_8*%
X9805000Y13535000D03*
%TO.P,J1,9,Pin_9*%
%TO.N,/LED3*%
X7265000Y16075000D03*
%TO.P,J1,10,Pin_10*%
X7265000Y13535000D03*
%TO.P,J1,11,Pin_11*%
%TO.N,/LED2*%
X4725000Y16075000D03*
%TO.P,J1,12,Pin_12*%
X4725000Y13535000D03*
%TO.P,J1,13,Pin_13*%
%TO.N,/LED1*%
X2185000Y16075000D03*
%TO.P,J1,14,Pin_14*%
X2185000Y13535000D03*
%TD*%
D11*
%TO.P,D1,1,K*%
%TO.N,Net-(D1-Pad1)*%
X2180000Y5982500D03*
%TO.P,D1,2,A*%
%TO.N,VCC*%
X2180000Y4407500D03*
%TD*%
%TO.P,D4,1,K*%
%TO.N,Net-(D4-Pad1)*%
X9800000Y5982500D03*
%TO.P,D4,2,A*%
%TO.N,VCC*%
X9800000Y4407500D03*
%TD*%
D14*
%TO.N,GND*%
X910000Y7735000D03*
X11070000Y7735000D03*
X8530000Y7735000D03*
X8530000Y9640000D03*
X3450000Y7735000D03*
X16150000Y7735000D03*
X13610000Y9640000D03*
X5990000Y9640000D03*
X5990000Y7735000D03*
X18690000Y7735000D03*
X11070000Y9640000D03*
X16150000Y9132000D03*
X13610000Y7735000D03*
X3450000Y9132000D03*
%TD*%
D15*
%TO.N,Net-(D1-Pad1)*%
X2967500Y5195000D02*
X2180000Y5982500D01*
X3450000Y5195000D02*
X2967500Y5195000D01*
D16*
%TO.N,VCC*%
X2180000Y4407500D02*
X16707500Y4407500D01*
X17425000Y5125000D02*
X17425000Y13535000D01*
X16707500Y4407500D02*
X17425000Y5125000D01*
D15*
%TO.N,Net-(D2-Pad1)*%
X5507500Y5195000D02*
X4720000Y5982500D01*
X5990000Y5195000D02*
X5507500Y5195000D01*
%TO.N,Net-(D3-Pad1)*%
X8530000Y5195000D02*
X8047500Y5195000D01*
X8047500Y5195000D02*
X7260000Y5982500D01*
%TO.N,Net-(D4-Pad1)*%
X10587500Y5195000D02*
X9800000Y5982500D01*
X11070000Y5195000D02*
X10587500Y5195000D01*
%TO.N,Net-(D5-Pad1)*%
X13610000Y5195000D02*
X13127500Y5195000D01*
X13127500Y5195000D02*
X12340000Y5982500D01*
%TO.N,Net-(D6-Pad1)*%
X16150000Y5195000D02*
X15667500Y5195000D01*
X15667500Y5195000D02*
X14880000Y5982500D01*
%TO.N,/LED1*%
X2185000Y13535000D02*
X2185000Y7480000D01*
X2185000Y7480000D02*
X3450000Y6215000D01*
%TO.N,/LED2*%
X4725000Y7480000D02*
X5990000Y6215000D01*
X4725000Y13535000D02*
X4725000Y7480000D01*
%TO.N,/LED3*%
X7265000Y7480000D02*
X8530000Y6215000D01*
X7265000Y13535000D02*
X7265000Y7480000D01*
%TO.N,/LED4*%
X9805000Y7480000D02*
X11070000Y6215000D01*
X9805000Y13535000D02*
X9805000Y7480000D01*
%TO.N,/LED5*%
X12345000Y7480000D02*
X13610000Y6215000D01*
X12345000Y13535000D02*
X12345000Y7480000D01*
%TO.N,/LED6*%
X14885000Y7480000D02*
X16150000Y6215000D01*
X14885000Y13535000D02*
X14885000Y7480000D01*
%TD*%
%TA.AperFunction,Conductor*%
%TO.N,GND*%
G36*
X8553332Y19429498D02*
G01*
X8599825Y19375842D01*
X8601115Y19372667D01*
X8601476Y19371320D01*
X8687324Y19181795D01*
X8690190Y19177505D01*
X8746090Y19093828D01*
X8802901Y19008786D01*
X8945119Y18856918D01*
X9110178Y18730247D01*
X9293668Y18632159D01*
X9298545Y18630503D01*
X9298548Y18630502D01*
X9485802Y18566931D01*
X9490686Y18565273D01*
X9695969Y18531377D01*
X9904031Y18531377D01*
X10109314Y18565273D01*
X10114198Y18566931D01*
X10301452Y18630502D01*
X10301455Y18630503D01*
X10306332Y18632159D01*
X10489822Y18730247D01*
X10654881Y18856918D01*
X10797099Y19008786D01*
X10853911Y19093828D01*
X10909810Y19177505D01*
X10912676Y19181795D01*
X10963341Y19293646D01*
X10998524Y19371320D01*
X10999686Y19370793D01*
X11037922Y19423337D01*
X11104100Y19449046D01*
X11114789Y19449500D01*
X18763598Y19449500D01*
X18771315Y19448484D01*
X18783978Y19448484D01*
X18800000Y19444191D01*
X18813583Y19447830D01*
X18816043Y19447692D01*
X18930420Y19434805D01*
X18957928Y19428526D01*
X19068407Y19389868D01*
X19093820Y19377631D01*
X19192943Y19315349D01*
X19214998Y19297759D01*
X19297759Y19214998D01*
X19315349Y19192943D01*
X19377631Y19093820D01*
X19389868Y19068407D01*
X19428526Y18957928D01*
X19434805Y18930420D01*
X19447692Y18816043D01*
X19447830Y18813583D01*
X19444191Y18800000D01*
X19448484Y18783978D01*
X19448484Y18771315D01*
X19449500Y18763598D01*
X19449500Y11114789D01*
X19429498Y11046668D01*
X19375842Y11000175D01*
X19372667Y10998885D01*
X19371320Y10998524D01*
X19181795Y10912676D01*
X19177505Y10909810D01*
X19013074Y10799964D01*
X19013070Y10799961D01*
X19008786Y10797099D01*
X18856918Y10654881D01*
X18730247Y10489822D01*
X18632159Y10306332D01*
X18630503Y10301455D01*
X18630502Y10301452D01*
X18566931Y10114198D01*
X18565273Y10109314D01*
X18531377Y9904031D01*
X18531377Y9695969D01*
X18565273Y9490686D01*
X18566931Y9485803D01*
X18566931Y9485802D01*
X18607160Y9367306D01*
X18632159Y9293668D01*
X18730247Y9110178D01*
X18856918Y8945119D01*
X19008786Y8802901D01*
X19013070Y8800039D01*
X19013074Y8800036D01*
X19084217Y8752510D01*
X19181795Y8687324D01*
X19186495Y8685195D01*
X19186497Y8685194D01*
X19371320Y8601476D01*
X19370793Y8600314D01*
X19423337Y8562078D01*
X19449046Y8495900D01*
X19449500Y8485211D01*
X19449500Y836402D01*
X19448484Y828685D01*
X19448484Y816022D01*
X19444191Y800000D01*
X19447830Y786417D01*
X19447692Y783957D01*
X19434805Y669580D01*
X19428526Y642072D01*
X19389868Y531593D01*
X19377631Y506180D01*
X19315349Y407057D01*
X19297759Y385002D01*
X19214998Y302241D01*
X19192943Y284651D01*
X19093820Y222369D01*
X19068407Y210132D01*
X18957928Y171474D01*
X18930420Y165195D01*
X18816043Y152308D01*
X18813583Y152170D01*
X18800000Y155809D01*
X18783978Y151516D01*
X18771315Y151516D01*
X18763598Y150500D01*
X11114789Y150500D01*
X11046668Y170502D01*
X11000175Y224158D01*
X10998885Y227333D01*
X10998524Y228680D01*
X10912676Y418205D01*
X10888477Y454429D01*
X10799964Y586926D01*
X10799961Y586930D01*
X10797099Y591214D01*
X10654881Y743082D01*
X10489822Y869753D01*
X10306332Y967841D01*
X10301455Y969497D01*
X10301452Y969498D01*
X10114198Y1033069D01*
X10114197Y1033069D01*
X10109314Y1034727D01*
X9904031Y1068623D01*
X9695969Y1068623D01*
X9490686Y1034727D01*
X9485803Y1033069D01*
X9485802Y1033069D01*
X9298548Y969498D01*
X9298545Y969497D01*
X9293668Y967841D01*
X9110178Y869753D01*
X8945119Y743082D01*
X8802901Y591214D01*
X8800039Y586930D01*
X8800036Y586926D01*
X8711523Y454429D01*
X8687324Y418205D01*
X8685195Y413505D01*
X8685194Y413503D01*
X8634796Y302241D01*
X8601476Y228680D01*
X8600314Y229207D01*
X8562078Y176663D01*
X8495900Y150954D01*
X8485211Y150500D01*
X836402Y150500D01*
X828685Y151516D01*
X816022Y151516D01*
X800000Y155809D01*
X786417Y152170D01*
X783957Y152308D01*
X669580Y165195D01*
X642072Y171474D01*
X531593Y210132D01*
X506180Y222369D01*
X407057Y284651D01*
X385002Y302241D01*
X302241Y385002D01*
X284651Y407057D01*
X222369Y506180D01*
X210132Y531593D01*
X171474Y642072D01*
X165195Y669580D01*
X152308Y783957D01*
X152170Y786417D01*
X155809Y800000D01*
X151516Y816022D01*
X151516Y828685D01*
X150500Y836402D01*
X150500Y8485211D01*
X170502Y8553332D01*
X224158Y8599825D01*
X227333Y8601115D01*
X228680Y8601476D01*
X418205Y8687324D01*
X515783Y8752510D01*
X586926Y8800036D01*
X586930Y8800039D01*
X591214Y8802901D01*
X743082Y8945119D01*
X869753Y9110178D01*
X967841Y9293668D01*
X992841Y9367306D01*
X1033069Y9485802D01*
X1033069Y9485803D01*
X1034727Y9490686D01*
X1068623Y9695969D01*
X1068623Y9904031D01*
X1034727Y10109314D01*
X1033069Y10114198D01*
X969498Y10301452D01*
X969497Y10301455D01*
X967841Y10306332D01*
X869753Y10489822D01*
X743082Y10654881D01*
X591214Y10797099D01*
X586930Y10799961D01*
X586926Y10799964D01*
X422495Y10909810D01*
X418205Y10912676D01*
X384660Y10927871D01*
X228680Y10998524D01*
X229207Y10999686D01*
X176663Y11037922D01*
X150954Y11104100D01*
X150500Y11114789D01*
X150500Y13549037D01*
X1179757Y13549037D01*
X1196175Y13353517D01*
X1250258Y13164909D01*
X1253076Y13159426D01*
X1337123Y12995887D01*
X1337126Y12995883D01*
X1339944Y12990399D01*
X1461818Y12836631D01*
X1611238Y12709465D01*
X1616616Y12706459D01*
X1616618Y12706458D01*
X1652932Y12686163D01*
X1782513Y12613743D01*
X1847438Y12592647D01*
X1906042Y12552574D01*
X1933679Y12487178D01*
X1934500Y12472815D01*
X1934500Y7517085D01*
X1932079Y7492504D01*
X1929592Y7480000D01*
X1949034Y7382259D01*
X1968943Y7352464D01*
X2004399Y7299399D01*
X2014714Y7292507D01*
X2014716Y7292505D01*
X2015005Y7292312D01*
X2034098Y7276642D01*
X2525145Y6785595D01*
X2559171Y6723283D01*
X2554106Y6652468D01*
X2511559Y6595632D01*
X2445039Y6570821D01*
X2436050Y6570500D01*
X1956176Y6570499D01*
X1888750Y6570499D01*
X1862290Y6566604D01*
X1825862Y6561243D01*
X1825861Y6561243D01*
X1816175Y6559817D01*
X1807387Y6555502D01*
X1807386Y6555502D01*
X1759994Y6532233D01*
X1705829Y6505639D01*
X1698476Y6498273D01*
X1698473Y6498271D01*
X1626337Y6426009D01*
X1618981Y6418640D01*
X1604340Y6388688D01*
X1575110Y6328889D01*
X1564996Y6308199D01*
X1554500Y6236251D01*
X1554501Y5728750D01*
X1565183Y5656175D01*
X1569498Y5647387D01*
X1569498Y5647386D01*
X1575284Y5635601D01*
X1619361Y5545829D01*
X1626727Y5538476D01*
X1626729Y5538473D01*
X1698991Y5466337D01*
X1706360Y5458981D01*
X1816801Y5404996D01*
X1826476Y5403585D01*
X1826478Y5403584D01*
X1884222Y5395160D01*
X1884228Y5395160D01*
X1888749Y5394500D01*
X1931044Y5394500D01*
X2361549Y5394501D01*
X2429670Y5374499D01*
X2450644Y5357596D01*
X2602454Y5205786D01*
X2636480Y5143474D01*
X2631415Y5072659D01*
X2588868Y5015823D01*
X2522348Y4991012D01*
X2495175Y4992010D01*
X2471251Y4995500D01*
X2181111Y4995500D01*
X1888750Y4995499D01*
X1873015Y4993183D01*
X1825862Y4986243D01*
X1825861Y4986243D01*
X1816175Y4984817D01*
X1807387Y4980502D01*
X1807386Y4980502D01*
X1804211Y4978943D01*
X1705829Y4930639D01*
X1698476Y4923273D01*
X1698473Y4923271D01*
X1626337Y4851009D01*
X1618981Y4843640D01*
X1564996Y4733199D01*
X1554500Y4661251D01*
X1554501Y4153750D01*
X1555172Y4149192D01*
X1562116Y4102016D01*
X1565183Y4081175D01*
X1619361Y3970829D01*
X1626727Y3963476D01*
X1626729Y3963473D01*
X1698991Y3891337D01*
X1706360Y3883981D01*
X1772584Y3851610D01*
X1807591Y3834498D01*
X1816801Y3829996D01*
X1826476Y3828585D01*
X1826478Y3828584D01*
X1884222Y3820160D01*
X1884228Y3820160D01*
X1888749Y3819500D01*
X2178889Y3819500D01*
X2471250Y3819501D01*
X2497710Y3823396D01*
X2534138Y3828757D01*
X2534139Y3828757D01*
X2543825Y3830183D01*
X2552613Y3834498D01*
X2552614Y3834498D01*
X2644826Y3879773D01*
X2654171Y3884361D01*
X2661524Y3891727D01*
X2661527Y3891729D01*
X2716654Y3946953D01*
X2739680Y3970018D01*
X2801962Y4004097D01*
X2828852Y4007000D01*
X4071000Y4007000D01*
X4139121Y3986998D01*
X4160018Y3970173D01*
X4238599Y3891729D01*
X4246360Y3883981D01*
X4312584Y3851610D01*
X4347591Y3834498D01*
X4356801Y3829996D01*
X4366476Y3828585D01*
X4366478Y3828584D01*
X4424222Y3820160D01*
X4424228Y3820160D01*
X4428749Y3819500D01*
X4718889Y3819500D01*
X5011250Y3819501D01*
X5037710Y3823396D01*
X5074138Y3828757D01*
X5074139Y3828757D01*
X5083825Y3830183D01*
X5092613Y3834498D01*
X5092614Y3834498D01*
X5184826Y3879773D01*
X5194171Y3884361D01*
X5201524Y3891727D01*
X5201527Y3891729D01*
X5256654Y3946953D01*
X5279680Y3970018D01*
X5341962Y4004097D01*
X5368852Y4007000D01*
X6611000Y4007000D01*
X6679121Y3986998D01*
X6700018Y3970173D01*
X6778599Y3891729D01*
X6786360Y3883981D01*
X6852584Y3851610D01*
X6887591Y3834498D01*
X6896801Y3829996D01*
X6906476Y3828585D01*
X6906478Y3828584D01*
X6964222Y3820160D01*
X6964228Y3820160D01*
X6968749Y3819500D01*
X7258889Y3819500D01*
X7551250Y3819501D01*
X7577710Y3823396D01*
X7614138Y3828757D01*
X7614139Y3828757D01*
X7623825Y3830183D01*
X7632613Y3834498D01*
X7632614Y3834498D01*
X7724826Y3879773D01*
X7734171Y3884361D01*
X7741524Y3891727D01*
X7741527Y3891729D01*
X7796654Y3946953D01*
X7819680Y3970018D01*
X7881962Y4004097D01*
X7908852Y4007000D01*
X9151000Y4007000D01*
X9219121Y3986998D01*
X9240018Y3970173D01*
X9318599Y3891729D01*
X9326360Y3883981D01*
X9392584Y3851610D01*
X9427591Y3834498D01*
X9436801Y3829996D01*
X9446476Y3828585D01*
X9446478Y3828584D01*
X9504222Y3820160D01*
X9504228Y3820160D01*
X9508749Y3819500D01*
X9798889Y3819500D01*
X10091250Y3819501D01*
X10117710Y3823396D01*
X10154138Y3828757D01*
X10154139Y3828757D01*
X10163825Y3830183D01*
X10172613Y3834498D01*
X10172614Y3834498D01*
X10264826Y3879773D01*
X10274171Y3884361D01*
X10281524Y3891727D01*
X10281527Y3891729D01*
X10336654Y3946953D01*
X10359680Y3970018D01*
X10421962Y4004097D01*
X10448852Y4007000D01*
X11691000Y4007000D01*
X11759121Y3986998D01*
X11780018Y3970173D01*
X11858599Y3891729D01*
X11866360Y3883981D01*
X11932584Y3851610D01*
X11967591Y3834498D01*
X11976801Y3829996D01*
X11986476Y3828585D01*
X11986478Y3828584D01*
X12044222Y3820160D01*
X12044228Y3820160D01*
X12048749Y3819500D01*
X12338889Y3819500D01*
X12631250Y3819501D01*
X12657710Y3823396D01*
X12694138Y3828757D01*
X12694139Y3828757D01*
X12703825Y3830183D01*
X12712613Y3834498D01*
X12712614Y3834498D01*
X12804826Y3879773D01*
X12814171Y3884361D01*
X12821524Y3891727D01*
X12821527Y3891729D01*
X12876654Y3946953D01*
X12899680Y3970018D01*
X12961962Y4004097D01*
X12988852Y4007000D01*
X14231000Y4007000D01*
X14299121Y3986998D01*
X14320018Y3970173D01*
X14398599Y3891729D01*
X14406360Y3883981D01*
X14472584Y3851610D01*
X14507591Y3834498D01*
X14516801Y3829996D01*
X14526476Y3828585D01*
X14526478Y3828584D01*
X14584222Y3820160D01*
X14584228Y3820160D01*
X14588749Y3819500D01*
X14878889Y3819500D01*
X15171250Y3819501D01*
X15197710Y3823396D01*
X15234138Y3828757D01*
X15234139Y3828757D01*
X15243825Y3830183D01*
X15252613Y3834498D01*
X15252614Y3834498D01*
X15344826Y3879773D01*
X15354171Y3884361D01*
X15361524Y3891727D01*
X15361527Y3891729D01*
X15416654Y3946953D01*
X15439680Y3970018D01*
X15501962Y4004097D01*
X15528852Y4007000D01*
X16770933Y4007000D01*
X16780364Y4010064D01*
X16780368Y4010065D01*
X16791853Y4013797D01*
X16811078Y4018413D01*
X16823012Y4020303D01*
X16823013Y4020303D01*
X16832804Y4021854D01*
X16841637Y4026355D01*
X16841641Y4026356D01*
X16852406Y4031841D01*
X16870666Y4039405D01*
X16891590Y4046204D01*
X16909393Y4059139D01*
X16926245Y4069465D01*
X16937002Y4074946D01*
X16945842Y4079450D01*
X16968395Y4102003D01*
X16968410Y4102017D01*
X17730483Y4864091D01*
X17753050Y4886658D01*
X17757763Y4895908D01*
X17763038Y4906259D01*
X17773368Y4923116D01*
X17775403Y4925918D01*
X17786296Y4940910D01*
X17793094Y4961832D01*
X17800658Y4980093D01*
X17806145Y4990861D01*
X17806146Y4990865D01*
X17810646Y4999696D01*
X17812197Y5009485D01*
X17812199Y5009493D01*
X17814089Y5021427D01*
X17818703Y5040647D01*
X17822435Y5052133D01*
X17822436Y5052140D01*
X17825499Y5061567D01*
X17825499Y5093475D01*
X17825500Y5093481D01*
X17825500Y12538843D01*
X17845502Y12606964D01*
X17894688Y12651308D01*
X17963689Y12686163D01*
X18118303Y12806960D01*
X18148084Y12841461D01*
X18242485Y12950827D01*
X18242485Y12950828D01*
X18246509Y12955489D01*
X18343425Y13126091D01*
X18405358Y13312268D01*
X18429949Y13506929D01*
X18430341Y13535000D01*
X18411194Y13730272D01*
X18409413Y13736171D01*
X18409412Y13736176D01*
X18356265Y13912207D01*
X18354484Y13918106D01*
X18262370Y14091347D01*
X18138361Y14243398D01*
X17987180Y14368465D01*
X17814585Y14461787D01*
X17720868Y14490797D01*
X17633039Y14517985D01*
X17633036Y14517986D01*
X17627152Y14519807D01*
X17621027Y14520451D01*
X17621026Y14520451D01*
X17438147Y14539673D01*
X17438146Y14539673D01*
X17432019Y14540317D01*
X17309383Y14529156D01*
X17242759Y14523093D01*
X17242758Y14523093D01*
X17236618Y14522534D01*
X17230704Y14520793D01*
X17230702Y14520793D01*
X17101734Y14482835D01*
X17048393Y14467136D01*
X17042928Y14464279D01*
X16879972Y14379088D01*
X16879968Y14379085D01*
X16874512Y14376233D01*
X16869712Y14372373D01*
X16869711Y14372373D01*
X16835326Y14344727D01*
X16721600Y14253289D01*
X16595480Y14102984D01*
X16592516Y14097592D01*
X16592513Y14097588D01*
X16513813Y13954433D01*
X16500956Y13931046D01*
X16441628Y13744022D01*
X16419757Y13549037D01*
X16436175Y13353517D01*
X16490258Y13164909D01*
X16493076Y13159426D01*
X16577123Y12995887D01*
X16577126Y12995883D01*
X16579944Y12990399D01*
X16701818Y12836631D01*
X16851238Y12709465D01*
X16856616Y12706459D01*
X16856618Y12706458D01*
X16959970Y12648697D01*
X17009676Y12598004D01*
X17024500Y12538709D01*
X17024500Y5343083D01*
X17004498Y5274962D01*
X16987595Y5253988D01*
X16835595Y5101988D01*
X16773283Y5067962D01*
X16702468Y5073027D01*
X16645632Y5115574D01*
X16620821Y5182094D01*
X16620500Y5191082D01*
X16620499Y5368687D01*
X16620499Y5372414D01*
X16617538Y5397310D01*
X16574363Y5494510D01*
X16536765Y5532043D01*
X16507324Y5561433D01*
X16507322Y5561434D01*
X16499092Y5569650D01*
X16453596Y5589763D01*
X16399381Y5635601D01*
X16378554Y5703474D01*
X16397728Y5771833D01*
X16453397Y5820154D01*
X16488877Y5835914D01*
X16499510Y5840637D01*
X16537043Y5878235D01*
X16566433Y5907676D01*
X16566434Y5907678D01*
X16574650Y5915908D01*
X16593473Y5958484D01*
X16613823Y6004514D01*
X16613824Y6004517D01*
X16617655Y6013183D01*
X16620500Y6037585D01*
X16620499Y6392414D01*
X16617538Y6417310D01*
X16574363Y6514510D01*
X16518949Y6569828D01*
X16507324Y6581433D01*
X16507322Y6581434D01*
X16499092Y6589650D01*
X16485561Y6595632D01*
X16410486Y6628823D01*
X16410483Y6628824D01*
X16401817Y6632655D01*
X16392406Y6633752D01*
X16392403Y6633753D01*
X16387138Y6634366D01*
X16377415Y6635500D01*
X16358157Y6635500D01*
X16135951Y6635499D01*
X16067831Y6655501D01*
X16046856Y6672404D01*
X15172405Y7546855D01*
X15138379Y7609167D01*
X15135500Y7635950D01*
X15135500Y12470492D01*
X15155502Y12538613D01*
X15209158Y12585106D01*
X15227612Y12591849D01*
X15248556Y12597697D01*
X15423689Y12686163D01*
X15453515Y12709465D01*
X15573453Y12803171D01*
X15578303Y12806960D01*
X15608084Y12841461D01*
X15702485Y12950827D01*
X15702485Y12950828D01*
X15706509Y12955489D01*
X15803425Y13126091D01*
X15865358Y13312268D01*
X15889949Y13506929D01*
X15890341Y13535000D01*
X15871194Y13730272D01*
X15869413Y13736171D01*
X15869412Y13736176D01*
X15816265Y13912207D01*
X15814484Y13918106D01*
X15722370Y14091347D01*
X15598361Y14243398D01*
X15447180Y14368465D01*
X15274585Y14461787D01*
X15180868Y14490797D01*
X15093039Y14517985D01*
X15093036Y14517986D01*
X15087152Y14519807D01*
X15081027Y14520451D01*
X15081026Y14520451D01*
X14898147Y14539673D01*
X14898146Y14539673D01*
X14892019Y14540317D01*
X14769383Y14529156D01*
X14702759Y14523093D01*
X14702758Y14523093D01*
X14696618Y14522534D01*
X14690704Y14520793D01*
X14690702Y14520793D01*
X14561734Y14482835D01*
X14508393Y14467136D01*
X14502928Y14464279D01*
X14339972Y14379088D01*
X14339968Y14379085D01*
X14334512Y14376233D01*
X14329712Y14372373D01*
X14329711Y14372373D01*
X14295326Y14344727D01*
X14181600Y14253289D01*
X14055480Y14102984D01*
X14052516Y14097592D01*
X14052513Y14097588D01*
X13973813Y13954433D01*
X13960956Y13931046D01*
X13901628Y13744022D01*
X13879757Y13549037D01*
X13896175Y13353517D01*
X13950258Y13164909D01*
X13953076Y13159426D01*
X14037123Y12995887D01*
X14037126Y12995883D01*
X14039944Y12990399D01*
X14161818Y12836631D01*
X14311238Y12709465D01*
X14316616Y12706459D01*
X14316618Y12706458D01*
X14352932Y12686163D01*
X14482513Y12613743D01*
X14547438Y12592647D01*
X14606042Y12552574D01*
X14633679Y12487178D01*
X14634500Y12472815D01*
X14634500Y7517085D01*
X14632079Y7492504D01*
X14629592Y7480000D01*
X14649034Y7382259D01*
X14668943Y7352464D01*
X14704399Y7299399D01*
X14714714Y7292507D01*
X14714716Y7292505D01*
X14715005Y7292312D01*
X14734098Y7276642D01*
X15225145Y6785595D01*
X15259171Y6723283D01*
X15254106Y6652468D01*
X15211559Y6595632D01*
X15145039Y6570821D01*
X15136050Y6570500D01*
X14656176Y6570499D01*
X14588750Y6570499D01*
X14562290Y6566604D01*
X14525862Y6561243D01*
X14525861Y6561243D01*
X14516175Y6559817D01*
X14507387Y6555502D01*
X14507386Y6555502D01*
X14459994Y6532233D01*
X14405829Y6505639D01*
X14398476Y6498273D01*
X14398473Y6498271D01*
X14326337Y6426009D01*
X14318981Y6418640D01*
X14314408Y6409286D01*
X14314408Y6409285D01*
X14309629Y6399509D01*
X14261742Y6347094D01*
X14193119Y6328889D01*
X14125547Y6350674D01*
X14080481Y6405532D01*
X14078139Y6412256D01*
X14077538Y6417310D01*
X14034363Y6514510D01*
X13978949Y6569828D01*
X13967324Y6581433D01*
X13967322Y6581434D01*
X13959092Y6589650D01*
X13945561Y6595632D01*
X13870486Y6628823D01*
X13870483Y6628824D01*
X13861817Y6632655D01*
X13852406Y6633752D01*
X13852403Y6633753D01*
X13847138Y6634366D01*
X13837415Y6635500D01*
X13818157Y6635500D01*
X13595951Y6635499D01*
X13527831Y6655501D01*
X13506856Y6672404D01*
X12632405Y7546855D01*
X12598379Y7609167D01*
X12595500Y7635950D01*
X12595500Y12470492D01*
X12615502Y12538613D01*
X12669158Y12585106D01*
X12687612Y12591849D01*
X12708556Y12597697D01*
X12883689Y12686163D01*
X12913515Y12709465D01*
X13033453Y12803171D01*
X13038303Y12806960D01*
X13068084Y12841461D01*
X13162485Y12950827D01*
X13162485Y12950828D01*
X13166509Y12955489D01*
X13263425Y13126091D01*
X13325358Y13312268D01*
X13349949Y13506929D01*
X13350341Y13535000D01*
X13331194Y13730272D01*
X13329413Y13736171D01*
X13329412Y13736176D01*
X13276265Y13912207D01*
X13274484Y13918106D01*
X13182370Y14091347D01*
X13058361Y14243398D01*
X12907180Y14368465D01*
X12734585Y14461787D01*
X12640868Y14490797D01*
X12553039Y14517985D01*
X12553036Y14517986D01*
X12547152Y14519807D01*
X12541027Y14520451D01*
X12541026Y14520451D01*
X12358147Y14539673D01*
X12358146Y14539673D01*
X12352019Y14540317D01*
X12229383Y14529156D01*
X12162759Y14523093D01*
X12162758Y14523093D01*
X12156618Y14522534D01*
X12150704Y14520793D01*
X12150702Y14520793D01*
X12021734Y14482835D01*
X11968393Y14467136D01*
X11962928Y14464279D01*
X11799972Y14379088D01*
X11799968Y14379085D01*
X11794512Y14376233D01*
X11789712Y14372373D01*
X11789711Y14372373D01*
X11755326Y14344727D01*
X11641600Y14253289D01*
X11515480Y14102984D01*
X11512516Y14097592D01*
X11512513Y14097588D01*
X11433813Y13954433D01*
X11420956Y13931046D01*
X11361628Y13744022D01*
X11339757Y13549037D01*
X11356175Y13353517D01*
X11410258Y13164909D01*
X11413076Y13159426D01*
X11497123Y12995887D01*
X11497126Y12995883D01*
X11499944Y12990399D01*
X11621818Y12836631D01*
X11771238Y12709465D01*
X11776616Y12706459D01*
X11776618Y12706458D01*
X11812932Y12686163D01*
X11942513Y12613743D01*
X12007438Y12592647D01*
X12066042Y12552574D01*
X12093679Y12487178D01*
X12094500Y12472815D01*
X12094500Y7517085D01*
X12092079Y7492504D01*
X12089592Y7480000D01*
X12109034Y7382259D01*
X12128943Y7352464D01*
X12164399Y7299399D01*
X12174714Y7292507D01*
X12174716Y7292505D01*
X12175005Y7292312D01*
X12194098Y7276642D01*
X12685145Y6785595D01*
X12719171Y6723283D01*
X12714106Y6652468D01*
X12671559Y6595632D01*
X12605039Y6570821D01*
X12596050Y6570500D01*
X12116176Y6570499D01*
X12048750Y6570499D01*
X12022290Y6566604D01*
X11985862Y6561243D01*
X11985861Y6561243D01*
X11976175Y6559817D01*
X11967387Y6555502D01*
X11967386Y6555502D01*
X11919994Y6532233D01*
X11865829Y6505639D01*
X11858476Y6498273D01*
X11858473Y6498271D01*
X11786337Y6426009D01*
X11778981Y6418640D01*
X11774408Y6409286D01*
X11774408Y6409285D01*
X11769629Y6399509D01*
X11721742Y6347094D01*
X11653119Y6328889D01*
X11585547Y6350674D01*
X11540481Y6405532D01*
X11538139Y6412256D01*
X11537538Y6417310D01*
X11494363Y6514510D01*
X11438949Y6569828D01*
X11427324Y6581433D01*
X11427322Y6581434D01*
X11419092Y6589650D01*
X11405561Y6595632D01*
X11330486Y6628823D01*
X11330483Y6628824D01*
X11321817Y6632655D01*
X11312406Y6633752D01*
X11312403Y6633753D01*
X11307138Y6634366D01*
X11297415Y6635500D01*
X11278157Y6635500D01*
X11055951Y6635499D01*
X10987831Y6655501D01*
X10966856Y6672404D01*
X10092405Y7546855D01*
X10058379Y7609167D01*
X10055500Y7635950D01*
X10055500Y12470492D01*
X10075502Y12538613D01*
X10129158Y12585106D01*
X10147612Y12591849D01*
X10168556Y12597697D01*
X10343689Y12686163D01*
X10373515Y12709465D01*
X10493453Y12803171D01*
X10498303Y12806960D01*
X10528084Y12841461D01*
X10622485Y12950827D01*
X10622485Y12950828D01*
X10626509Y12955489D01*
X10723425Y13126091D01*
X10785358Y13312268D01*
X10809949Y13506929D01*
X10810341Y13535000D01*
X10791194Y13730272D01*
X10789413Y13736171D01*
X10789412Y13736176D01*
X10736265Y13912207D01*
X10734484Y13918106D01*
X10642370Y14091347D01*
X10518361Y14243398D01*
X10367180Y14368465D01*
X10194585Y14461787D01*
X10100868Y14490797D01*
X10013039Y14517985D01*
X10013036Y14517986D01*
X10007152Y14519807D01*
X10001027Y14520451D01*
X10001026Y14520451D01*
X9818147Y14539673D01*
X9818146Y14539673D01*
X9812019Y14540317D01*
X9689383Y14529156D01*
X9622759Y14523093D01*
X9622758Y14523093D01*
X9616618Y14522534D01*
X9610704Y14520793D01*
X9610702Y14520793D01*
X9481734Y14482835D01*
X9428393Y14467136D01*
X9422928Y14464279D01*
X9259972Y14379088D01*
X9259968Y14379085D01*
X9254512Y14376233D01*
X9249712Y14372373D01*
X9249711Y14372373D01*
X9215326Y14344727D01*
X9101600Y14253289D01*
X8975480Y14102984D01*
X8972516Y14097592D01*
X8972513Y14097588D01*
X8893813Y13954433D01*
X8880956Y13931046D01*
X8821628Y13744022D01*
X8799757Y13549037D01*
X8816175Y13353517D01*
X8870258Y13164909D01*
X8873076Y13159426D01*
X8957123Y12995887D01*
X8957126Y12995883D01*
X8959944Y12990399D01*
X9081818Y12836631D01*
X9231238Y12709465D01*
X9236616Y12706459D01*
X9236618Y12706458D01*
X9272932Y12686163D01*
X9402513Y12613743D01*
X9467438Y12592647D01*
X9526042Y12552574D01*
X9553679Y12487178D01*
X9554500Y12472815D01*
X9554500Y7517085D01*
X9552079Y7492504D01*
X9549592Y7480000D01*
X9569034Y7382259D01*
X9588943Y7352464D01*
X9624399Y7299399D01*
X9634714Y7292507D01*
X9634716Y7292505D01*
X9635005Y7292312D01*
X9654098Y7276642D01*
X10145145Y6785595D01*
X10179171Y6723283D01*
X10174106Y6652468D01*
X10131559Y6595632D01*
X10065039Y6570821D01*
X10056050Y6570500D01*
X9576176Y6570499D01*
X9508750Y6570499D01*
X9482290Y6566604D01*
X9445862Y6561243D01*
X9445861Y6561243D01*
X9436175Y6559817D01*
X9427387Y6555502D01*
X9427386Y6555502D01*
X9379994Y6532233D01*
X9325829Y6505639D01*
X9318476Y6498273D01*
X9318473Y6498271D01*
X9246337Y6426009D01*
X9238981Y6418640D01*
X9234408Y6409286D01*
X9234408Y6409285D01*
X9229629Y6399509D01*
X9181742Y6347094D01*
X9113119Y6328889D01*
X9045547Y6350674D01*
X9000481Y6405532D01*
X8998139Y6412256D01*
X8997538Y6417310D01*
X8954363Y6514510D01*
X8898949Y6569828D01*
X8887324Y6581433D01*
X8887322Y6581434D01*
X8879092Y6589650D01*
X8865561Y6595632D01*
X8790486Y6628823D01*
X8790483Y6628824D01*
X8781817Y6632655D01*
X8772406Y6633752D01*
X8772403Y6633753D01*
X8767138Y6634366D01*
X8757415Y6635500D01*
X8738157Y6635500D01*
X8515951Y6635499D01*
X8447831Y6655501D01*
X8426856Y6672404D01*
X7552405Y7546855D01*
X7518379Y7609167D01*
X7515500Y7635950D01*
X7515500Y12470492D01*
X7535502Y12538613D01*
X7589158Y12585106D01*
X7607612Y12591849D01*
X7628556Y12597697D01*
X7803689Y12686163D01*
X7833515Y12709465D01*
X7953453Y12803171D01*
X7958303Y12806960D01*
X7988084Y12841461D01*
X8082485Y12950827D01*
X8082485Y12950828D01*
X8086509Y12955489D01*
X8183425Y13126091D01*
X8245358Y13312268D01*
X8269949Y13506929D01*
X8270341Y13535000D01*
X8251194Y13730272D01*
X8249413Y13736171D01*
X8249412Y13736176D01*
X8196265Y13912207D01*
X8194484Y13918106D01*
X8102370Y14091347D01*
X7978361Y14243398D01*
X7827180Y14368465D01*
X7654585Y14461787D01*
X7560868Y14490797D01*
X7473039Y14517985D01*
X7473036Y14517986D01*
X7467152Y14519807D01*
X7461027Y14520451D01*
X7461026Y14520451D01*
X7278147Y14539673D01*
X7278146Y14539673D01*
X7272019Y14540317D01*
X7149383Y14529156D01*
X7082759Y14523093D01*
X7082758Y14523093D01*
X7076618Y14522534D01*
X7070704Y14520793D01*
X7070702Y14520793D01*
X6941734Y14482835D01*
X6888393Y14467136D01*
X6882928Y14464279D01*
X6719972Y14379088D01*
X6719968Y14379085D01*
X6714512Y14376233D01*
X6709712Y14372373D01*
X6709711Y14372373D01*
X6675326Y14344727D01*
X6561600Y14253289D01*
X6435480Y14102984D01*
X6432516Y14097592D01*
X6432513Y14097588D01*
X6353813Y13954433D01*
X6340956Y13931046D01*
X6281628Y13744022D01*
X6259757Y13549037D01*
X6276175Y13353517D01*
X6330258Y13164909D01*
X6333076Y13159426D01*
X6417123Y12995887D01*
X6417126Y12995883D01*
X6419944Y12990399D01*
X6541818Y12836631D01*
X6691238Y12709465D01*
X6696616Y12706459D01*
X6696618Y12706458D01*
X6732932Y12686163D01*
X6862513Y12613743D01*
X6927438Y12592647D01*
X6986042Y12552574D01*
X7013679Y12487178D01*
X7014500Y12472815D01*
X7014500Y7517085D01*
X7012079Y7492504D01*
X7009592Y7480000D01*
X7029034Y7382259D01*
X7048943Y7352464D01*
X7084399Y7299399D01*
X7094714Y7292507D01*
X7094716Y7292505D01*
X7095005Y7292312D01*
X7114098Y7276642D01*
X7605145Y6785595D01*
X7639171Y6723283D01*
X7634106Y6652468D01*
X7591559Y6595632D01*
X7525039Y6570821D01*
X7516050Y6570500D01*
X7036176Y6570499D01*
X6968750Y6570499D01*
X6942290Y6566604D01*
X6905862Y6561243D01*
X6905861Y6561243D01*
X6896175Y6559817D01*
X6887387Y6555502D01*
X6887386Y6555502D01*
X6839994Y6532233D01*
X6785829Y6505639D01*
X6778476Y6498273D01*
X6778473Y6498271D01*
X6706337Y6426009D01*
X6698981Y6418640D01*
X6694408Y6409286D01*
X6694408Y6409285D01*
X6689629Y6399509D01*
X6641742Y6347094D01*
X6573119Y6328889D01*
X6505547Y6350674D01*
X6460481Y6405532D01*
X6458139Y6412256D01*
X6457538Y6417310D01*
X6414363Y6514510D01*
X6358949Y6569828D01*
X6347324Y6581433D01*
X6347322Y6581434D01*
X6339092Y6589650D01*
X6325561Y6595632D01*
X6250486Y6628823D01*
X6250483Y6628824D01*
X6241817Y6632655D01*
X6232406Y6633752D01*
X6232403Y6633753D01*
X6227138Y6634366D01*
X6217415Y6635500D01*
X6198157Y6635500D01*
X5975951Y6635499D01*
X5907831Y6655501D01*
X5886856Y6672404D01*
X5012405Y7546855D01*
X4978379Y7609167D01*
X4975500Y7635950D01*
X4975500Y12470492D01*
X4995502Y12538613D01*
X5049158Y12585106D01*
X5067612Y12591849D01*
X5088556Y12597697D01*
X5263689Y12686163D01*
X5293515Y12709465D01*
X5413453Y12803171D01*
X5418303Y12806960D01*
X5448084Y12841461D01*
X5542485Y12950827D01*
X5542485Y12950828D01*
X5546509Y12955489D01*
X5643425Y13126091D01*
X5705358Y13312268D01*
X5729949Y13506929D01*
X5730341Y13535000D01*
X5711194Y13730272D01*
X5709413Y13736171D01*
X5709412Y13736176D01*
X5656265Y13912207D01*
X5654484Y13918106D01*
X5562370Y14091347D01*
X5438361Y14243398D01*
X5287180Y14368465D01*
X5114585Y14461787D01*
X5020868Y14490797D01*
X4933039Y14517985D01*
X4933036Y14517986D01*
X4927152Y14519807D01*
X4921027Y14520451D01*
X4921026Y14520451D01*
X4738147Y14539673D01*
X4738146Y14539673D01*
X4732019Y14540317D01*
X4609383Y14529156D01*
X4542759Y14523093D01*
X4542758Y14523093D01*
X4536618Y14522534D01*
X4530704Y14520793D01*
X4530702Y14520793D01*
X4401734Y14482835D01*
X4348393Y14467136D01*
X4342928Y14464279D01*
X4179972Y14379088D01*
X4179968Y14379085D01*
X4174512Y14376233D01*
X4169712Y14372373D01*
X4169711Y14372373D01*
X4135326Y14344727D01*
X4021600Y14253289D01*
X3895480Y14102984D01*
X3892516Y14097592D01*
X3892513Y14097588D01*
X3813813Y13954433D01*
X3800956Y13931046D01*
X3741628Y13744022D01*
X3719757Y13549037D01*
X3736175Y13353517D01*
X3790258Y13164909D01*
X3793076Y13159426D01*
X3877123Y12995887D01*
X3877126Y12995883D01*
X3879944Y12990399D01*
X4001818Y12836631D01*
X4151238Y12709465D01*
X4156616Y12706459D01*
X4156618Y12706458D01*
X4192932Y12686163D01*
X4322513Y12613743D01*
X4387438Y12592647D01*
X4446042Y12552574D01*
X4473679Y12487178D01*
X4474500Y12472815D01*
X4474500Y7517085D01*
X4472079Y7492504D01*
X4469592Y7480000D01*
X4489034Y7382259D01*
X4508943Y7352464D01*
X4544399Y7299399D01*
X4554714Y7292507D01*
X4554716Y7292505D01*
X4555005Y7292312D01*
X4574098Y7276642D01*
X5065145Y6785595D01*
X5099171Y6723283D01*
X5094106Y6652468D01*
X5051559Y6595632D01*
X4985039Y6570821D01*
X4976050Y6570500D01*
X4496176Y6570499D01*
X4428750Y6570499D01*
X4402290Y6566604D01*
X4365862Y6561243D01*
X4365861Y6561243D01*
X4356175Y6559817D01*
X4347387Y6555502D01*
X4347386Y6555502D01*
X4299994Y6532233D01*
X4245829Y6505639D01*
X4238476Y6498273D01*
X4238473Y6498271D01*
X4166337Y6426009D01*
X4158981Y6418640D01*
X4154408Y6409286D01*
X4154408Y6409285D01*
X4149629Y6399509D01*
X4101742Y6347094D01*
X4033119Y6328889D01*
X3965547Y6350674D01*
X3920481Y6405532D01*
X3918139Y6412256D01*
X3917538Y6417310D01*
X3874363Y6514510D01*
X3818949Y6569828D01*
X3807324Y6581433D01*
X3807322Y6581434D01*
X3799092Y6589650D01*
X3785561Y6595632D01*
X3710486Y6628823D01*
X3710483Y6628824D01*
X3701817Y6632655D01*
X3692406Y6633752D01*
X3692403Y6633753D01*
X3687138Y6634366D01*
X3677415Y6635500D01*
X3658157Y6635500D01*
X3435951Y6635499D01*
X3367831Y6655501D01*
X3346856Y6672404D01*
X2472405Y7546855D01*
X2438379Y7609167D01*
X2435500Y7635950D01*
X2435500Y12470492D01*
X2455502Y12538613D01*
X2509158Y12585106D01*
X2527612Y12591849D01*
X2548556Y12597697D01*
X2723689Y12686163D01*
X2753515Y12709465D01*
X2873453Y12803171D01*
X2878303Y12806960D01*
X2908084Y12841461D01*
X3002485Y12950827D01*
X3002485Y12950828D01*
X3006509Y12955489D01*
X3103425Y13126091D01*
X3165358Y13312268D01*
X3189949Y13506929D01*
X3190341Y13535000D01*
X3171194Y13730272D01*
X3169413Y13736171D01*
X3169412Y13736176D01*
X3116265Y13912207D01*
X3114484Y13918106D01*
X3022370Y14091347D01*
X2898361Y14243398D01*
X2747180Y14368465D01*
X2574585Y14461787D01*
X2480868Y14490797D01*
X2393039Y14517985D01*
X2393036Y14517986D01*
X2387152Y14519807D01*
X2381027Y14520451D01*
X2381026Y14520451D01*
X2198147Y14539673D01*
X2198146Y14539673D01*
X2192019Y14540317D01*
X2069383Y14529156D01*
X2002759Y14523093D01*
X2002758Y14523093D01*
X1996618Y14522534D01*
X1990704Y14520793D01*
X1990702Y14520793D01*
X1861734Y14482835D01*
X1808393Y14467136D01*
X1802928Y14464279D01*
X1639972Y14379088D01*
X1639968Y14379085D01*
X1634512Y14376233D01*
X1629712Y14372373D01*
X1629711Y14372373D01*
X1595326Y14344727D01*
X1481600Y14253289D01*
X1355480Y14102984D01*
X1352516Y14097592D01*
X1352513Y14097588D01*
X1273813Y13954433D01*
X1260956Y13931046D01*
X1201628Y13744022D01*
X1179757Y13549037D01*
X150500Y13549037D01*
X150500Y16089037D01*
X1179757Y16089037D01*
X1196175Y15893517D01*
X1250258Y15704909D01*
X1253076Y15699426D01*
X1337123Y15535887D01*
X1337126Y15535883D01*
X1339944Y15530399D01*
X1461818Y15376631D01*
X1611238Y15249465D01*
X1616616Y15246459D01*
X1616618Y15246458D01*
X1692306Y15204158D01*
X1782513Y15153743D01*
X1969118Y15093111D01*
X2163946Y15069879D01*
X2170081Y15070351D01*
X2170083Y15070351D01*
X2353434Y15084459D01*
X2353438Y15084460D01*
X2359576Y15084932D01*
X2548556Y15137697D01*
X2723689Y15226163D01*
X2753515Y15249465D01*
X2873453Y15343171D01*
X2878303Y15346960D01*
X2908084Y15381461D01*
X3002485Y15490827D01*
X3002485Y15490828D01*
X3006509Y15495489D01*
X3103425Y15666091D01*
X3165358Y15852268D01*
X3189949Y16046929D01*
X3190341Y16075000D01*
X3188965Y16089037D01*
X3719757Y16089037D01*
X3736175Y15893517D01*
X3790258Y15704909D01*
X3793076Y15699426D01*
X3877123Y15535887D01*
X3877126Y15535883D01*
X3879944Y15530399D01*
X4001818Y15376631D01*
X4151238Y15249465D01*
X4156616Y15246459D01*
X4156618Y15246458D01*
X4232306Y15204158D01*
X4322513Y15153743D01*
X4509118Y15093111D01*
X4703946Y15069879D01*
X4710081Y15070351D01*
X4710083Y15070351D01*
X4893434Y15084459D01*
X4893438Y15084460D01*
X4899576Y15084932D01*
X5088556Y15137697D01*
X5263689Y15226163D01*
X5293515Y15249465D01*
X5413453Y15343171D01*
X5418303Y15346960D01*
X5448084Y15381461D01*
X5542485Y15490827D01*
X5542485Y15490828D01*
X5546509Y15495489D01*
X5643425Y15666091D01*
X5705358Y15852268D01*
X5729949Y16046929D01*
X5730341Y16075000D01*
X5728965Y16089037D01*
X6259757Y16089037D01*
X6276175Y15893517D01*
X6330258Y15704909D01*
X6333076Y15699426D01*
X6417123Y15535887D01*
X6417126Y15535883D01*
X6419944Y15530399D01*
X6541818Y15376631D01*
X6691238Y15249465D01*
X6696616Y15246459D01*
X6696618Y15246458D01*
X6772306Y15204158D01*
X6862513Y15153743D01*
X7049118Y15093111D01*
X7243946Y15069879D01*
X7250081Y15070351D01*
X7250083Y15070351D01*
X7433434Y15084459D01*
X7433438Y15084460D01*
X7439576Y15084932D01*
X7628556Y15137697D01*
X7803689Y15226163D01*
X7833515Y15249465D01*
X7953453Y15343171D01*
X7958303Y15346960D01*
X7988084Y15381461D01*
X8082485Y15490827D01*
X8082485Y15490828D01*
X8086509Y15495489D01*
X8183425Y15666091D01*
X8245358Y15852268D01*
X8269949Y16046929D01*
X8270341Y16075000D01*
X8268965Y16089037D01*
X8799757Y16089037D01*
X8816175Y15893517D01*
X8870258Y15704909D01*
X8873076Y15699426D01*
X8957123Y15535887D01*
X8957126Y15535883D01*
X8959944Y15530399D01*
X9081818Y15376631D01*
X9231238Y15249465D01*
X9236616Y15246459D01*
X9236618Y15246458D01*
X9312306Y15204158D01*
X9402513Y15153743D01*
X9589118Y15093111D01*
X9783946Y15069879D01*
X9790081Y15070351D01*
X9790083Y15070351D01*
X9973434Y15084459D01*
X9973438Y15084460D01*
X9979576Y15084932D01*
X10168556Y15137697D01*
X10343689Y15226163D01*
X10373515Y15249465D01*
X10493453Y15343171D01*
X10498303Y15346960D01*
X10528084Y15381461D01*
X10622485Y15490827D01*
X10622485Y15490828D01*
X10626509Y15495489D01*
X10723425Y15666091D01*
X10785358Y15852268D01*
X10809949Y16046929D01*
X10810341Y16075000D01*
X10808965Y16089037D01*
X11339757Y16089037D01*
X11356175Y15893517D01*
X11410258Y15704909D01*
X11413076Y15699426D01*
X11497123Y15535887D01*
X11497126Y15535883D01*
X11499944Y15530399D01*
X11621818Y15376631D01*
X11771238Y15249465D01*
X11776616Y15246459D01*
X11776618Y15246458D01*
X11852306Y15204158D01*
X11942513Y15153743D01*
X12129118Y15093111D01*
X12323946Y15069879D01*
X12330081Y15070351D01*
X12330083Y15070351D01*
X12513434Y15084459D01*
X12513438Y15084460D01*
X12519576Y15084932D01*
X12708556Y15137697D01*
X12883689Y15226163D01*
X12913515Y15249465D01*
X13033453Y15343171D01*
X13038303Y15346960D01*
X13068084Y15381461D01*
X13162485Y15490827D01*
X13162485Y15490828D01*
X13166509Y15495489D01*
X13263425Y15666091D01*
X13325358Y15852268D01*
X13349949Y16046929D01*
X13350341Y16075000D01*
X13348965Y16089037D01*
X13879757Y16089037D01*
X13896175Y15893517D01*
X13950258Y15704909D01*
X13953076Y15699426D01*
X14037123Y15535887D01*
X14037126Y15535883D01*
X14039944Y15530399D01*
X14161818Y15376631D01*
X14311238Y15249465D01*
X14316616Y15246459D01*
X14316618Y15246458D01*
X14392306Y15204158D01*
X14482513Y15153743D01*
X14669118Y15093111D01*
X14863946Y15069879D01*
X14870081Y15070351D01*
X14870083Y15070351D01*
X15053434Y15084459D01*
X15053438Y15084460D01*
X15059576Y15084932D01*
X15248556Y15137697D01*
X15404389Y15216414D01*
X16425001Y15216414D01*
X16426209Y15204154D01*
X16431282Y15178648D01*
X16440599Y15156152D01*
X16459963Y15127172D01*
X16477172Y15109963D01*
X16506156Y15090596D01*
X16528642Y15081282D01*
X16554158Y15076207D01*
X16566412Y15075000D01*
X17152885Y15075000D01*
X17168124Y15079475D01*
X17169329Y15080865D01*
X17171000Y15088548D01*
X17171000Y15093116D01*
X17679000Y15093116D01*
X17683475Y15077877D01*
X17684865Y15076672D01*
X17692548Y15075001D01*
X18283586Y15075001D01*
X18295846Y15076209D01*
X18321352Y15081282D01*
X18343848Y15090599D01*
X18372828Y15109963D01*
X18390037Y15127172D01*
X18409404Y15156156D01*
X18418718Y15178642D01*
X18423793Y15204158D01*
X18425000Y15216412D01*
X18425000Y15802885D01*
X18420525Y15818124D01*
X18419135Y15819329D01*
X18411452Y15821000D01*
X17697115Y15821000D01*
X17681876Y15816525D01*
X17680671Y15815135D01*
X17679000Y15807452D01*
X17679000Y15093116D01*
X17171000Y15093116D01*
X17171000Y15802885D01*
X17166525Y15818124D01*
X17165135Y15819329D01*
X17157452Y15821000D01*
X16443116Y15821000D01*
X16427877Y15816525D01*
X16426672Y15815135D01*
X16425001Y15807452D01*
X16425001Y15216414D01*
X15404389Y15216414D01*
X15423689Y15226163D01*
X15453515Y15249465D01*
X15573453Y15343171D01*
X15578303Y15346960D01*
X15608084Y15381461D01*
X15702485Y15490827D01*
X15702485Y15490828D01*
X15706509Y15495489D01*
X15803425Y15666091D01*
X15865358Y15852268D01*
X15889949Y16046929D01*
X15890341Y16075000D01*
X15871194Y16270272D01*
X15869413Y16276171D01*
X15869412Y16276176D01*
X15847994Y16347115D01*
X16425000Y16347115D01*
X16429475Y16331876D01*
X16430865Y16330671D01*
X16438548Y16329000D01*
X17152885Y16329000D01*
X17168124Y16333475D01*
X17169329Y16334865D01*
X17171000Y16342548D01*
X17171000Y16347115D01*
X17679000Y16347115D01*
X17683475Y16331876D01*
X17684865Y16330671D01*
X17692548Y16329000D01*
X18406884Y16329000D01*
X18422123Y16333475D01*
X18423328Y16334865D01*
X18424999Y16342548D01*
X18424999Y16933586D01*
X18423791Y16945846D01*
X18418718Y16971352D01*
X18409401Y16993848D01*
X18390037Y17022828D01*
X18372828Y17040037D01*
X18343844Y17059404D01*
X18321358Y17068718D01*
X18295842Y17073793D01*
X18283588Y17075000D01*
X17697115Y17075000D01*
X17681876Y17070525D01*
X17680671Y17069135D01*
X17679000Y17061452D01*
X17679000Y16347115D01*
X17171000Y16347115D01*
X17171000Y17056884D01*
X17166525Y17072123D01*
X17165135Y17073328D01*
X17157452Y17074999D01*
X16566414Y17074999D01*
X16554154Y17073791D01*
X16528648Y17068718D01*
X16506152Y17059401D01*
X16477172Y17040037D01*
X16459963Y17022828D01*
X16440596Y16993844D01*
X16431282Y16971358D01*
X16426207Y16945842D01*
X16425000Y16933588D01*
X16425000Y16347115D01*
X15847994Y16347115D01*
X15816265Y16452207D01*
X15814484Y16458106D01*
X15722370Y16631347D01*
X15598361Y16783398D01*
X15447180Y16908465D01*
X15274585Y17001787D01*
X15151019Y17040037D01*
X15093039Y17057985D01*
X15093036Y17057986D01*
X15087152Y17059807D01*
X15081027Y17060451D01*
X15081026Y17060451D01*
X14898147Y17079673D01*
X14898146Y17079673D01*
X14892019Y17080317D01*
X14801983Y17072123D01*
X14702759Y17063093D01*
X14702758Y17063093D01*
X14696618Y17062534D01*
X14690704Y17060793D01*
X14690702Y17060793D01*
X14677421Y17056884D01*
X14508393Y17007136D01*
X14502928Y17004279D01*
X14339972Y16919088D01*
X14339968Y16919085D01*
X14334512Y16916233D01*
X14329712Y16912373D01*
X14329711Y16912373D01*
X14295326Y16884727D01*
X14181600Y16793289D01*
X14055480Y16642984D01*
X14052516Y16637592D01*
X14052513Y16637588D01*
X13973813Y16494433D01*
X13960956Y16471046D01*
X13901628Y16284022D01*
X13879757Y16089037D01*
X13348965Y16089037D01*
X13331194Y16270272D01*
X13329413Y16276171D01*
X13329412Y16276176D01*
X13276265Y16452207D01*
X13274484Y16458106D01*
X13182370Y16631347D01*
X13058361Y16783398D01*
X12907180Y16908465D01*
X12734585Y17001787D01*
X12611019Y17040037D01*
X12553039Y17057985D01*
X12553036Y17057986D01*
X12547152Y17059807D01*
X12541027Y17060451D01*
X12541026Y17060451D01*
X12358147Y17079673D01*
X12358146Y17079673D01*
X12352019Y17080317D01*
X12261983Y17072123D01*
X12162759Y17063093D01*
X12162758Y17063093D01*
X12156618Y17062534D01*
X12150704Y17060793D01*
X12150702Y17060793D01*
X12137421Y17056884D01*
X11968393Y17007136D01*
X11962928Y17004279D01*
X11799972Y16919088D01*
X11799968Y16919085D01*
X11794512Y16916233D01*
X11789712Y16912373D01*
X11789711Y16912373D01*
X11755326Y16884727D01*
X11641600Y16793289D01*
X11515480Y16642984D01*
X11512516Y16637592D01*
X11512513Y16637588D01*
X11433813Y16494433D01*
X11420956Y16471046D01*
X11361628Y16284022D01*
X11339757Y16089037D01*
X10808965Y16089037D01*
X10791194Y16270272D01*
X10789413Y16276171D01*
X10789412Y16276176D01*
X10736265Y16452207D01*
X10734484Y16458106D01*
X10642370Y16631347D01*
X10518361Y16783398D01*
X10367180Y16908465D01*
X10194585Y17001787D01*
X10071019Y17040037D01*
X10013039Y17057985D01*
X10013036Y17057986D01*
X10007152Y17059807D01*
X10001027Y17060451D01*
X10001026Y17060451D01*
X9818147Y17079673D01*
X9818146Y17079673D01*
X9812019Y17080317D01*
X9721983Y17072123D01*
X9622759Y17063093D01*
X9622758Y17063093D01*
X9616618Y17062534D01*
X9610704Y17060793D01*
X9610702Y17060793D01*
X9597421Y17056884D01*
X9428393Y17007136D01*
X9422928Y17004279D01*
X9259972Y16919088D01*
X9259968Y16919085D01*
X9254512Y16916233D01*
X9249712Y16912373D01*
X9249711Y16912373D01*
X9215326Y16884727D01*
X9101600Y16793289D01*
X8975480Y16642984D01*
X8972516Y16637592D01*
X8972513Y16637588D01*
X8893813Y16494433D01*
X8880956Y16471046D01*
X8821628Y16284022D01*
X8799757Y16089037D01*
X8268965Y16089037D01*
X8251194Y16270272D01*
X8249413Y16276171D01*
X8249412Y16276176D01*
X8196265Y16452207D01*
X8194484Y16458106D01*
X8102370Y16631347D01*
X7978361Y16783398D01*
X7827180Y16908465D01*
X7654585Y17001787D01*
X7531019Y17040037D01*
X7473039Y17057985D01*
X7473036Y17057986D01*
X7467152Y17059807D01*
X7461027Y17060451D01*
X7461026Y17060451D01*
X7278147Y17079673D01*
X7278146Y17079673D01*
X7272019Y17080317D01*
X7181983Y17072123D01*
X7082759Y17063093D01*
X7082758Y17063093D01*
X7076618Y17062534D01*
X7070704Y17060793D01*
X7070702Y17060793D01*
X7057421Y17056884D01*
X6888393Y17007136D01*
X6882928Y17004279D01*
X6719972Y16919088D01*
X6719968Y16919085D01*
X6714512Y16916233D01*
X6709712Y16912373D01*
X6709711Y16912373D01*
X6675326Y16884727D01*
X6561600Y16793289D01*
X6435480Y16642984D01*
X6432516Y16637592D01*
X6432513Y16637588D01*
X6353813Y16494433D01*
X6340956Y16471046D01*
X6281628Y16284022D01*
X6259757Y16089037D01*
X5728965Y16089037D01*
X5711194Y16270272D01*
X5709413Y16276171D01*
X5709412Y16276176D01*
X5656265Y16452207D01*
X5654484Y16458106D01*
X5562370Y16631347D01*
X5438361Y16783398D01*
X5287180Y16908465D01*
X5114585Y17001787D01*
X4991019Y17040037D01*
X4933039Y17057985D01*
X4933036Y17057986D01*
X4927152Y17059807D01*
X4921027Y17060451D01*
X4921026Y17060451D01*
X4738147Y17079673D01*
X4738146Y17079673D01*
X4732019Y17080317D01*
X4641983Y17072123D01*
X4542759Y17063093D01*
X4542758Y17063093D01*
X4536618Y17062534D01*
X4530704Y17060793D01*
X4530702Y17060793D01*
X4517421Y17056884D01*
X4348393Y17007136D01*
X4342928Y17004279D01*
X4179972Y16919088D01*
X4179968Y16919085D01*
X4174512Y16916233D01*
X4169712Y16912373D01*
X4169711Y16912373D01*
X4135326Y16884727D01*
X4021600Y16793289D01*
X3895480Y16642984D01*
X3892516Y16637592D01*
X3892513Y16637588D01*
X3813813Y16494433D01*
X3800956Y16471046D01*
X3741628Y16284022D01*
X3719757Y16089037D01*
X3188965Y16089037D01*
X3171194Y16270272D01*
X3169413Y16276171D01*
X3169412Y16276176D01*
X3116265Y16452207D01*
X3114484Y16458106D01*
X3022370Y16631347D01*
X2898361Y16783398D01*
X2747180Y16908465D01*
X2574585Y17001787D01*
X2451019Y17040037D01*
X2393039Y17057985D01*
X2393036Y17057986D01*
X2387152Y17059807D01*
X2381027Y17060451D01*
X2381026Y17060451D01*
X2198147Y17079673D01*
X2198146Y17079673D01*
X2192019Y17080317D01*
X2101983Y17072123D01*
X2002759Y17063093D01*
X2002758Y17063093D01*
X1996618Y17062534D01*
X1990704Y17060793D01*
X1990702Y17060793D01*
X1977421Y17056884D01*
X1808393Y17007136D01*
X1802928Y17004279D01*
X1639972Y16919088D01*
X1639968Y16919085D01*
X1634512Y16916233D01*
X1629712Y16912373D01*
X1629711Y16912373D01*
X1595326Y16884727D01*
X1481600Y16793289D01*
X1355480Y16642984D01*
X1352516Y16637592D01*
X1352513Y16637588D01*
X1273813Y16494433D01*
X1260956Y16471046D01*
X1201628Y16284022D01*
X1179757Y16089037D01*
X150500Y16089037D01*
X150500Y18763598D01*
X151516Y18771315D01*
X151516Y18783978D01*
X155809Y18800000D01*
X152170Y18813583D01*
X152308Y18816043D01*
X165195Y18930420D01*
X171474Y18957928D01*
X210132Y19068407D01*
X222369Y19093820D01*
X284651Y19192943D01*
X302241Y19214998D01*
X385002Y19297759D01*
X407057Y19315349D01*
X506180Y19377631D01*
X531593Y19389868D01*
X642072Y19428526D01*
X669580Y19434805D01*
X783957Y19447692D01*
X786417Y19447830D01*
X800000Y19444191D01*
X816022Y19448484D01*
X828685Y19448484D01*
X836402Y19449500D01*
X8485211Y19449500D01*
X8553332Y19429498D01*
G37*
%TD.AperFunction*%
%TD*%
M02*
