%TF.GenerationSoftware,KiCad,Pcbnew,6.0.7+dfsg-1~bpo11+1*%
%TF.CreationDate,2022-10-07T09:30:16+00:00*%
%TF.ProjectId,0101-INDICATORS,30313031-2d49-44e4-9449-4341544f5253,rev?*%
%TF.SameCoordinates,Original*%
%TF.FileFunction,Legend,Top*%
%TF.FilePolarity,Positive*%
%FSLAX46Y46*%
G04 Gerber Fmt 4.6, Leading zero omitted, Abs format (unit mm)*
G04 Created by KiCad (PCBNEW 6.0.7+dfsg-1~bpo11+1) date 2022-10-07 09:30:16*
%MOMM*%
%LPD*%
G01*
G04 APERTURE LIST*
%ADD10C,0.120000*%
%ADD11C,0.150000*%
G04 APERTURE END LIST*
D10*
X7490476Y15073810D02*
X7490476Y14716667D01*
X7466666Y14645239D01*
X7419047Y14597620D01*
X7347619Y14573810D01*
X7300000Y14573810D01*
X7966666Y14573810D02*
X7728571Y14573810D01*
X7728571Y15073810D01*
X8419047Y14621429D02*
X8395238Y14597620D01*
X8323809Y14573810D01*
X8276190Y14573810D01*
X8204761Y14597620D01*
X8157142Y14645239D01*
X8133333Y14692858D01*
X8109523Y14788096D01*
X8109523Y14859524D01*
X8133333Y14954762D01*
X8157142Y15002381D01*
X8204761Y15050000D01*
X8276190Y15073810D01*
X8323809Y15073810D01*
X8395238Y15050000D01*
X8419047Y15026191D01*
X8776190Y15073810D02*
X8776190Y14716667D01*
X8752380Y14645239D01*
X8704761Y14597620D01*
X8633333Y14573810D01*
X8585714Y14573810D01*
X9252380Y14573810D02*
X9014285Y14573810D01*
X9014285Y15073810D01*
X9704761Y14621429D02*
X9680952Y14597620D01*
X9609523Y14573810D01*
X9561904Y14573810D01*
X9490476Y14597620D01*
X9442857Y14645239D01*
X9419047Y14692858D01*
X9395238Y14788096D01*
X9395238Y14859524D01*
X9419047Y14954762D01*
X9442857Y15002381D01*
X9490476Y15050000D01*
X9561904Y15073810D01*
X9609523Y15073810D01*
X9680952Y15050000D01*
X9704761Y15026191D01*
X10061904Y15073810D02*
X10061904Y14716667D01*
X10038095Y14645239D01*
X9990476Y14597620D01*
X9919047Y14573810D01*
X9871428Y14573810D01*
X10538095Y14573810D02*
X10300000Y14573810D01*
X10300000Y15073810D01*
X10990476Y14621429D02*
X10966666Y14597620D01*
X10895238Y14573810D01*
X10847619Y14573810D01*
X10776190Y14597620D01*
X10728571Y14645239D01*
X10704761Y14692858D01*
X10680952Y14788096D01*
X10680952Y14859524D01*
X10704761Y14954762D01*
X10728571Y15002381D01*
X10776190Y15050000D01*
X10847619Y15073810D01*
X10895238Y15073810D01*
X10966666Y15050000D01*
X10990476Y15026191D01*
X11347619Y15073810D02*
X11347619Y14716667D01*
X11323809Y14645239D01*
X11276190Y14597620D01*
X11204761Y14573810D01*
X11157142Y14573810D01*
X11823809Y14573810D02*
X11585714Y14573810D01*
X11585714Y15073810D01*
X12276190Y14621429D02*
X12252380Y14597620D01*
X12180952Y14573810D01*
X12133333Y14573810D01*
X12061904Y14597620D01*
X12014285Y14645239D01*
X11990476Y14692858D01*
X11966666Y14788096D01*
X11966666Y14859524D01*
X11990476Y14954762D01*
X12014285Y15002381D01*
X12061904Y15050000D01*
X12133333Y15073810D01*
X12180952Y15073810D01*
X12252380Y15050000D01*
X12276190Y15026191D01*
D11*
X1135595Y2347620D02*
X1135595Y3347620D01*
X1611785Y2347620D02*
X1611785Y3347620D01*
X2183214Y2347620D01*
X2183214Y3347620D01*
X2659404Y2347620D02*
X2659404Y3347620D01*
X2897500Y3347620D01*
X3040357Y3300000D01*
X3135595Y3204762D01*
X3183214Y3109524D01*
X3230833Y2919048D01*
X3230833Y2776191D01*
X3183214Y2585715D01*
X3135595Y2490477D01*
X3040357Y2395239D01*
X2897500Y2347620D01*
X2659404Y2347620D01*
X3659404Y2347620D02*
X3659404Y3347620D01*
X4707023Y2442858D02*
X4659404Y2395239D01*
X4516547Y2347620D01*
X4421309Y2347620D01*
X4278452Y2395239D01*
X4183214Y2490477D01*
X4135595Y2585715D01*
X4087976Y2776191D01*
X4087976Y2919048D01*
X4135595Y3109524D01*
X4183214Y3204762D01*
X4278452Y3300000D01*
X4421309Y3347620D01*
X4516547Y3347620D01*
X4659404Y3300000D01*
X4707023Y3252381D01*
X5087976Y2633334D02*
X5564166Y2633334D01*
X4992738Y2347620D02*
X5326071Y3347620D01*
X5659404Y2347620D01*
X5849880Y3347620D02*
X6421309Y3347620D01*
X6135595Y2347620D02*
X6135595Y3347620D01*
X6945119Y3347620D02*
X7135595Y3347620D01*
X7230833Y3300000D01*
X7326071Y3204762D01*
X7373690Y3014286D01*
X7373690Y2680953D01*
X7326071Y2490477D01*
X7230833Y2395239D01*
X7135595Y2347620D01*
X6945119Y2347620D01*
X6849880Y2395239D01*
X6754642Y2490477D01*
X6707023Y2680953D01*
X6707023Y3014286D01*
X6754642Y3204762D01*
X6849880Y3300000D01*
X6945119Y3347620D01*
X8373690Y2347620D02*
X8040357Y2823810D01*
X7802261Y2347620D02*
X7802261Y3347620D01*
X8183214Y3347620D01*
X8278452Y3300000D01*
X8326071Y3252381D01*
X8373690Y3157143D01*
X8373690Y3014286D01*
X8326071Y2919048D01*
X8278452Y2871429D01*
X8183214Y2823810D01*
X7802261Y2823810D01*
X8754642Y2395239D02*
X8897500Y2347620D01*
X9135595Y2347620D01*
X9230833Y2395239D01*
X9278452Y2442858D01*
X9326071Y2538096D01*
X9326071Y2633334D01*
X9278452Y2728572D01*
X9230833Y2776191D01*
X9135595Y2823810D01*
X8945119Y2871429D01*
X8849880Y2919048D01*
X8802261Y2966667D01*
X8754642Y3061905D01*
X8754642Y3157143D01*
X8802261Y3252381D01*
X8849880Y3300000D01*
X8945119Y3347620D01*
X9183214Y3347620D01*
X9326071Y3300000D01*
%TO.C,kibuzzard-633FDF9B*%
G36*
X15041687Y10572259D02*
G01*
X15078358Y10556702D01*
X15106139Y10529476D01*
X15117252Y10489471D01*
X15103361Y10441132D01*
X15066134Y10410573D01*
X15013350Y10395015D01*
X14951676Y10390570D01*
X14930562Y10391126D01*
X14910559Y10392793D01*
X14898336Y10429464D01*
X14893891Y10472803D01*
X14900975Y10521975D01*
X14922228Y10553924D01*
X15002793Y10577260D01*
X15041687Y10572259D01*
G37*
G36*
X14880000Y7057442D02*
G01*
X14386049Y7386742D01*
X14386049Y8061390D01*
X14532734Y8061390D01*
X15220598Y8061390D01*
X15220598Y8493666D01*
X15107251Y8493666D01*
X15107251Y8199185D01*
X14532734Y8199185D01*
X14532734Y8061390D01*
X14386049Y8061390D01*
X14386049Y8608125D01*
X14532734Y8608125D01*
X15220598Y8608125D01*
X15220598Y9049291D01*
X15107251Y9049291D01*
X15107251Y8744809D01*
X14913893Y8744809D01*
X14913893Y8988173D01*
X14800546Y8988173D01*
X14800546Y8744809D01*
X14646082Y8744809D01*
X14646082Y9024844D01*
X14532734Y9024844D01*
X14532734Y8608125D01*
X14386049Y8608125D01*
X14386049Y9318214D01*
X14524956Y9318214D01*
X14528289Y9241538D01*
X14541624Y9153749D01*
X15212819Y9153749D01*
X15225599Y9228758D01*
X15229488Y9300434D01*
X15224626Y9367525D01*
X15210041Y9428783D01*
X15184899Y9483095D01*
X15148367Y9529351D01*
X15099889Y9566995D01*
X15038909Y9595471D01*
X14964594Y9613390D01*
X14876111Y9619363D01*
X14789572Y9613945D01*
X14716646Y9597693D01*
X14656361Y9571718D01*
X14607744Y9537130D01*
X14570656Y9493930D01*
X14544958Y9442118D01*
X14529956Y9383083D01*
X14524956Y9318214D01*
X14386049Y9318214D01*
X14386049Y10670605D01*
X14528289Y10670605D01*
X14534957Y10581427D01*
X14554959Y10500584D01*
X14588019Y10429464D01*
X14633858Y10369456D01*
X14692199Y10321256D01*
X14762763Y10285557D01*
X14845273Y10263471D01*
X14939452Y10256109D01*
X15031994Y10262838D01*
X15106633Y10283026D01*
X15163369Y10316672D01*
X15203189Y10363159D01*
X15227080Y10421870D01*
X15235044Y10492805D01*
X15229627Y10545589D01*
X15213375Y10590595D01*
X15157257Y10658381D01*
X15081692Y10697831D01*
X15000571Y10710610D01*
X14916116Y10698942D01*
X14846107Y10660604D01*
X14798323Y10592262D01*
X14784988Y10546006D01*
X14780543Y10490583D01*
X14785544Y10455023D01*
X14799434Y10413906D01*
X14727203Y10452244D01*
X14679975Y10513919D01*
X14653861Y10591706D01*
X14644971Y10678384D01*
X14528289Y10670605D01*
X14386049Y10670605D01*
X14386049Y11385258D01*
X14880000Y11714558D01*
X15373951Y11385258D01*
X15373951Y7386742D01*
X14880000Y7057442D01*
G37*
G36*
X14925145Y9478373D02*
G01*
X14970011Y9472122D01*
X15043909Y9444341D01*
X15092804Y9393223D01*
X15110584Y9314880D01*
X15110584Y9302656D01*
X15109473Y9290433D01*
X14647193Y9290433D01*
X14644415Y9310435D01*
X14643859Y9330438D01*
X14663306Y9404891D01*
X14714979Y9450453D01*
X14789433Y9473789D01*
X14876111Y9480456D01*
X14925145Y9478373D01*
G37*
D10*
%TO.C,R3*%
X8150000Y5551359D02*
X8150000Y5858641D01*
X8910000Y5551359D02*
X8910000Y5858641D01*
%TO.C,kibuzzard-633FDFAC*%
G36*
X4771812Y9474483D02*
G01*
X4816679Y9468233D01*
X4890577Y9440451D01*
X4939472Y9389334D01*
X4957252Y9310991D01*
X4957252Y9298767D01*
X4956141Y9286543D01*
X4493861Y9286543D01*
X4491082Y9306546D01*
X4490527Y9326548D01*
X4509974Y9401002D01*
X4561647Y9446563D01*
X4636101Y9469899D01*
X4722778Y9476567D01*
X4771812Y9474483D01*
G37*
G36*
X4720000Y7056701D02*
G01*
X4224938Y7386742D01*
X4224938Y8057501D01*
X4379402Y8057501D01*
X5067266Y8057501D01*
X5067266Y8489777D01*
X4953918Y8489777D01*
X4953918Y8195296D01*
X4379402Y8195296D01*
X4379402Y8057501D01*
X4224938Y8057501D01*
X4224938Y8604236D01*
X4379402Y8604236D01*
X5067266Y8604236D01*
X5067266Y9045402D01*
X4953918Y9045402D01*
X4953918Y8740919D01*
X4760561Y8740919D01*
X4760561Y8984283D01*
X4647213Y8984283D01*
X4647213Y8740919D01*
X4492749Y8740919D01*
X4492749Y9020954D01*
X4379402Y9020954D01*
X4379402Y8604236D01*
X4224938Y8604236D01*
X4224938Y9314324D01*
X4371623Y9314324D01*
X4374957Y9237648D01*
X4388292Y9149859D01*
X5059487Y9149859D01*
X5072266Y9224869D01*
X5076156Y9296544D01*
X5071294Y9363636D01*
X5056709Y9424894D01*
X5031567Y9479206D01*
X4995034Y9525462D01*
X4946556Y9563105D01*
X4885576Y9591581D01*
X4811261Y9609500D01*
X4722778Y9615473D01*
X4636240Y9610056D01*
X4563314Y9593804D01*
X4503028Y9567828D01*
X4454411Y9533241D01*
X4417323Y9490041D01*
X4391626Y9438229D01*
X4376624Y9379194D01*
X4371623Y9314324D01*
X4224938Y9314324D01*
X4224938Y10467802D01*
X4363844Y10467802D01*
X4369401Y10409878D01*
X4386069Y10351676D01*
X4414406Y10296808D01*
X4454967Y10248886D01*
X4550534Y10316672D01*
X4498306Y10386681D01*
X4482748Y10454467D01*
X4505529Y10518919D01*
X4570537Y10544478D01*
X4629433Y10523920D01*
X4689441Y10471691D01*
X4721250Y10438909D01*
X4754449Y10403905D01*
X4789731Y10368901D01*
X4827791Y10336119D01*
X4869046Y10307226D01*
X4913913Y10283890D01*
X4962808Y10268471D01*
X5016148Y10263332D01*
X5039484Y10262776D01*
X5067266Y10265554D01*
X5067266Y10714499D01*
X4953918Y10714499D01*
X4953918Y10418907D01*
X4917247Y10430575D01*
X4877798Y10458912D01*
X4840015Y10494472D01*
X4808344Y10527809D01*
X4752782Y10584483D01*
X4692774Y10634489D01*
X4628877Y10670049D01*
X4560536Y10683384D01*
X4474414Y10665604D01*
X4412739Y10617821D01*
X4376068Y10548923D01*
X4363844Y10467802D01*
X4224938Y10467802D01*
X4224938Y11385258D01*
X4720000Y11715299D01*
X5215062Y11385258D01*
X5215062Y7386742D01*
X4720000Y7056701D01*
G37*
%TO.C,R6*%
X16530000Y5551359D02*
X16530000Y5858641D01*
X15770000Y5551359D02*
X15770000Y5858641D01*
%TO.C,R4*%
X11450000Y5551359D02*
X11450000Y5858641D01*
X10690000Y5551359D02*
X10690000Y5858641D01*
%TO.C,kibuzzard-633FE26A*%
G36*
X17915443Y9269309D02*
G01*
X17908274Y9220982D01*
X17896403Y9173590D01*
X17879944Y9127590D01*
X17859056Y9083425D01*
X17833939Y9041520D01*
X17804836Y9002279D01*
X17772026Y8966079D01*
X17735826Y8933270D01*
X17696585Y8904167D01*
X17654680Y8879050D01*
X17610515Y8858161D01*
X17564515Y8841702D01*
X17517124Y8829831D01*
X17468797Y8822663D01*
X17420000Y8820266D01*
X17371203Y8822663D01*
X17322876Y8829831D01*
X17275485Y8841702D01*
X17229485Y8858161D01*
X17185320Y8879050D01*
X17143415Y8904167D01*
X17104174Y8933270D01*
X17067974Y8966079D01*
X17035164Y9002279D01*
X17006061Y9041520D01*
X16980944Y9083425D01*
X16960056Y9127590D01*
X16943597Y9173590D01*
X16931726Y9220982D01*
X16924557Y9269309D01*
X16922160Y9318106D01*
X16922160Y9521557D01*
X17061066Y9521557D01*
X17066206Y9462522D01*
X17081624Y9409876D01*
X17122185Y9330422D01*
X17222198Y9379317D01*
X17190527Y9445436D01*
X17177748Y9522668D01*
X17199417Y9585454D01*
X17258869Y9608234D01*
X17301096Y9597678D01*
X17327766Y9570452D01*
X17342213Y9532669D01*
X17346658Y9490442D01*
X17346658Y9439324D01*
X17460005Y9439324D01*
X17460005Y9481552D01*
X17465422Y9542393D01*
X17481674Y9591566D01*
X17511539Y9624070D01*
X17557795Y9634904D01*
X17632249Y9606568D01*
X17654752Y9567813D01*
X17662253Y9508222D01*
X17659197Y9455576D01*
X17650029Y9410988D01*
X17626693Y9344868D01*
X17741151Y9318198D01*
X17753375Y9352647D01*
X17765599Y9400986D01*
X17775044Y9455438D01*
X17778934Y9509333D01*
X17774905Y9573508D01*
X17762821Y9628237D01*
X17743374Y9673798D01*
X17717259Y9710469D01*
X17647806Y9758253D01*
X17560018Y9773811D01*
X17504177Y9766449D01*
X17456671Y9744363D01*
X17418611Y9708941D01*
X17391108Y9661574D01*
X17333323Y9723804D01*
X17254424Y9747141D01*
X17177748Y9733806D01*
X17116073Y9692689D01*
X17075512Y9622125D01*
X17064678Y9575591D01*
X17061066Y9521557D01*
X16922160Y9521557D01*
X16922160Y10107186D01*
X17578909Y10107186D01*
X17585576Y10069403D01*
X17604468Y10037733D01*
X17635027Y10015508D01*
X17676699Y10007173D01*
X17719482Y10015508D01*
X17750597Y10037733D01*
X17770044Y10069403D01*
X17776711Y10107186D01*
X17751153Y10176083D01*
X17676699Y10206087D01*
X17604468Y10176083D01*
X17578909Y10107186D01*
X16922160Y10107186D01*
X16922160Y10632807D01*
X17061066Y10632807D01*
X17066206Y10573772D01*
X17081624Y10521126D01*
X17122185Y10441672D01*
X17222198Y10490567D01*
X17190527Y10556686D01*
X17177748Y10633918D01*
X17199417Y10696704D01*
X17258869Y10719484D01*
X17301096Y10708928D01*
X17327766Y10681702D01*
X17342213Y10643919D01*
X17346658Y10601692D01*
X17346658Y10550574D01*
X17460005Y10550574D01*
X17460005Y10592802D01*
X17465422Y10653643D01*
X17481674Y10702816D01*
X17511539Y10735320D01*
X17557795Y10746154D01*
X17632249Y10717818D01*
X17654752Y10679063D01*
X17662253Y10619472D01*
X17659197Y10566826D01*
X17650029Y10522238D01*
X17626693Y10456118D01*
X17741151Y10429448D01*
X17753375Y10463897D01*
X17765599Y10512236D01*
X17775044Y10566688D01*
X17778934Y10620583D01*
X17774905Y10684758D01*
X17762821Y10739487D01*
X17743374Y10785048D01*
X17717259Y10821719D01*
X17647806Y10869503D01*
X17560018Y10885061D01*
X17504177Y10877699D01*
X17456671Y10855613D01*
X17418611Y10820191D01*
X17391108Y10772824D01*
X17333323Y10835054D01*
X17254424Y10858391D01*
X17177748Y10845056D01*
X17116073Y10803939D01*
X17075512Y10733375D01*
X17064678Y10686841D01*
X17061066Y10632807D01*
X16922160Y10632807D01*
X16922160Y10953958D01*
X17076624Y10953958D01*
X17138854Y10966738D01*
X17216641Y10985073D01*
X17274858Y10999766D01*
X17335422Y11015694D01*
X17398331Y11032857D01*
X17462474Y11051007D01*
X17526742Y11069899D01*
X17591133Y11089531D01*
X17682811Y11118701D01*
X17764488Y11146204D01*
X17764488Y11287333D01*
X17705283Y11308570D01*
X17644719Y11329314D01*
X17582798Y11349563D01*
X17520568Y11369010D01*
X17459079Y11387346D01*
X17398331Y11404570D01*
X17309847Y11428184D01*
X17225531Y11449020D01*
X17147188Y11466939D01*
X17076624Y11481802D01*
X17076624Y11338451D01*
X17134409Y11328449D01*
X17201084Y11316226D01*
X17273176Y11302335D01*
X17347213Y11287333D01*
X17421667Y11271220D01*
X17495009Y11253996D01*
X17563768Y11236216D01*
X17624470Y11218436D01*
X17562935Y11200517D01*
X17493898Y11182320D01*
X17420556Y11164540D01*
X17346102Y11147871D01*
X17272204Y11132453D01*
X17200528Y11118423D01*
X17134270Y11106755D01*
X17076624Y11098421D01*
X17076624Y10953958D01*
X16922160Y10953958D01*
X16922160Y11481894D01*
X16924557Y11530691D01*
X16931726Y11579018D01*
X16943597Y11626410D01*
X16960056Y11672410D01*
X16980944Y11716575D01*
X17006061Y11758480D01*
X17035164Y11797721D01*
X17067974Y11833921D01*
X17104174Y11866730D01*
X17143415Y11895833D01*
X17185320Y11920950D01*
X17229485Y11941839D01*
X17275485Y11958298D01*
X17322876Y11970169D01*
X17371203Y11977337D01*
X17420000Y11979734D01*
X17468797Y11977337D01*
X17517124Y11970169D01*
X17564515Y11958298D01*
X17610515Y11941839D01*
X17654680Y11920950D01*
X17696585Y11895833D01*
X17735826Y11866730D01*
X17772026Y11833921D01*
X17804836Y11797721D01*
X17833939Y11758480D01*
X17859056Y11716575D01*
X17879944Y11672410D01*
X17896403Y11626410D01*
X17908274Y11579018D01*
X17915443Y11530691D01*
X17917840Y11481894D01*
X17917840Y9318106D01*
X17915443Y9269309D01*
G37*
%TO.C,kibuzzard-633FDF52*%
G36*
X2180000Y7059294D02*
G01*
X1688827Y7386742D01*
X1688827Y8059168D01*
X1835512Y8059168D01*
X2523376Y8059168D01*
X2523376Y8491444D01*
X2410029Y8491444D01*
X2410029Y8196963D01*
X1835512Y8196963D01*
X1835512Y8059168D01*
X1688827Y8059168D01*
X1688827Y8605903D01*
X1835512Y8605903D01*
X2523376Y8605903D01*
X2523376Y9047069D01*
X2410029Y9047069D01*
X2410029Y8742586D01*
X2216671Y8742586D01*
X2216671Y8985950D01*
X2103324Y8985950D01*
X2103324Y8742586D01*
X1948860Y8742586D01*
X1948860Y9022621D01*
X1835512Y9022621D01*
X1835512Y8605903D01*
X1688827Y8605903D01*
X1688827Y9315991D01*
X1827734Y9315991D01*
X1831067Y9239315D01*
X1844402Y9151526D01*
X2515598Y9151526D01*
X2528377Y9226536D01*
X2532266Y9298211D01*
X2527405Y9365303D01*
X2512819Y9426561D01*
X2487677Y9480873D01*
X2451145Y9527129D01*
X2402667Y9564772D01*
X2341687Y9593248D01*
X2267372Y9611167D01*
X2178889Y9617140D01*
X2092350Y9611723D01*
X2019424Y9595471D01*
X1959139Y9569495D01*
X1910522Y9534908D01*
X1873434Y9491708D01*
X1847736Y9439896D01*
X1832734Y9380860D01*
X1827734Y9315991D01*
X1688827Y9315991D01*
X1688827Y10482804D01*
X1835512Y10482804D01*
X1878851Y10435020D01*
X1918856Y10376124D01*
X1953305Y10313894D01*
X1978864Y10256109D01*
X2092211Y10300559D01*
X2064986Y10368345D01*
X2025536Y10439465D01*
X2410029Y10439465D01*
X2410029Y10295003D01*
X2523376Y10295003D01*
X2523376Y10712833D01*
X2410029Y10712833D01*
X2410029Y10576149D01*
X1835512Y10576149D01*
X1835512Y10482804D01*
X1688827Y10482804D01*
X1688827Y11385258D01*
X2180000Y11712706D01*
X2671173Y11385258D01*
X2671173Y7386742D01*
X2180000Y7059294D01*
G37*
G36*
X2227923Y9476150D02*
G01*
X2272789Y9469899D01*
X2346688Y9442118D01*
X2395582Y9391001D01*
X2413362Y9312658D01*
X2413362Y9300434D01*
X2412251Y9288210D01*
X1949971Y9288210D01*
X1947193Y9308213D01*
X1946638Y9328215D01*
X1966084Y9402669D01*
X2017758Y9448230D01*
X2092211Y9471566D01*
X2178889Y9478234D01*
X2227923Y9476150D01*
G37*
%TO.C,D5*%
X13075000Y6680000D02*
X11605000Y6680000D01*
X11605000Y6680000D02*
X11605000Y4395000D01*
X13075000Y4395000D02*
X13075000Y6680000D01*
%TO.C,kibuzzard-633FE25F*%
G36*
X17920443Y18108302D02*
G01*
X17913274Y18059976D01*
X17901403Y18012584D01*
X17884944Y17966584D01*
X17864056Y17922419D01*
X17838939Y17880514D01*
X17809836Y17841273D01*
X17777026Y17805073D01*
X17740826Y17772264D01*
X17701585Y17743160D01*
X17659680Y17718044D01*
X17615515Y17697155D01*
X17569515Y17680696D01*
X17522124Y17668825D01*
X17473797Y17661657D01*
X17425000Y17659259D01*
X17376203Y17661657D01*
X17327876Y17668825D01*
X17280485Y17680696D01*
X17234485Y17697155D01*
X17190320Y17718044D01*
X17148415Y17743160D01*
X17109174Y17772264D01*
X17072974Y17805073D01*
X17040164Y17841273D01*
X17011061Y17880514D01*
X16985944Y17922419D01*
X16965056Y17966584D01*
X16948597Y18012584D01*
X16936726Y18059976D01*
X16929557Y18108302D01*
X16927160Y18157099D01*
X16927160Y18455007D01*
X17066066Y18455007D01*
X17071761Y18394722D01*
X17088847Y18338326D01*
X17117323Y18287486D01*
X17157189Y18243869D01*
X17208167Y18208032D01*
X17269981Y18180528D01*
X17342351Y18163026D01*
X17425000Y18157192D01*
X17508483Y18162193D01*
X17581131Y18177194D01*
X17642805Y18201364D01*
X17693367Y18233868D01*
X17732816Y18274290D01*
X17761153Y18322213D01*
X17778239Y18377080D01*
X17783934Y18438338D01*
X17781156Y18506263D01*
X17772821Y18563354D01*
X17752819Y18639474D01*
X17409443Y18639474D01*
X17409443Y18502791D01*
X17660585Y18502791D01*
X17663919Y18476121D01*
X17665030Y18449451D01*
X17650445Y18383053D01*
X17606689Y18334992D01*
X17560573Y18313384D01*
X17500009Y18300420D01*
X17425000Y18296098D01*
X17374021Y18298460D01*
X17327766Y18305544D01*
X17252201Y18336659D01*
X17202750Y18391666D01*
X17184970Y18473898D01*
X17197194Y18547241D01*
X17224975Y18607248D01*
X17116073Y18642808D01*
X17102738Y18620028D01*
X17086069Y18581689D01*
X17072178Y18526683D01*
X17066066Y18455007D01*
X16927160Y18455007D01*
X16927160Y18642901D01*
X16929557Y18691698D01*
X16936726Y18740024D01*
X16948597Y18787416D01*
X16965056Y18833416D01*
X16985944Y18877581D01*
X17011061Y18919486D01*
X17040164Y18958727D01*
X17072974Y18994927D01*
X17109174Y19027736D01*
X17148415Y19056840D01*
X17190320Y19081956D01*
X17234485Y19102845D01*
X17280485Y19119304D01*
X17327876Y19131175D01*
X17376203Y19138343D01*
X17425000Y19140741D01*
X17473797Y19138343D01*
X17522124Y19131175D01*
X17569515Y19119304D01*
X17615515Y19102845D01*
X17659680Y19081956D01*
X17701585Y19056840D01*
X17740826Y19027736D01*
X17777026Y18994927D01*
X17809836Y18958727D01*
X17838939Y18919486D01*
X17864056Y18877581D01*
X17884944Y18833416D01*
X17901403Y18787416D01*
X17913274Y18740024D01*
X17920443Y18691698D01*
X17922840Y18642901D01*
X17922840Y18157099D01*
X17920443Y18108302D01*
G37*
%TO.C,kibuzzard-633FDFA3*%
G36*
X9847923Y9467260D02*
G01*
X9892789Y9461009D01*
X9966688Y9433228D01*
X10015582Y9382111D01*
X10033362Y9303768D01*
X10033362Y9291544D01*
X10032251Y9279320D01*
X9569971Y9279320D01*
X9567193Y9299323D01*
X9566638Y9319325D01*
X9586084Y9393779D01*
X9637758Y9439340D01*
X9712211Y9462676D01*
X9798889Y9469344D01*
X9847923Y9467260D01*
G37*
G36*
X9800000Y7059294D02*
G01*
X9308827Y7386742D01*
X9308827Y8050277D01*
X9455512Y8050277D01*
X10143376Y8050277D01*
X10143376Y8482554D01*
X10030029Y8482554D01*
X10030029Y8188072D01*
X9455512Y8188072D01*
X9455512Y8050277D01*
X9308827Y8050277D01*
X9308827Y8597012D01*
X9455512Y8597012D01*
X10143376Y8597012D01*
X10143376Y9038179D01*
X10030029Y9038179D01*
X10030029Y8733696D01*
X9836671Y8733696D01*
X9836671Y8977060D01*
X9723324Y8977060D01*
X9723324Y8733696D01*
X9568860Y8733696D01*
X9568860Y9013731D01*
X9455512Y9013731D01*
X9455512Y8597012D01*
X9308827Y8597012D01*
X9308827Y9307101D01*
X9447734Y9307101D01*
X9451067Y9230425D01*
X9464402Y9142636D01*
X10135598Y9142636D01*
X10148377Y9217646D01*
X10152266Y9289321D01*
X10147405Y9356413D01*
X10132819Y9417671D01*
X10107677Y9471983D01*
X10071145Y9518239D01*
X10022667Y9555882D01*
X9961687Y9584358D01*
X9887372Y9602277D01*
X9798889Y9608250D01*
X9712350Y9602833D01*
X9639424Y9586581D01*
X9579139Y9560605D01*
X9530522Y9526018D01*
X9493434Y9482818D01*
X9467736Y9431006D01*
X9452734Y9371970D01*
X9447734Y9307101D01*
X9308827Y9307101D01*
X9308827Y10525031D01*
X9455512Y10525031D01*
X9502880Y10480581D01*
X9556081Y10436131D01*
X9612615Y10392793D01*
X9669984Y10351676D01*
X9727074Y10313338D01*
X9782776Y10278334D01*
X9834865Y10248052D01*
X9881121Y10223883D01*
X9981134Y10223883D01*
X9981134Y10510585D01*
X10143376Y10510585D01*
X10143376Y10647269D01*
X9981134Y10647269D01*
X9981134Y10721723D01*
X9868897Y10721723D01*
X9868897Y10647269D01*
X9455512Y10647269D01*
X9455512Y10525031D01*
X9308827Y10525031D01*
X9308827Y11385258D01*
X9800000Y11712706D01*
X10291173Y11385258D01*
X10291173Y7386742D01*
X9800000Y7059294D01*
G37*
G36*
X9868897Y10355010D02*
G01*
X9805556Y10388348D01*
X9741659Y10427797D01*
X9681096Y10469469D01*
X9626645Y10510585D01*
X9868897Y10510585D01*
X9868897Y10355010D01*
G37*
%TO.C,D3*%
X7995000Y6680000D02*
X6525000Y6680000D01*
X6525000Y6680000D02*
X6525000Y4395000D01*
X7995000Y4395000D02*
X7995000Y6680000D01*
%TO.C,R2*%
X5610000Y5551359D02*
X5610000Y5858641D01*
X6370000Y5551359D02*
X6370000Y5858641D01*
%TO.C,R5*%
X13230000Y5551359D02*
X13230000Y5858641D01*
X13990000Y5551359D02*
X13990000Y5858641D01*
%TO.C,R1*%
X3070000Y5551359D02*
X3070000Y5858641D01*
X3830000Y5551359D02*
X3830000Y5858641D01*
%TO.C,kibuzzard-633FDFA7*%
G36*
X7260000Y7054849D02*
G01*
X6762160Y7386742D01*
X6762160Y8063613D01*
X6916624Y8063613D01*
X7604487Y8063613D01*
X7604487Y8495889D01*
X7491140Y8495889D01*
X7491140Y8201408D01*
X6916624Y8201408D01*
X6916624Y8063613D01*
X6762160Y8063613D01*
X6762160Y8610348D01*
X6916624Y8610348D01*
X7604487Y8610348D01*
X7604487Y9051514D01*
X7491140Y9051514D01*
X7491140Y8747031D01*
X7297782Y8747031D01*
X7297782Y8990395D01*
X7184435Y8990395D01*
X7184435Y8747031D01*
X7029971Y8747031D01*
X7029971Y9027066D01*
X6916624Y9027066D01*
X6916624Y8610348D01*
X6762160Y8610348D01*
X6762160Y9320436D01*
X6908845Y9320436D01*
X6912179Y9243760D01*
X6925514Y9155971D01*
X7596709Y9155971D01*
X7609488Y9230981D01*
X7613377Y9302656D01*
X7608516Y9369748D01*
X7593931Y9431006D01*
X7568789Y9485318D01*
X7532256Y9531574D01*
X7483778Y9569217D01*
X7422798Y9597693D01*
X7348483Y9615612D01*
X7260000Y9621585D01*
X7173461Y9616168D01*
X7100536Y9599916D01*
X7040250Y9573940D01*
X6991633Y9539353D01*
X6954545Y9496153D01*
X6928847Y9444341D01*
X6913846Y9385305D01*
X6908845Y9320436D01*
X6762160Y9320436D01*
X6762160Y10456134D01*
X6901066Y10456134D01*
X6906206Y10397099D01*
X6921624Y10344453D01*
X6962185Y10264999D01*
X7062197Y10313894D01*
X7030527Y10380013D01*
X7017747Y10457245D01*
X7039417Y10520031D01*
X7098869Y10542811D01*
X7141096Y10532254D01*
X7167766Y10505029D01*
X7182212Y10467246D01*
X7186657Y10425019D01*
X7186657Y10373901D01*
X7300005Y10373901D01*
X7300005Y10416129D01*
X7305422Y10476970D01*
X7321674Y10526143D01*
X7351539Y10558647D01*
X7397795Y10569481D01*
X7472249Y10541144D01*
X7494752Y10502390D01*
X7502252Y10442799D01*
X7499197Y10390153D01*
X7490029Y10345564D01*
X7466692Y10279445D01*
X7581151Y10252775D01*
X7593375Y10287224D01*
X7605599Y10335563D01*
X7615044Y10390014D01*
X7618934Y10443910D01*
X7614905Y10508085D01*
X7602821Y10562814D01*
X7583374Y10608375D01*
X7557259Y10645046D01*
X7487806Y10692830D01*
X7400017Y10708388D01*
X7344177Y10701025D01*
X7296671Y10678939D01*
X7258611Y10643518D01*
X7231107Y10596151D01*
X7173322Y10658381D01*
X7094424Y10681718D01*
X7017747Y10668383D01*
X6956073Y10627266D01*
X6915512Y10556702D01*
X6904678Y10510168D01*
X6901066Y10456134D01*
X6762160Y10456134D01*
X6762160Y11385258D01*
X7260000Y11717151D01*
X7757840Y11385258D01*
X7757840Y7386742D01*
X7260000Y7054849D01*
G37*
G36*
X7309034Y9480595D02*
G01*
X7353901Y9474344D01*
X7427799Y9446563D01*
X7476694Y9395446D01*
X7494474Y9317103D01*
X7494474Y9304879D01*
X7493362Y9292655D01*
X7031082Y9292655D01*
X7028304Y9312658D01*
X7027749Y9332660D01*
X7047196Y9407114D01*
X7098869Y9452675D01*
X7173322Y9476011D01*
X7260000Y9482679D01*
X7309034Y9480595D01*
G37*
%TO.C,D6*%
X15615000Y6680000D02*
X14145000Y6680000D01*
X14145000Y6680000D02*
X14145000Y4395000D01*
X15615000Y4395000D02*
X15615000Y6680000D01*
%TO.C,D2*%
X5455000Y6680000D02*
X3985000Y6680000D01*
X3985000Y6680000D02*
X3985000Y4395000D01*
X5455000Y4395000D02*
X5455000Y6680000D01*
%TO.C,kibuzzard-633FDF9F*%
G36*
X12340000Y7057442D02*
G01*
X11846049Y7386742D01*
X11846049Y8065835D01*
X11992734Y8065835D01*
X12680598Y8065835D01*
X12680598Y8498111D01*
X12567251Y8498111D01*
X12567251Y8203630D01*
X11992734Y8203630D01*
X11992734Y8065835D01*
X11846049Y8065835D01*
X11846049Y8612570D01*
X11992734Y8612570D01*
X12680598Y8612570D01*
X12680598Y9053736D01*
X12567251Y9053736D01*
X12567251Y8749254D01*
X12373893Y8749254D01*
X12373893Y8992618D01*
X12260546Y8992618D01*
X12260546Y8749254D01*
X12106082Y8749254D01*
X12106082Y9029289D01*
X11992734Y9029289D01*
X11992734Y8612570D01*
X11846049Y8612570D01*
X11846049Y9322659D01*
X11984956Y9322659D01*
X11988289Y9245983D01*
X12001624Y9158194D01*
X12672819Y9158194D01*
X12685599Y9233203D01*
X12689488Y9304879D01*
X12684626Y9371970D01*
X12670041Y9433228D01*
X12644899Y9487540D01*
X12608367Y9533796D01*
X12559889Y9571440D01*
X12498909Y9599916D01*
X12424594Y9617835D01*
X12336111Y9623808D01*
X12249572Y9618390D01*
X12176646Y9602138D01*
X12116361Y9576163D01*
X12067744Y9541575D01*
X12030656Y9498375D01*
X12004958Y9446563D01*
X11989956Y9387528D01*
X11984956Y9322659D01*
X11846049Y9322659D01*
X11846049Y10329451D01*
X11992734Y10329451D01*
X12077606Y10325284D01*
X12165534Y10319450D01*
X12255962Y10311671D01*
X12348334Y10301670D01*
X12350696Y10378068D01*
X12357780Y10438354D01*
X12384450Y10518919D01*
X12425566Y10556702D01*
X12478351Y10566148D01*
X12515022Y10560591D01*
X12546693Y10540033D01*
X12569473Y10498917D01*
X12578363Y10432798D01*
X12575863Y10380847D01*
X12568362Y10338341D01*
X12546137Y10276111D01*
X12659484Y10248330D01*
X12671708Y10280001D01*
X12683376Y10326118D01*
X12691711Y10379458D01*
X12695044Y10433909D01*
X12690877Y10497528D01*
X12678376Y10552813D01*
X12658373Y10599763D01*
X12631703Y10638379D01*
X12561139Y10689496D01*
X12472794Y10706165D01*
X12408342Y10698633D01*
X12354261Y10676038D01*
X12310552Y10638379D01*
X12277461Y10585409D01*
X12255236Y10516882D01*
X12243877Y10432798D01*
X12180536Y10438354D01*
X12106082Y10443910D01*
X12106082Y10680606D01*
X11992734Y10680606D01*
X11992734Y10329451D01*
X11846049Y10329451D01*
X11846049Y11385258D01*
X12340000Y11714558D01*
X12833951Y11385258D01*
X12833951Y7386742D01*
X12340000Y7057442D01*
G37*
G36*
X12385145Y9482818D02*
G01*
X12430011Y9476567D01*
X12503909Y9448786D01*
X12552804Y9397668D01*
X12570584Y9319325D01*
X12570584Y9307101D01*
X12569473Y9294878D01*
X12107193Y9294878D01*
X12104415Y9314880D01*
X12103859Y9334883D01*
X12123306Y9409336D01*
X12174979Y9454898D01*
X12249433Y9478234D01*
X12336111Y9484901D01*
X12385145Y9482818D01*
G37*
%TO.C,J1*%
X16155000Y14805000D02*
X18755000Y14805000D01*
X18755000Y12205000D02*
X855000Y12205000D01*
X18755000Y14805000D02*
X18755000Y12205000D01*
X16155000Y17405000D02*
X16155000Y14805000D01*
X18755000Y17405000D02*
X18755000Y16075000D01*
X16155000Y17405000D02*
X855000Y17405000D01*
X855000Y17405000D02*
X855000Y12205000D01*
X17425000Y17405000D02*
X18755000Y17405000D01*
%TO.C,kibuzzard-63351A9D*%
G36*
X3145661Y1058859D02*
G01*
X3096488Y1074277D01*
X3060095Y1120533D01*
X3043426Y1168008D01*
X3033425Y1228201D01*
X3030091Y1301111D01*
X3030604Y1312224D01*
X3084543Y1312224D01*
X3101211Y1260551D01*
X3146773Y1238881D01*
X3190667Y1260551D01*
X3207891Y1312224D01*
X3190667Y1364452D01*
X3146773Y1386677D01*
X3101211Y1364452D01*
X3084543Y1312224D01*
X3030604Y1312224D01*
X3033425Y1373404D01*
X3043426Y1433227D01*
X3060095Y1480578D01*
X3096488Y1526834D01*
X3145661Y1542252D01*
X3195529Y1526834D01*
X3231783Y1480578D01*
X3248143Y1433227D01*
X3257959Y1373404D01*
X3261231Y1301111D01*
X3257959Y1228201D01*
X3248143Y1168008D01*
X3231783Y1120533D01*
X3195529Y1074277D01*
X3146773Y1059202D01*
X3145661Y1058859D01*
G37*
G36*
X1166531Y804557D02*
G01*
X1118204Y811726D01*
X1070812Y823597D01*
X1024812Y840056D01*
X980647Y860944D01*
X938742Y886061D01*
X899501Y915164D01*
X863301Y947974D01*
X830492Y984174D01*
X801389Y1023415D01*
X776272Y1065320D01*
X755383Y1109485D01*
X738924Y1155485D01*
X727053Y1202876D01*
X719885Y1251203D01*
X717487Y1300000D01*
X719885Y1348797D01*
X727053Y1397124D01*
X738924Y1444515D01*
X755383Y1490515D01*
X776272Y1534680D01*
X801389Y1576585D01*
X830492Y1615826D01*
X855461Y1643376D01*
X1215420Y1643376D01*
X1228199Y1581146D01*
X1246535Y1503359D01*
X1261228Y1445142D01*
X1277156Y1384578D01*
X1294319Y1321669D01*
X1312469Y1257526D01*
X1331360Y1193258D01*
X1350993Y1128867D01*
X1380163Y1037189D01*
X1407666Y955512D01*
X1548795Y955512D01*
X1570032Y1014717D01*
X1590776Y1075281D01*
X1611025Y1137202D01*
X1630472Y1199432D01*
X1648808Y1260921D01*
X1666032Y1321669D01*
X1689646Y1410153D01*
X1710482Y1494469D01*
X1711753Y1500025D01*
X1809939Y1500025D01*
X1854389Y1386677D01*
X1922175Y1413903D01*
X1993295Y1453352D01*
X1993295Y1068860D01*
X1848833Y1068860D01*
X1848833Y955512D01*
X2266663Y955512D01*
X2266663Y1043301D01*
X2491135Y1043301D01*
X2499469Y1000518D01*
X2521694Y969403D01*
X2553365Y949956D01*
X2591148Y943289D01*
X2660045Y968847D01*
X2690049Y1043301D01*
X2660045Y1115532D01*
X2591148Y1141091D01*
X2553365Y1134424D01*
X2521694Y1115532D01*
X2499469Y1084973D01*
X2491135Y1043301D01*
X2266663Y1043301D01*
X2266663Y1068860D01*
X2129979Y1068860D01*
X2129979Y1301111D01*
X2906743Y1301111D01*
X2910562Y1215823D01*
X2922022Y1142202D01*
X2941122Y1080250D01*
X2967861Y1029966D01*
X3014781Y980577D01*
X3074047Y950944D01*
X3145661Y941066D01*
X3217275Y950944D01*
X3276542Y980577D01*
X3323461Y1029966D01*
X3350201Y1080250D01*
X3369300Y1142202D01*
X3380760Y1215823D01*
X3384580Y1301111D01*
X3380760Y1385879D01*
X3369300Y1459048D01*
X3350201Y1520618D01*
X3323461Y1570589D01*
X3276542Y1619670D01*
X3217275Y1649118D01*
X3145661Y1658934D01*
X3075159Y1649056D01*
X3016262Y1619423D01*
X2968973Y1570034D01*
X2941747Y1519889D01*
X2922300Y1458353D01*
X2910632Y1385427D01*
X2906743Y1301111D01*
X2129979Y1301111D01*
X2129979Y1643376D01*
X2036634Y1643376D01*
X1988850Y1600037D01*
X1929954Y1560033D01*
X1867724Y1525584D01*
X1809939Y1500025D01*
X1711753Y1500025D01*
X1728401Y1572812D01*
X1743264Y1643376D01*
X1599913Y1643376D01*
X1589911Y1585591D01*
X1577688Y1518916D01*
X1563797Y1446824D01*
X1548795Y1372787D01*
X1532682Y1298333D01*
X1515458Y1224991D01*
X1497678Y1156232D01*
X1479898Y1095530D01*
X1461979Y1157065D01*
X1443782Y1226102D01*
X1426002Y1299444D01*
X1409333Y1373898D01*
X1393915Y1447796D01*
X1379885Y1519472D01*
X1368217Y1585730D01*
X1359883Y1643376D01*
X1215420Y1643376D01*
X855461Y1643376D01*
X863301Y1652026D01*
X899501Y1684836D01*
X938742Y1713939D01*
X980647Y1739056D01*
X1024812Y1759944D01*
X1070812Y1776403D01*
X1118204Y1788274D01*
X1166531Y1795443D01*
X1215327Y1797840D01*
X3384673Y1797840D01*
X3433469Y1795443D01*
X3481796Y1788274D01*
X3529188Y1776403D01*
X3575188Y1759944D01*
X3619353Y1739056D01*
X3661258Y1713939D01*
X3700499Y1684836D01*
X3736699Y1652026D01*
X3769508Y1615826D01*
X3798611Y1576585D01*
X3823728Y1534680D01*
X3844617Y1490515D01*
X3861076Y1444515D01*
X3872947Y1397124D01*
X3880115Y1348797D01*
X3882513Y1300000D01*
X3880115Y1251203D01*
X3872947Y1202876D01*
X3861076Y1155485D01*
X3844617Y1109485D01*
X3823728Y1065320D01*
X3798611Y1023415D01*
X3769508Y984174D01*
X3736699Y947974D01*
X3700499Y915164D01*
X3661258Y886061D01*
X3619353Y860944D01*
X3575188Y840056D01*
X3529188Y823597D01*
X3481796Y811726D01*
X3433469Y804557D01*
X3384673Y802160D01*
X1215327Y802160D01*
X1166531Y804557D01*
G37*
%TO.C,kibuzzard-63351A8A*%
G36*
X1238003Y17663002D02*
G01*
X1175869Y17672219D01*
X1114937Y17687482D01*
X1055794Y17708643D01*
X999011Y17735500D01*
X945133Y17767793D01*
X894680Y17805211D01*
X848137Y17847395D01*
X805954Y17893938D01*
X768535Y17944391D01*
X736242Y17998268D01*
X709385Y18055052D01*
X702002Y18075686D01*
X1556211Y18075686D01*
X1641936Y18075686D01*
X1600502Y17857087D01*
X1746234Y17857087D01*
X1786239Y18075686D01*
X1900539Y18075686D01*
X1859106Y17857087D01*
X2004838Y17857087D01*
X2046272Y18075686D01*
X2220579Y18075686D01*
X2220579Y18221419D01*
X2073418Y18221419D01*
X2088693Y18301429D01*
X2294874Y18301429D01*
X2299786Y18191772D01*
X2314520Y18097117D01*
X2339076Y18017465D01*
X2373456Y17952814D01*
X2433781Y17889314D01*
X2509981Y17851214D01*
X2602056Y17838514D01*
X2694131Y17851214D01*
X2770331Y17889314D01*
X2830656Y17952814D01*
X2865035Y18017465D01*
X2889592Y18097117D01*
X2904326Y18191772D01*
X2909237Y18301429D01*
X2904326Y18410416D01*
X2889592Y18504490D01*
X2873248Y18557175D01*
X3027823Y18557175D01*
X3084973Y18411442D01*
X3172127Y18446447D01*
X3263567Y18497167D01*
X3263567Y18002820D01*
X3077829Y18002820D01*
X3077829Y17857087D01*
X3615039Y17857087D01*
X3615039Y18002820D01*
X3439303Y18002820D01*
X3439303Y18301429D01*
X3723624Y18301429D01*
X3728536Y18191772D01*
X3743270Y18097117D01*
X3767826Y18017465D01*
X3802206Y17952814D01*
X3862531Y17889314D01*
X3938731Y17851214D01*
X4030806Y17838514D01*
X4122881Y17851214D01*
X4199081Y17889314D01*
X4259406Y17952814D01*
X4293785Y18017465D01*
X4318342Y18097117D01*
X4333076Y18191772D01*
X4337987Y18301429D01*
X4333076Y18410416D01*
X4318342Y18504490D01*
X4301998Y18557175D01*
X4456573Y18557175D01*
X4513723Y18411442D01*
X4600877Y18446447D01*
X4692317Y18497167D01*
X4692317Y18002820D01*
X4506579Y18002820D01*
X4506579Y17857087D01*
X5043789Y17857087D01*
X5043789Y18002820D01*
X4868053Y18002820D01*
X4868053Y18741484D01*
X4748038Y18741484D01*
X4686602Y18685762D01*
X4610878Y18634328D01*
X4530868Y18590036D01*
X4456573Y18557175D01*
X4301998Y18557175D01*
X4293785Y18583652D01*
X4259406Y18647901D01*
X4199081Y18711004D01*
X4122881Y18748866D01*
X4030806Y18761486D01*
X3940159Y18748786D01*
X3864436Y18710686D01*
X3803634Y18647186D01*
X3768630Y18582714D01*
X3743627Y18503597D01*
X3728625Y18409835D01*
X3723624Y18301429D01*
X3439303Y18301429D01*
X3439303Y18741484D01*
X3319288Y18741484D01*
X3257852Y18685762D01*
X3182128Y18634328D01*
X3102118Y18590036D01*
X3027823Y18557175D01*
X2873248Y18557175D01*
X2865035Y18583652D01*
X2830656Y18647901D01*
X2770331Y18711004D01*
X2694131Y18748866D01*
X2602056Y18761486D01*
X2511409Y18748786D01*
X2435686Y18710686D01*
X2374884Y18647186D01*
X2339880Y18582714D01*
X2314877Y18503597D01*
X2299875Y18409835D01*
X2294874Y18301429D01*
X2088693Y18301429D01*
X2103422Y18378581D01*
X2220579Y18378581D01*
X2220579Y18524314D01*
X2131997Y18524314D01*
X2173431Y18741484D01*
X2027698Y18741484D01*
X1986264Y18524314D01*
X1871964Y18524314D01*
X1914827Y18741484D01*
X1769094Y18741484D01*
X1727661Y18524314D01*
X1556211Y18524314D01*
X1556211Y18378581D01*
X1699086Y18378581D01*
X1669082Y18221419D01*
X1556211Y18221419D01*
X1556211Y18075686D01*
X702002Y18075686D01*
X688224Y18114195D01*
X672961Y18175127D01*
X663744Y18237261D01*
X660662Y18300000D01*
X663744Y18362739D01*
X672961Y18424873D01*
X688224Y18485805D01*
X709385Y18544948D01*
X736242Y18601732D01*
X768535Y18655609D01*
X805954Y18706062D01*
X848137Y18752605D01*
X894680Y18794789D01*
X945133Y18832207D01*
X999011Y18864500D01*
X1055794Y18891357D01*
X1114937Y18912518D01*
X1175869Y18927781D01*
X1238003Y18936998D01*
X1300742Y18940080D01*
X5299258Y18940080D01*
X5361997Y18936998D01*
X5424131Y18927781D01*
X5485063Y18912518D01*
X5544206Y18891357D01*
X5600989Y18864500D01*
X5654867Y18832207D01*
X5705320Y18794789D01*
X5751863Y18752605D01*
X5794046Y18706062D01*
X5831465Y18655609D01*
X5863758Y18601732D01*
X5890615Y18544948D01*
X5911776Y18485805D01*
X5927039Y18424873D01*
X5936256Y18362739D01*
X5939338Y18300000D01*
X5936256Y18237261D01*
X5927039Y18175127D01*
X5911776Y18114195D01*
X5890615Y18055052D01*
X5863758Y17998268D01*
X5831465Y17944391D01*
X5794046Y17893938D01*
X5751863Y17847395D01*
X5705320Y17805211D01*
X5654867Y17767793D01*
X5600989Y17735500D01*
X5544206Y17708643D01*
X5485063Y17687482D01*
X5424131Y17672219D01*
X5361997Y17663002D01*
X5299258Y17659920D01*
X1300742Y17659920D01*
X1238003Y17663002D01*
G37*
G36*
X2602056Y17989961D02*
G01*
X2538833Y18009785D01*
X2492042Y18069257D01*
X2470611Y18130296D01*
X2457752Y18207687D01*
X2453466Y18301429D01*
X2454125Y18315716D01*
X2523474Y18315716D01*
X2544906Y18249279D01*
X2603484Y18221419D01*
X2659920Y18249279D01*
X2682066Y18315716D01*
X2659920Y18382867D01*
X2603484Y18411442D01*
X2544906Y18382867D01*
X2523474Y18315716D01*
X2454125Y18315716D01*
X2457752Y18394377D01*
X2470611Y18471291D01*
X2492042Y18532172D01*
X2538833Y18591644D01*
X2602056Y18611467D01*
X2666171Y18591644D01*
X2712784Y18532172D01*
X2733818Y18471291D01*
X2746439Y18394377D01*
X2750646Y18301429D01*
X2746439Y18207687D01*
X2733818Y18130296D01*
X2712784Y18069257D01*
X2666171Y18009785D01*
X2603484Y17990403D01*
X2602056Y17989961D01*
G37*
G36*
X1929114Y18221419D02*
G01*
X1814814Y18221419D01*
X1844818Y18378581D01*
X1957689Y18378581D01*
X1929114Y18221419D01*
G37*
G36*
X4030806Y17989961D02*
G01*
X3967583Y18009785D01*
X3920792Y18069257D01*
X3899361Y18130296D01*
X3886502Y18207687D01*
X3882216Y18301429D01*
X3882875Y18315716D01*
X3952224Y18315716D01*
X3973656Y18249279D01*
X4032234Y18221419D01*
X4088670Y18249279D01*
X4110816Y18315716D01*
X4088670Y18382867D01*
X4032234Y18411442D01*
X3973656Y18382867D01*
X3952224Y18315716D01*
X3882875Y18315716D01*
X3886502Y18394377D01*
X3899361Y18471291D01*
X3920792Y18532172D01*
X3967583Y18591644D01*
X4030806Y18611467D01*
X4094921Y18591644D01*
X4141534Y18532172D01*
X4162568Y18471291D01*
X4175189Y18394377D01*
X4179396Y18301429D01*
X4175189Y18207687D01*
X4162568Y18130296D01*
X4141534Y18069257D01*
X4094921Y18009785D01*
X4032234Y17990403D01*
X4030806Y17989961D01*
G37*
%TO.C,D1*%
X1445000Y6680000D02*
X1445000Y4395000D01*
X2915000Y4395000D02*
X2915000Y6680000D01*
X2915000Y6680000D02*
X1445000Y6680000D01*
%TO.C,D4*%
X9065000Y6680000D02*
X9065000Y4395000D01*
X10535000Y4395000D02*
X10535000Y6680000D01*
X10535000Y6680000D02*
X9065000Y6680000D01*
%TD*%
M02*
