%TF.GenerationSoftware,KiCad,Pcbnew,6.0.7+dfsg-1~bpo11+1*%
%TF.CreationDate,2022-10-07T09:30:16+00:00*%
%TF.ProjectId,0101-INDICATORS,30313031-2d49-44e4-9449-4341544f5253,rev?*%
%TF.SameCoordinates,Original*%
%TF.FileFunction,Copper,L2,Bot*%
%TF.FilePolarity,Positive*%
%FSLAX46Y46*%
G04 Gerber Fmt 4.6, Leading zero omitted, Abs format (unit mm)*
G04 Created by KiCad (PCBNEW 6.0.7+dfsg-1~bpo11+1) date 2022-10-07 09:30:16*
%MOMM*%
%LPD*%
G01*
G04 APERTURE LIST*
%TA.AperFunction,ComponentPad*%
%ADD10R,1.700000X1.700000*%
%TD*%
%TA.AperFunction,ComponentPad*%
%ADD11O,1.700000X1.700000*%
%TD*%
%TA.AperFunction,SMDPad,CuDef*%
%ADD12R,0.700000X0.600000*%
%TD*%
%TA.AperFunction,ViaPad*%
%ADD13C,0.500000*%
%TD*%
%TA.AperFunction,Conductor*%
%ADD14C,0.500000*%
%TD*%
G04 APERTURE END LIST*
D10*
%TO.P,J1,1,Pin_1*%
%TO.N,GND*%
X17425000Y16075000D03*
D11*
%TO.P,J1,2,Pin_2*%
%TO.N,VCC*%
X17425000Y13535000D03*
%TO.P,J1,3,Pin_3*%
%TO.N,/LED6*%
X14885000Y16075000D03*
%TO.P,J1,4,Pin_4*%
X14885000Y13535000D03*
%TO.P,J1,5,Pin_5*%
%TO.N,/LED5*%
X12345000Y16075000D03*
%TO.P,J1,6,Pin_6*%
X12345000Y13535000D03*
%TO.P,J1,7,Pin_7*%
%TO.N,/LED4*%
X9805000Y16075000D03*
%TO.P,J1,8,Pin_8*%
X9805000Y13535000D03*
%TO.P,J1,9,Pin_9*%
%TO.N,/LED3*%
X7265000Y16075000D03*
%TO.P,J1,10,Pin_10*%
X7265000Y13535000D03*
%TO.P,J1,11,Pin_11*%
%TO.N,/LED2*%
X4725000Y16075000D03*
%TO.P,J1,12,Pin_12*%
X4725000Y13535000D03*
%TO.P,J1,13,Pin_13*%
%TO.N,/LED1*%
X2185000Y16075000D03*
%TO.P,J1,14,Pin_14*%
X2185000Y13535000D03*
%TD*%
D12*
%TO.P,D9,1,A1*%
%TO.N,/LED3*%
X7260000Y11610000D03*
%TO.P,D9,2,A2*%
%TO.N,GND*%
X7260000Y10210000D03*
%TD*%
%TO.P,D10,1,A1*%
%TO.N,/LED4*%
X9800000Y11610000D03*
%TO.P,D10,2,A2*%
%TO.N,GND*%
X9800000Y10210000D03*
%TD*%
%TO.P,D7,1,A1*%
%TO.N,/LED1*%
X2688000Y11610000D03*
%TO.P,D7,2,A2*%
%TO.N,GND*%
X2688000Y10210000D03*
%TD*%
%TO.P,D12,1,A1*%
%TO.N,/LED6*%
X14880000Y11610000D03*
%TO.P,D12,2,A2*%
%TO.N,GND*%
X14880000Y10210000D03*
%TD*%
%TO.P,D8,1,A1*%
%TO.N,/LED2*%
X4720000Y11610000D03*
%TO.P,D8,2,A2*%
%TO.N,GND*%
X4720000Y10210000D03*
%TD*%
%TO.P,D13,1,A1*%
%TO.N,VCC*%
X16912000Y11610000D03*
%TO.P,D13,2,A2*%
%TO.N,GND*%
X16912000Y10210000D03*
%TD*%
%TO.P,D11,1,A1*%
%TO.N,/LED5*%
X12340000Y11610000D03*
%TO.P,D11,2,A2*%
%TO.N,GND*%
X12340000Y10210000D03*
%TD*%
D13*
%TO.N,GND*%
X910000Y7735000D03*
X11070000Y7735000D03*
X8530000Y7735000D03*
X8530000Y9640000D03*
X3450000Y7735000D03*
X16150000Y7735000D03*
X13610000Y9640000D03*
X5990000Y9640000D03*
X5990000Y7735000D03*
X18690000Y7735000D03*
X11070000Y9640000D03*
X16150000Y9132000D03*
X13610000Y7735000D03*
X3450000Y9132000D03*
%TD*%
D14*
%TO.N,VCC*%
X17425000Y12123000D02*
X16912000Y11610000D01*
X17425000Y13535000D02*
X17425000Y12123000D01*
%TO.N,/LED1*%
X2185000Y16075000D02*
X2185000Y12113000D01*
X2185000Y12113000D02*
X2688000Y11610000D01*
X2180000Y16070000D02*
X2185000Y16075000D01*
%TO.N,/LED2*%
X4720000Y16070000D02*
X4725000Y16075000D01*
X4720000Y11610000D02*
X4720000Y16070000D01*
%TO.N,/LED3*%
X7260000Y16070000D02*
X7265000Y16075000D01*
X7260000Y11610000D02*
X7260000Y16070000D01*
%TO.N,/LED4*%
X9800000Y11610000D02*
X9800000Y16070000D01*
X9800000Y16070000D02*
X9805000Y16075000D01*
%TO.N,/LED5*%
X12340000Y11610000D02*
X12340000Y16070000D01*
X12340000Y16070000D02*
X12345000Y16075000D01*
%TO.N,/LED6*%
X14880000Y16070000D02*
X14885000Y16075000D01*
X14880000Y11610000D02*
X14880000Y16070000D01*
%TD*%
%TA.AperFunction,Conductor*%
%TO.N,GND*%
G36*
X8553332Y19429498D02*
G01*
X8599825Y19375842D01*
X8601115Y19372667D01*
X8601476Y19371320D01*
X8687324Y19181795D01*
X8690190Y19177505D01*
X8746090Y19093828D01*
X8802901Y19008786D01*
X8945119Y18856918D01*
X9110178Y18730247D01*
X9293668Y18632159D01*
X9298545Y18630503D01*
X9298548Y18630502D01*
X9485802Y18566931D01*
X9490686Y18565273D01*
X9695969Y18531377D01*
X9904031Y18531377D01*
X10109314Y18565273D01*
X10114198Y18566931D01*
X10301452Y18630502D01*
X10301455Y18630503D01*
X10306332Y18632159D01*
X10489822Y18730247D01*
X10654881Y18856918D01*
X10797099Y19008786D01*
X10853911Y19093828D01*
X10909810Y19177505D01*
X10912676Y19181795D01*
X10963341Y19293646D01*
X10998524Y19371320D01*
X10999686Y19370793D01*
X11037922Y19423337D01*
X11104100Y19449046D01*
X11114789Y19449500D01*
X18763598Y19449500D01*
X18771315Y19448484D01*
X18783978Y19448484D01*
X18800000Y19444191D01*
X18813583Y19447830D01*
X18816043Y19447692D01*
X18930420Y19434805D01*
X18957928Y19428526D01*
X19068407Y19389868D01*
X19093820Y19377631D01*
X19192943Y19315349D01*
X19214998Y19297759D01*
X19297759Y19214998D01*
X19315349Y19192943D01*
X19377631Y19093820D01*
X19389868Y19068407D01*
X19428526Y18957928D01*
X19434805Y18930420D01*
X19447692Y18816043D01*
X19447830Y18813583D01*
X19444191Y18800000D01*
X19448484Y18783978D01*
X19448484Y18771315D01*
X19449500Y18763598D01*
X19449500Y11114789D01*
X19429498Y11046668D01*
X19375842Y11000175D01*
X19372667Y10998885D01*
X19371320Y10998524D01*
X19181795Y10912676D01*
X19177505Y10909810D01*
X19013074Y10799964D01*
X19013070Y10799961D01*
X19008786Y10797099D01*
X18856918Y10654881D01*
X18730247Y10489822D01*
X18632159Y10306332D01*
X18630503Y10301455D01*
X18630502Y10301452D01*
X18566931Y10114198D01*
X18565273Y10109314D01*
X18531377Y9904031D01*
X18531377Y9695969D01*
X18565273Y9490686D01*
X18566931Y9485803D01*
X18566931Y9485802D01*
X18607160Y9367306D01*
X18632159Y9293668D01*
X18730247Y9110178D01*
X18856918Y8945119D01*
X19008786Y8802901D01*
X19013070Y8800039D01*
X19013074Y8800036D01*
X19084217Y8752510D01*
X19181795Y8687324D01*
X19186495Y8685195D01*
X19186497Y8685194D01*
X19371320Y8601476D01*
X19370793Y8600314D01*
X19423337Y8562078D01*
X19449046Y8495900D01*
X19449500Y8485211D01*
X19449500Y836402D01*
X19448484Y828685D01*
X19448484Y816022D01*
X19444191Y800000D01*
X19447830Y786417D01*
X19447692Y783957D01*
X19434805Y669580D01*
X19428526Y642072D01*
X19389868Y531593D01*
X19377631Y506180D01*
X19315349Y407057D01*
X19297759Y385002D01*
X19214998Y302241D01*
X19192943Y284651D01*
X19093820Y222369D01*
X19068407Y210132D01*
X18957928Y171474D01*
X18930420Y165195D01*
X18816043Y152308D01*
X18813583Y152170D01*
X18800000Y155809D01*
X18783978Y151516D01*
X18771315Y151516D01*
X18763598Y150500D01*
X11114789Y150500D01*
X11046668Y170502D01*
X11000175Y224158D01*
X10998885Y227333D01*
X10998524Y228680D01*
X10912676Y418205D01*
X10888477Y454429D01*
X10799964Y586926D01*
X10799961Y586930D01*
X10797099Y591214D01*
X10654881Y743082D01*
X10489822Y869753D01*
X10306332Y967841D01*
X10301455Y969497D01*
X10301452Y969498D01*
X10114198Y1033069D01*
X10114197Y1033069D01*
X10109314Y1034727D01*
X9904031Y1068623D01*
X9695969Y1068623D01*
X9490686Y1034727D01*
X9485803Y1033069D01*
X9485802Y1033069D01*
X9298548Y969498D01*
X9298545Y969497D01*
X9293668Y967841D01*
X9110178Y869753D01*
X8945119Y743082D01*
X8802901Y591214D01*
X8800039Y586930D01*
X8800036Y586926D01*
X8711523Y454429D01*
X8687324Y418205D01*
X8685195Y413505D01*
X8685194Y413503D01*
X8634796Y302241D01*
X8601476Y228680D01*
X8600314Y229207D01*
X8562078Y176663D01*
X8495900Y150954D01*
X8485211Y150500D01*
X836402Y150500D01*
X828685Y151516D01*
X816022Y151516D01*
X800000Y155809D01*
X786417Y152170D01*
X783957Y152308D01*
X669580Y165195D01*
X642072Y171474D01*
X531593Y210132D01*
X506180Y222369D01*
X407057Y284651D01*
X385002Y302241D01*
X302241Y385002D01*
X284651Y407057D01*
X222369Y506180D01*
X210132Y531593D01*
X171474Y642072D01*
X165195Y669580D01*
X152308Y783957D01*
X152170Y786417D01*
X155809Y800000D01*
X151516Y816022D01*
X151516Y828685D01*
X150500Y836402D01*
X150500Y8485211D01*
X170502Y8553332D01*
X224158Y8599825D01*
X227333Y8601115D01*
X228680Y8601476D01*
X418205Y8687324D01*
X515783Y8752510D01*
X586926Y8800036D01*
X586930Y8800039D01*
X591214Y8802901D01*
X743082Y8945119D01*
X869753Y9110178D01*
X967841Y9293668D01*
X992841Y9367306D01*
X1033069Y9485802D01*
X1033069Y9485803D01*
X1034727Y9490686D01*
X1068623Y9695969D01*
X1068623Y9901414D01*
X2188001Y9901414D01*
X2189209Y9889154D01*
X2194282Y9863648D01*
X2203599Y9841152D01*
X2222963Y9812172D01*
X2240172Y9794963D01*
X2269156Y9775596D01*
X2291642Y9766282D01*
X2317158Y9761207D01*
X2329412Y9760000D01*
X2415885Y9760000D01*
X2431124Y9764475D01*
X2432329Y9765865D01*
X2434000Y9773548D01*
X2434000Y9778116D01*
X2942000Y9778116D01*
X2946475Y9762877D01*
X2947865Y9761672D01*
X2955548Y9760001D01*
X3046586Y9760001D01*
X3058846Y9761209D01*
X3084352Y9766282D01*
X3106848Y9775599D01*
X3135828Y9794963D01*
X3153037Y9812172D01*
X3172404Y9841156D01*
X3181718Y9863642D01*
X3186793Y9889158D01*
X3188000Y9901412D01*
X3188000Y9901414D01*
X4220001Y9901414D01*
X4221209Y9889154D01*
X4226282Y9863648D01*
X4235599Y9841152D01*
X4254963Y9812172D01*
X4272172Y9794963D01*
X4301156Y9775596D01*
X4323642Y9766282D01*
X4349158Y9761207D01*
X4361412Y9760000D01*
X4447885Y9760000D01*
X4463124Y9764475D01*
X4464329Y9765865D01*
X4466000Y9773548D01*
X4466000Y9778116D01*
X4974000Y9778116D01*
X4978475Y9762877D01*
X4979865Y9761672D01*
X4987548Y9760001D01*
X5078586Y9760001D01*
X5090846Y9761209D01*
X5116352Y9766282D01*
X5138848Y9775599D01*
X5167828Y9794963D01*
X5185037Y9812172D01*
X5204404Y9841156D01*
X5213718Y9863642D01*
X5218793Y9889158D01*
X5220000Y9901412D01*
X5220000Y9901414D01*
X6760001Y9901414D01*
X6761209Y9889154D01*
X6766282Y9863648D01*
X6775599Y9841152D01*
X6794963Y9812172D01*
X6812172Y9794963D01*
X6841156Y9775596D01*
X6863642Y9766282D01*
X6889158Y9761207D01*
X6901412Y9760000D01*
X6987885Y9760000D01*
X7003124Y9764475D01*
X7004329Y9765865D01*
X7006000Y9773548D01*
X7006000Y9778116D01*
X7514000Y9778116D01*
X7518475Y9762877D01*
X7519865Y9761672D01*
X7527548Y9760001D01*
X7618586Y9760001D01*
X7630846Y9761209D01*
X7656352Y9766282D01*
X7678848Y9775599D01*
X7707828Y9794963D01*
X7725037Y9812172D01*
X7744404Y9841156D01*
X7753718Y9863642D01*
X7758793Y9889158D01*
X7760000Y9901412D01*
X7760000Y9901414D01*
X9300001Y9901414D01*
X9301209Y9889154D01*
X9306282Y9863648D01*
X9315599Y9841152D01*
X9334963Y9812172D01*
X9352172Y9794963D01*
X9381156Y9775596D01*
X9403642Y9766282D01*
X9429158Y9761207D01*
X9441412Y9760000D01*
X9527885Y9760000D01*
X9543124Y9764475D01*
X9544329Y9765865D01*
X9546000Y9773548D01*
X9546000Y9778116D01*
X10054000Y9778116D01*
X10058475Y9762877D01*
X10059865Y9761672D01*
X10067548Y9760001D01*
X10158586Y9760001D01*
X10170846Y9761209D01*
X10196352Y9766282D01*
X10218848Y9775599D01*
X10247828Y9794963D01*
X10265037Y9812172D01*
X10284404Y9841156D01*
X10293718Y9863642D01*
X10298793Y9889158D01*
X10300000Y9901412D01*
X10300000Y9901414D01*
X11840001Y9901414D01*
X11841209Y9889154D01*
X11846282Y9863648D01*
X11855599Y9841152D01*
X11874963Y9812172D01*
X11892172Y9794963D01*
X11921156Y9775596D01*
X11943642Y9766282D01*
X11969158Y9761207D01*
X11981412Y9760000D01*
X12067885Y9760000D01*
X12083124Y9764475D01*
X12084329Y9765865D01*
X12086000Y9773548D01*
X12086000Y9778116D01*
X12594000Y9778116D01*
X12598475Y9762877D01*
X12599865Y9761672D01*
X12607548Y9760001D01*
X12698586Y9760001D01*
X12710846Y9761209D01*
X12736352Y9766282D01*
X12758848Y9775599D01*
X12787828Y9794963D01*
X12805037Y9812172D01*
X12824404Y9841156D01*
X12833718Y9863642D01*
X12838793Y9889158D01*
X12840000Y9901412D01*
X12840000Y9901414D01*
X14380001Y9901414D01*
X14381209Y9889154D01*
X14386282Y9863648D01*
X14395599Y9841152D01*
X14414963Y9812172D01*
X14432172Y9794963D01*
X14461156Y9775596D01*
X14483642Y9766282D01*
X14509158Y9761207D01*
X14521412Y9760000D01*
X14607885Y9760000D01*
X14623124Y9764475D01*
X14624329Y9765865D01*
X14626000Y9773548D01*
X14626000Y9778116D01*
X15134000Y9778116D01*
X15138475Y9762877D01*
X15139865Y9761672D01*
X15147548Y9760001D01*
X15238586Y9760001D01*
X15250846Y9761209D01*
X15276352Y9766282D01*
X15298848Y9775599D01*
X15327828Y9794963D01*
X15345037Y9812172D01*
X15364404Y9841156D01*
X15373718Y9863642D01*
X15378793Y9889158D01*
X15380000Y9901412D01*
X15380000Y9901414D01*
X16412001Y9901414D01*
X16413209Y9889154D01*
X16418282Y9863648D01*
X16427599Y9841152D01*
X16446963Y9812172D01*
X16464172Y9794963D01*
X16493156Y9775596D01*
X16515642Y9766282D01*
X16541158Y9761207D01*
X16553412Y9760000D01*
X16639885Y9760000D01*
X16655124Y9764475D01*
X16656329Y9765865D01*
X16658000Y9773548D01*
X16658000Y9778116D01*
X17166000Y9778116D01*
X17170475Y9762877D01*
X17171865Y9761672D01*
X17179548Y9760001D01*
X17270586Y9760001D01*
X17282846Y9761209D01*
X17308352Y9766282D01*
X17330848Y9775599D01*
X17359828Y9794963D01*
X17377037Y9812172D01*
X17396404Y9841156D01*
X17405718Y9863642D01*
X17410793Y9889158D01*
X17412000Y9901412D01*
X17412000Y9937885D01*
X17407525Y9953124D01*
X17406135Y9954329D01*
X17398452Y9956000D01*
X17184115Y9956000D01*
X17168876Y9951525D01*
X17167671Y9950135D01*
X17166000Y9942452D01*
X17166000Y9778116D01*
X16658000Y9778116D01*
X16658000Y9937885D01*
X16653525Y9953124D01*
X16652135Y9954329D01*
X16644452Y9956000D01*
X16430116Y9956000D01*
X16414877Y9951525D01*
X16413672Y9950135D01*
X16412001Y9942452D01*
X16412001Y9901414D01*
X15380000Y9901414D01*
X15380000Y9937885D01*
X15375525Y9953124D01*
X15374135Y9954329D01*
X15366452Y9956000D01*
X15152115Y9956000D01*
X15136876Y9951525D01*
X15135671Y9950135D01*
X15134000Y9942452D01*
X15134000Y9778116D01*
X14626000Y9778116D01*
X14626000Y9937885D01*
X14621525Y9953124D01*
X14620135Y9954329D01*
X14612452Y9956000D01*
X14398116Y9956000D01*
X14382877Y9951525D01*
X14381672Y9950135D01*
X14380001Y9942452D01*
X14380001Y9901414D01*
X12840000Y9901414D01*
X12840000Y9937885D01*
X12835525Y9953124D01*
X12834135Y9954329D01*
X12826452Y9956000D01*
X12612115Y9956000D01*
X12596876Y9951525D01*
X12595671Y9950135D01*
X12594000Y9942452D01*
X12594000Y9778116D01*
X12086000Y9778116D01*
X12086000Y9937885D01*
X12081525Y9953124D01*
X12080135Y9954329D01*
X12072452Y9956000D01*
X11858116Y9956000D01*
X11842877Y9951525D01*
X11841672Y9950135D01*
X11840001Y9942452D01*
X11840001Y9901414D01*
X10300000Y9901414D01*
X10300000Y9937885D01*
X10295525Y9953124D01*
X10294135Y9954329D01*
X10286452Y9956000D01*
X10072115Y9956000D01*
X10056876Y9951525D01*
X10055671Y9950135D01*
X10054000Y9942452D01*
X10054000Y9778116D01*
X9546000Y9778116D01*
X9546000Y9937885D01*
X9541525Y9953124D01*
X9540135Y9954329D01*
X9532452Y9956000D01*
X9318116Y9956000D01*
X9302877Y9951525D01*
X9301672Y9950135D01*
X9300001Y9942452D01*
X9300001Y9901414D01*
X7760000Y9901414D01*
X7760000Y9937885D01*
X7755525Y9953124D01*
X7754135Y9954329D01*
X7746452Y9956000D01*
X7532115Y9956000D01*
X7516876Y9951525D01*
X7515671Y9950135D01*
X7514000Y9942452D01*
X7514000Y9778116D01*
X7006000Y9778116D01*
X7006000Y9937885D01*
X7001525Y9953124D01*
X7000135Y9954329D01*
X6992452Y9956000D01*
X6778116Y9956000D01*
X6762877Y9951525D01*
X6761672Y9950135D01*
X6760001Y9942452D01*
X6760001Y9901414D01*
X5220000Y9901414D01*
X5220000Y9937885D01*
X5215525Y9953124D01*
X5214135Y9954329D01*
X5206452Y9956000D01*
X4992115Y9956000D01*
X4976876Y9951525D01*
X4975671Y9950135D01*
X4974000Y9942452D01*
X4974000Y9778116D01*
X4466000Y9778116D01*
X4466000Y9937885D01*
X4461525Y9953124D01*
X4460135Y9954329D01*
X4452452Y9956000D01*
X4238116Y9956000D01*
X4222877Y9951525D01*
X4221672Y9950135D01*
X4220001Y9942452D01*
X4220001Y9901414D01*
X3188000Y9901414D01*
X3188000Y9937885D01*
X3183525Y9953124D01*
X3182135Y9954329D01*
X3174452Y9956000D01*
X2960115Y9956000D01*
X2944876Y9951525D01*
X2943671Y9950135D01*
X2942000Y9942452D01*
X2942000Y9778116D01*
X2434000Y9778116D01*
X2434000Y9937885D01*
X2429525Y9953124D01*
X2428135Y9954329D01*
X2420452Y9956000D01*
X2206116Y9956000D01*
X2190877Y9951525D01*
X2189672Y9950135D01*
X2188001Y9942452D01*
X2188001Y9901414D01*
X1068623Y9901414D01*
X1068623Y9904031D01*
X1034727Y10109314D01*
X1033069Y10114198D01*
X969498Y10301452D01*
X969497Y10301455D01*
X967841Y10306332D01*
X873873Y10482115D01*
X2188000Y10482115D01*
X2192475Y10466876D01*
X2193865Y10465671D01*
X2201548Y10464000D01*
X2415885Y10464000D01*
X2431124Y10468475D01*
X2432329Y10469865D01*
X2434000Y10477548D01*
X2434000Y10482115D01*
X2942000Y10482115D01*
X2946475Y10466876D01*
X2947865Y10465671D01*
X2955548Y10464000D01*
X3169884Y10464000D01*
X3185123Y10468475D01*
X3186328Y10469865D01*
X3187999Y10477548D01*
X3187999Y10482115D01*
X4220000Y10482115D01*
X4224475Y10466876D01*
X4225865Y10465671D01*
X4233548Y10464000D01*
X4447885Y10464000D01*
X4463124Y10468475D01*
X4464329Y10469865D01*
X4466000Y10477548D01*
X4466000Y10482115D01*
X4974000Y10482115D01*
X4978475Y10466876D01*
X4979865Y10465671D01*
X4987548Y10464000D01*
X5201884Y10464000D01*
X5217123Y10468475D01*
X5218328Y10469865D01*
X5219999Y10477548D01*
X5219999Y10482115D01*
X6760000Y10482115D01*
X6764475Y10466876D01*
X6765865Y10465671D01*
X6773548Y10464000D01*
X6987885Y10464000D01*
X7003124Y10468475D01*
X7004329Y10469865D01*
X7006000Y10477548D01*
X7006000Y10482115D01*
X7514000Y10482115D01*
X7518475Y10466876D01*
X7519865Y10465671D01*
X7527548Y10464000D01*
X7741884Y10464000D01*
X7757123Y10468475D01*
X7758328Y10469865D01*
X7759999Y10477548D01*
X7759999Y10482115D01*
X9300000Y10482115D01*
X9304475Y10466876D01*
X9305865Y10465671D01*
X9313548Y10464000D01*
X9527885Y10464000D01*
X9543124Y10468475D01*
X9544329Y10469865D01*
X9546000Y10477548D01*
X9546000Y10482115D01*
X10054000Y10482115D01*
X10058475Y10466876D01*
X10059865Y10465671D01*
X10067548Y10464000D01*
X10281884Y10464000D01*
X10297123Y10468475D01*
X10298328Y10469865D01*
X10299999Y10477548D01*
X10299999Y10482115D01*
X11840000Y10482115D01*
X11844475Y10466876D01*
X11845865Y10465671D01*
X11853548Y10464000D01*
X12067885Y10464000D01*
X12083124Y10468475D01*
X12084329Y10469865D01*
X12086000Y10477548D01*
X12086000Y10482115D01*
X12594000Y10482115D01*
X12598475Y10466876D01*
X12599865Y10465671D01*
X12607548Y10464000D01*
X12821884Y10464000D01*
X12837123Y10468475D01*
X12838328Y10469865D01*
X12839999Y10477548D01*
X12839999Y10482115D01*
X14380000Y10482115D01*
X14384475Y10466876D01*
X14385865Y10465671D01*
X14393548Y10464000D01*
X14607885Y10464000D01*
X14623124Y10468475D01*
X14624329Y10469865D01*
X14626000Y10477548D01*
X14626000Y10482115D01*
X15134000Y10482115D01*
X15138475Y10466876D01*
X15139865Y10465671D01*
X15147548Y10464000D01*
X15361884Y10464000D01*
X15377123Y10468475D01*
X15378328Y10469865D01*
X15379999Y10477548D01*
X15379999Y10482115D01*
X16412000Y10482115D01*
X16416475Y10466876D01*
X16417865Y10465671D01*
X16425548Y10464000D01*
X16639885Y10464000D01*
X16655124Y10468475D01*
X16656329Y10469865D01*
X16658000Y10477548D01*
X16658000Y10482115D01*
X17166000Y10482115D01*
X17170475Y10466876D01*
X17171865Y10465671D01*
X17179548Y10464000D01*
X17393884Y10464000D01*
X17409123Y10468475D01*
X17410328Y10469865D01*
X17411999Y10477548D01*
X17411999Y10518586D01*
X17410791Y10530846D01*
X17405718Y10556352D01*
X17396401Y10578848D01*
X17377037Y10607828D01*
X17359828Y10625037D01*
X17330844Y10644404D01*
X17308358Y10653718D01*
X17282842Y10658793D01*
X17270588Y10660000D01*
X17184115Y10660000D01*
X17168876Y10655525D01*
X17167671Y10654135D01*
X17166000Y10646452D01*
X17166000Y10482115D01*
X16658000Y10482115D01*
X16658000Y10641884D01*
X16653525Y10657123D01*
X16652135Y10658328D01*
X16644452Y10659999D01*
X16553414Y10659999D01*
X16541154Y10658791D01*
X16515648Y10653718D01*
X16493152Y10644401D01*
X16464172Y10625037D01*
X16446963Y10607828D01*
X16427596Y10578844D01*
X16418282Y10556358D01*
X16413207Y10530842D01*
X16412000Y10518588D01*
X16412000Y10482115D01*
X15379999Y10482115D01*
X15379999Y10518586D01*
X15378791Y10530846D01*
X15373718Y10556352D01*
X15364401Y10578848D01*
X15345037Y10607828D01*
X15327828Y10625037D01*
X15298844Y10644404D01*
X15276358Y10653718D01*
X15250842Y10658793D01*
X15238588Y10660000D01*
X15152115Y10660000D01*
X15136876Y10655525D01*
X15135671Y10654135D01*
X15134000Y10646452D01*
X15134000Y10482115D01*
X14626000Y10482115D01*
X14626000Y10641884D01*
X14621525Y10657123D01*
X14620135Y10658328D01*
X14612452Y10659999D01*
X14521414Y10659999D01*
X14509154Y10658791D01*
X14483648Y10653718D01*
X14461152Y10644401D01*
X14432172Y10625037D01*
X14414963Y10607828D01*
X14395596Y10578844D01*
X14386282Y10556358D01*
X14381207Y10530842D01*
X14380000Y10518588D01*
X14380000Y10482115D01*
X12839999Y10482115D01*
X12839999Y10518586D01*
X12838791Y10530846D01*
X12833718Y10556352D01*
X12824401Y10578848D01*
X12805037Y10607828D01*
X12787828Y10625037D01*
X12758844Y10644404D01*
X12736358Y10653718D01*
X12710842Y10658793D01*
X12698588Y10660000D01*
X12612115Y10660000D01*
X12596876Y10655525D01*
X12595671Y10654135D01*
X12594000Y10646452D01*
X12594000Y10482115D01*
X12086000Y10482115D01*
X12086000Y10641884D01*
X12081525Y10657123D01*
X12080135Y10658328D01*
X12072452Y10659999D01*
X11981414Y10659999D01*
X11969154Y10658791D01*
X11943648Y10653718D01*
X11921152Y10644401D01*
X11892172Y10625037D01*
X11874963Y10607828D01*
X11855596Y10578844D01*
X11846282Y10556358D01*
X11841207Y10530842D01*
X11840000Y10518588D01*
X11840000Y10482115D01*
X10299999Y10482115D01*
X10299999Y10518586D01*
X10298791Y10530846D01*
X10293718Y10556352D01*
X10284401Y10578848D01*
X10265037Y10607828D01*
X10247828Y10625037D01*
X10218844Y10644404D01*
X10196358Y10653718D01*
X10170842Y10658793D01*
X10158588Y10660000D01*
X10072115Y10660000D01*
X10056876Y10655525D01*
X10055671Y10654135D01*
X10054000Y10646452D01*
X10054000Y10482115D01*
X9546000Y10482115D01*
X9546000Y10641884D01*
X9541525Y10657123D01*
X9540135Y10658328D01*
X9532452Y10659999D01*
X9441414Y10659999D01*
X9429154Y10658791D01*
X9403648Y10653718D01*
X9381152Y10644401D01*
X9352172Y10625037D01*
X9334963Y10607828D01*
X9315596Y10578844D01*
X9306282Y10556358D01*
X9301207Y10530842D01*
X9300000Y10518588D01*
X9300000Y10482115D01*
X7759999Y10482115D01*
X7759999Y10518586D01*
X7758791Y10530846D01*
X7753718Y10556352D01*
X7744401Y10578848D01*
X7725037Y10607828D01*
X7707828Y10625037D01*
X7678844Y10644404D01*
X7656358Y10653718D01*
X7630842Y10658793D01*
X7618588Y10660000D01*
X7532115Y10660000D01*
X7516876Y10655525D01*
X7515671Y10654135D01*
X7514000Y10646452D01*
X7514000Y10482115D01*
X7006000Y10482115D01*
X7006000Y10641884D01*
X7001525Y10657123D01*
X7000135Y10658328D01*
X6992452Y10659999D01*
X6901414Y10659999D01*
X6889154Y10658791D01*
X6863648Y10653718D01*
X6841152Y10644401D01*
X6812172Y10625037D01*
X6794963Y10607828D01*
X6775596Y10578844D01*
X6766282Y10556358D01*
X6761207Y10530842D01*
X6760000Y10518588D01*
X6760000Y10482115D01*
X5219999Y10482115D01*
X5219999Y10518586D01*
X5218791Y10530846D01*
X5213718Y10556352D01*
X5204401Y10578848D01*
X5185037Y10607828D01*
X5167828Y10625037D01*
X5138844Y10644404D01*
X5116358Y10653718D01*
X5090842Y10658793D01*
X5078588Y10660000D01*
X4992115Y10660000D01*
X4976876Y10655525D01*
X4975671Y10654135D01*
X4974000Y10646452D01*
X4974000Y10482115D01*
X4466000Y10482115D01*
X4466000Y10641884D01*
X4461525Y10657123D01*
X4460135Y10658328D01*
X4452452Y10659999D01*
X4361414Y10659999D01*
X4349154Y10658791D01*
X4323648Y10653718D01*
X4301152Y10644401D01*
X4272172Y10625037D01*
X4254963Y10607828D01*
X4235596Y10578844D01*
X4226282Y10556358D01*
X4221207Y10530842D01*
X4220000Y10518588D01*
X4220000Y10482115D01*
X3187999Y10482115D01*
X3187999Y10518586D01*
X3186791Y10530846D01*
X3181718Y10556352D01*
X3172401Y10578848D01*
X3153037Y10607828D01*
X3135828Y10625037D01*
X3106844Y10644404D01*
X3084358Y10653718D01*
X3058842Y10658793D01*
X3046588Y10660000D01*
X2960115Y10660000D01*
X2944876Y10655525D01*
X2943671Y10654135D01*
X2942000Y10646452D01*
X2942000Y10482115D01*
X2434000Y10482115D01*
X2434000Y10641884D01*
X2429525Y10657123D01*
X2428135Y10658328D01*
X2420452Y10659999D01*
X2329414Y10659999D01*
X2317154Y10658791D01*
X2291648Y10653718D01*
X2269152Y10644401D01*
X2240172Y10625037D01*
X2222963Y10607828D01*
X2203596Y10578844D01*
X2194282Y10556358D01*
X2189207Y10530842D01*
X2188000Y10518588D01*
X2188000Y10482115D01*
X873873Y10482115D01*
X869753Y10489822D01*
X743082Y10654881D01*
X591214Y10797099D01*
X586930Y10799961D01*
X586926Y10799964D01*
X422495Y10909810D01*
X418205Y10912676D01*
X384660Y10927871D01*
X228680Y10998524D01*
X229207Y10999686D01*
X176663Y11037922D01*
X150954Y11104100D01*
X150500Y11114789D01*
X150500Y13549037D01*
X1179757Y13549037D01*
X1196175Y13353517D01*
X1250258Y13164909D01*
X1253076Y13159426D01*
X1337123Y12995887D01*
X1337126Y12995883D01*
X1339944Y12990399D01*
X1461818Y12836631D01*
X1611238Y12709465D01*
X1616616Y12706459D01*
X1616618Y12706458D01*
X1719970Y12648697D01*
X1769676Y12598004D01*
X1784500Y12538709D01*
X1784500Y12049567D01*
X1787564Y12040136D01*
X1787565Y12040132D01*
X1791297Y12028647D01*
X1795913Y12009422D01*
X1799354Y11987696D01*
X1803855Y11978863D01*
X1803856Y11978859D01*
X1809341Y11968094D01*
X1816905Y11949834D01*
X1823704Y11928910D01*
X1836639Y11911107D01*
X1846965Y11894255D01*
X1856950Y11874658D01*
X1879503Y11852105D01*
X1879516Y11852091D01*
X2150595Y11581013D01*
X2184620Y11518700D01*
X2187500Y11491917D01*
X2187500Y11295180D01*
X2196233Y11251278D01*
X2203127Y11240960D01*
X2203128Y11240958D01*
X2222601Y11211815D01*
X2229496Y11201496D01*
X2239815Y11194601D01*
X2268958Y11175128D01*
X2268960Y11175127D01*
X2279278Y11168233D01*
X2323180Y11159500D01*
X3052820Y11159500D01*
X3096722Y11168233D01*
X3107040Y11175127D01*
X3107042Y11175128D01*
X3136185Y11194601D01*
X3146504Y11201496D01*
X3153399Y11211815D01*
X3172872Y11240958D01*
X3172873Y11240960D01*
X3179767Y11251278D01*
X3188500Y11295180D01*
X3188500Y11924820D01*
X3179767Y11968722D01*
X3172873Y11979040D01*
X3172872Y11979042D01*
X3153399Y12008185D01*
X3146504Y12018504D01*
X3123052Y12034174D01*
X3107042Y12044872D01*
X3107040Y12044873D01*
X3096722Y12051767D01*
X3052820Y12060500D01*
X2856083Y12060500D01*
X2787962Y12080502D01*
X2766987Y12097405D01*
X2622404Y12241989D01*
X2588379Y12304301D01*
X2585500Y12331084D01*
X2585500Y12538843D01*
X2605502Y12606964D01*
X2654688Y12651308D01*
X2723689Y12686163D01*
X2878303Y12806960D01*
X2908084Y12841461D01*
X3002485Y12950827D01*
X3002485Y12950828D01*
X3006509Y12955489D01*
X3103425Y13126091D01*
X3165358Y13312268D01*
X3189949Y13506929D01*
X3190341Y13535000D01*
X3188965Y13549037D01*
X3719757Y13549037D01*
X3736175Y13353517D01*
X3790258Y13164909D01*
X3793076Y13159426D01*
X3877123Y12995887D01*
X3877126Y12995883D01*
X3879944Y12990399D01*
X4001818Y12836631D01*
X4151238Y12709465D01*
X4156616Y12706459D01*
X4156618Y12706458D01*
X4254970Y12651491D01*
X4304676Y12600797D01*
X4319500Y12541503D01*
X4319500Y12124609D01*
X4299498Y12056488D01*
X4279072Y12035692D01*
X4280590Y12034174D01*
X4271815Y12025399D01*
X4261496Y12018504D01*
X4254601Y12008185D01*
X4235128Y11979042D01*
X4235127Y11979040D01*
X4228233Y11968722D01*
X4219500Y11924820D01*
X4219500Y11295180D01*
X4228233Y11251278D01*
X4235127Y11240960D01*
X4235128Y11240958D01*
X4254601Y11211815D01*
X4261496Y11201496D01*
X4271815Y11194601D01*
X4300958Y11175128D01*
X4300960Y11175127D01*
X4311278Y11168233D01*
X4355180Y11159500D01*
X5084820Y11159500D01*
X5128722Y11168233D01*
X5139040Y11175127D01*
X5139042Y11175128D01*
X5168185Y11194601D01*
X5178504Y11201496D01*
X5185399Y11211815D01*
X5204872Y11240958D01*
X5204873Y11240960D01*
X5211767Y11251278D01*
X5220500Y11295180D01*
X5220500Y11924820D01*
X5211767Y11968722D01*
X5204873Y11979040D01*
X5204872Y11979042D01*
X5185399Y12008185D01*
X5178504Y12018504D01*
X5168185Y12025399D01*
X5159410Y12034174D01*
X5162194Y12036958D01*
X5130965Y12074333D01*
X5120500Y12124609D01*
X5120500Y12536317D01*
X5140502Y12604438D01*
X5189690Y12648783D01*
X5258191Y12683385D01*
X5258197Y12683389D01*
X5263689Y12686163D01*
X5293515Y12709465D01*
X5413453Y12803171D01*
X5418303Y12806960D01*
X5448084Y12841461D01*
X5542485Y12950827D01*
X5542485Y12950828D01*
X5546509Y12955489D01*
X5643425Y13126091D01*
X5705358Y13312268D01*
X5729949Y13506929D01*
X5730341Y13535000D01*
X5728965Y13549037D01*
X6259757Y13549037D01*
X6276175Y13353517D01*
X6330258Y13164909D01*
X6333076Y13159426D01*
X6417123Y12995887D01*
X6417126Y12995883D01*
X6419944Y12990399D01*
X6541818Y12836631D01*
X6691238Y12709465D01*
X6696616Y12706459D01*
X6696618Y12706458D01*
X6794970Y12651491D01*
X6844676Y12600797D01*
X6859500Y12541503D01*
X6859500Y12124609D01*
X6839498Y12056488D01*
X6819072Y12035692D01*
X6820590Y12034174D01*
X6811815Y12025399D01*
X6801496Y12018504D01*
X6794601Y12008185D01*
X6775128Y11979042D01*
X6775127Y11979040D01*
X6768233Y11968722D01*
X6759500Y11924820D01*
X6759500Y11295180D01*
X6768233Y11251278D01*
X6775127Y11240960D01*
X6775128Y11240958D01*
X6794601Y11211815D01*
X6801496Y11201496D01*
X6811815Y11194601D01*
X6840958Y11175128D01*
X6840960Y11175127D01*
X6851278Y11168233D01*
X6895180Y11159500D01*
X7624820Y11159500D01*
X7668722Y11168233D01*
X7679040Y11175127D01*
X7679042Y11175128D01*
X7708185Y11194601D01*
X7718504Y11201496D01*
X7725399Y11211815D01*
X7744872Y11240958D01*
X7744873Y11240960D01*
X7751767Y11251278D01*
X7760500Y11295180D01*
X7760500Y11924820D01*
X7751767Y11968722D01*
X7744873Y11979040D01*
X7744872Y11979042D01*
X7725399Y12008185D01*
X7718504Y12018504D01*
X7708185Y12025399D01*
X7699410Y12034174D01*
X7702194Y12036958D01*
X7670965Y12074333D01*
X7660500Y12124609D01*
X7660500Y12536317D01*
X7680502Y12604438D01*
X7729690Y12648783D01*
X7798191Y12683385D01*
X7798197Y12683389D01*
X7803689Y12686163D01*
X7833515Y12709465D01*
X7953453Y12803171D01*
X7958303Y12806960D01*
X7988084Y12841461D01*
X8082485Y12950827D01*
X8082485Y12950828D01*
X8086509Y12955489D01*
X8183425Y13126091D01*
X8245358Y13312268D01*
X8269949Y13506929D01*
X8270341Y13535000D01*
X8268965Y13549037D01*
X8799757Y13549037D01*
X8816175Y13353517D01*
X8870258Y13164909D01*
X8873076Y13159426D01*
X8957123Y12995887D01*
X8957126Y12995883D01*
X8959944Y12990399D01*
X9081818Y12836631D01*
X9231238Y12709465D01*
X9236616Y12706459D01*
X9236618Y12706458D01*
X9334970Y12651491D01*
X9384676Y12600797D01*
X9399500Y12541503D01*
X9399500Y12124609D01*
X9379498Y12056488D01*
X9359072Y12035692D01*
X9360590Y12034174D01*
X9351815Y12025399D01*
X9341496Y12018504D01*
X9334601Y12008185D01*
X9315128Y11979042D01*
X9315127Y11979040D01*
X9308233Y11968722D01*
X9299500Y11924820D01*
X9299500Y11295180D01*
X9308233Y11251278D01*
X9315127Y11240960D01*
X9315128Y11240958D01*
X9334601Y11211815D01*
X9341496Y11201496D01*
X9351815Y11194601D01*
X9380958Y11175128D01*
X9380960Y11175127D01*
X9391278Y11168233D01*
X9435180Y11159500D01*
X10164820Y11159500D01*
X10208722Y11168233D01*
X10219040Y11175127D01*
X10219042Y11175128D01*
X10248185Y11194601D01*
X10258504Y11201496D01*
X10265399Y11211815D01*
X10284872Y11240958D01*
X10284873Y11240960D01*
X10291767Y11251278D01*
X10300500Y11295180D01*
X10300500Y11924820D01*
X10291767Y11968722D01*
X10284873Y11979040D01*
X10284872Y11979042D01*
X10265399Y12008185D01*
X10258504Y12018504D01*
X10248185Y12025399D01*
X10239410Y12034174D01*
X10242194Y12036958D01*
X10210965Y12074333D01*
X10200500Y12124609D01*
X10200500Y12536317D01*
X10220502Y12604438D01*
X10269690Y12648783D01*
X10338191Y12683385D01*
X10338197Y12683389D01*
X10343689Y12686163D01*
X10373515Y12709465D01*
X10493453Y12803171D01*
X10498303Y12806960D01*
X10528084Y12841461D01*
X10622485Y12950827D01*
X10622485Y12950828D01*
X10626509Y12955489D01*
X10723425Y13126091D01*
X10785358Y13312268D01*
X10809949Y13506929D01*
X10810341Y13535000D01*
X10808965Y13549037D01*
X11339757Y13549037D01*
X11356175Y13353517D01*
X11410258Y13164909D01*
X11413076Y13159426D01*
X11497123Y12995887D01*
X11497126Y12995883D01*
X11499944Y12990399D01*
X11621818Y12836631D01*
X11771238Y12709465D01*
X11776616Y12706459D01*
X11776618Y12706458D01*
X11874970Y12651491D01*
X11924676Y12600797D01*
X11939500Y12541503D01*
X11939500Y12124609D01*
X11919498Y12056488D01*
X11899072Y12035692D01*
X11900590Y12034174D01*
X11891815Y12025399D01*
X11881496Y12018504D01*
X11874601Y12008185D01*
X11855128Y11979042D01*
X11855127Y11979040D01*
X11848233Y11968722D01*
X11839500Y11924820D01*
X11839500Y11295180D01*
X11848233Y11251278D01*
X11855127Y11240960D01*
X11855128Y11240958D01*
X11874601Y11211815D01*
X11881496Y11201496D01*
X11891815Y11194601D01*
X11920958Y11175128D01*
X11920960Y11175127D01*
X11931278Y11168233D01*
X11975180Y11159500D01*
X12704820Y11159500D01*
X12748722Y11168233D01*
X12759040Y11175127D01*
X12759042Y11175128D01*
X12788185Y11194601D01*
X12798504Y11201496D01*
X12805399Y11211815D01*
X12824872Y11240958D01*
X12824873Y11240960D01*
X12831767Y11251278D01*
X12840500Y11295180D01*
X12840500Y11924820D01*
X12831767Y11968722D01*
X12824873Y11979040D01*
X12824872Y11979042D01*
X12805399Y12008185D01*
X12798504Y12018504D01*
X12788185Y12025399D01*
X12779410Y12034174D01*
X12782194Y12036958D01*
X12750965Y12074333D01*
X12740500Y12124609D01*
X12740500Y12536317D01*
X12760502Y12604438D01*
X12809690Y12648783D01*
X12878191Y12683385D01*
X12878197Y12683389D01*
X12883689Y12686163D01*
X12913515Y12709465D01*
X13033453Y12803171D01*
X13038303Y12806960D01*
X13068084Y12841461D01*
X13162485Y12950827D01*
X13162485Y12950828D01*
X13166509Y12955489D01*
X13263425Y13126091D01*
X13325358Y13312268D01*
X13349949Y13506929D01*
X13350341Y13535000D01*
X13348965Y13549037D01*
X13879757Y13549037D01*
X13896175Y13353517D01*
X13950258Y13164909D01*
X13953076Y13159426D01*
X14037123Y12995887D01*
X14037126Y12995883D01*
X14039944Y12990399D01*
X14161818Y12836631D01*
X14311238Y12709465D01*
X14316616Y12706459D01*
X14316618Y12706458D01*
X14414970Y12651491D01*
X14464676Y12600797D01*
X14479500Y12541503D01*
X14479500Y12124609D01*
X14459498Y12056488D01*
X14439072Y12035692D01*
X14440590Y12034174D01*
X14431815Y12025399D01*
X14421496Y12018504D01*
X14414601Y12008185D01*
X14395128Y11979042D01*
X14395127Y11979040D01*
X14388233Y11968722D01*
X14379500Y11924820D01*
X14379500Y11295180D01*
X14388233Y11251278D01*
X14395127Y11240960D01*
X14395128Y11240958D01*
X14414601Y11211815D01*
X14421496Y11201496D01*
X14431815Y11194601D01*
X14460958Y11175128D01*
X14460960Y11175127D01*
X14471278Y11168233D01*
X14515180Y11159500D01*
X15244820Y11159500D01*
X15288722Y11168233D01*
X15299040Y11175127D01*
X15299042Y11175128D01*
X15328185Y11194601D01*
X15338504Y11201496D01*
X15345399Y11211815D01*
X15364872Y11240958D01*
X15364873Y11240960D01*
X15371767Y11251278D01*
X15380500Y11295180D01*
X16411500Y11295180D01*
X16420233Y11251278D01*
X16427127Y11240960D01*
X16427128Y11240958D01*
X16446601Y11211815D01*
X16453496Y11201496D01*
X16463815Y11194601D01*
X16492958Y11175128D01*
X16492960Y11175127D01*
X16503278Y11168233D01*
X16547180Y11159500D01*
X17276820Y11159500D01*
X17320722Y11168233D01*
X17331040Y11175127D01*
X17331042Y11175128D01*
X17360185Y11194601D01*
X17370504Y11201496D01*
X17377399Y11211815D01*
X17396872Y11240958D01*
X17396873Y11240960D01*
X17403767Y11251278D01*
X17412500Y11295180D01*
X17412500Y11491917D01*
X17432502Y11560038D01*
X17449405Y11581012D01*
X17730484Y11862091D01*
X17730487Y11862095D01*
X17753050Y11884658D01*
X17757940Y11894255D01*
X17763037Y11904257D01*
X17773366Y11921113D01*
X17780467Y11930887D01*
X17786297Y11938911D01*
X17793096Y11959836D01*
X17800660Y11978097D01*
X17806144Y11988860D01*
X17806144Y11988861D01*
X17810646Y11997696D01*
X17814087Y12019422D01*
X17818703Y12038648D01*
X17822435Y12050133D01*
X17822435Y12050135D01*
X17825500Y12059567D01*
X17825500Y12538843D01*
X17845502Y12606964D01*
X17894688Y12651308D01*
X17963689Y12686163D01*
X18118303Y12806960D01*
X18148084Y12841461D01*
X18242485Y12950827D01*
X18242485Y12950828D01*
X18246509Y12955489D01*
X18343425Y13126091D01*
X18405358Y13312268D01*
X18429949Y13506929D01*
X18430341Y13535000D01*
X18411194Y13730272D01*
X18409413Y13736171D01*
X18409412Y13736176D01*
X18356265Y13912207D01*
X18354484Y13918106D01*
X18262370Y14091347D01*
X18138361Y14243398D01*
X17987180Y14368465D01*
X17814585Y14461787D01*
X17720868Y14490797D01*
X17633039Y14517985D01*
X17633036Y14517986D01*
X17627152Y14519807D01*
X17621027Y14520451D01*
X17621026Y14520451D01*
X17438147Y14539673D01*
X17438146Y14539673D01*
X17432019Y14540317D01*
X17329127Y14530953D01*
X17242759Y14523093D01*
X17242758Y14523093D01*
X17236618Y14522534D01*
X17230704Y14520793D01*
X17230702Y14520793D01*
X17101734Y14482835D01*
X17048393Y14467136D01*
X17042928Y14464279D01*
X16879972Y14379088D01*
X16879968Y14379085D01*
X16874512Y14376233D01*
X16869712Y14372373D01*
X16869711Y14372373D01*
X16835326Y14344727D01*
X16721600Y14253289D01*
X16595480Y14102984D01*
X16592516Y14097592D01*
X16592513Y14097588D01*
X16513813Y13954433D01*
X16500956Y13931046D01*
X16441628Y13744022D01*
X16419757Y13549037D01*
X16436175Y13353517D01*
X16490258Y13164909D01*
X16493076Y13159426D01*
X16577123Y12995887D01*
X16577126Y12995883D01*
X16579944Y12990399D01*
X16701818Y12836631D01*
X16851238Y12709465D01*
X16856616Y12706459D01*
X16856618Y12706458D01*
X16959970Y12648697D01*
X17009676Y12598004D01*
X17024500Y12538709D01*
X17024500Y12341083D01*
X17004498Y12272962D01*
X16987595Y12251988D01*
X16833012Y12097405D01*
X16770700Y12063379D01*
X16743917Y12060500D01*
X16547180Y12060500D01*
X16503278Y12051767D01*
X16492960Y12044873D01*
X16492958Y12044872D01*
X16476948Y12034174D01*
X16453496Y12018504D01*
X16446601Y12008185D01*
X16427128Y11979042D01*
X16427127Y11979040D01*
X16420233Y11968722D01*
X16411500Y11924820D01*
X16411500Y11295180D01*
X15380500Y11295180D01*
X15380500Y11924820D01*
X15371767Y11968722D01*
X15364873Y11979040D01*
X15364872Y11979042D01*
X15345399Y12008185D01*
X15338504Y12018504D01*
X15328185Y12025399D01*
X15319410Y12034174D01*
X15322194Y12036958D01*
X15290965Y12074333D01*
X15280500Y12124609D01*
X15280500Y12536317D01*
X15300502Y12604438D01*
X15349690Y12648783D01*
X15418191Y12683385D01*
X15418197Y12683389D01*
X15423689Y12686163D01*
X15453515Y12709465D01*
X15573453Y12803171D01*
X15578303Y12806960D01*
X15608084Y12841461D01*
X15702485Y12950827D01*
X15702485Y12950828D01*
X15706509Y12955489D01*
X15803425Y13126091D01*
X15865358Y13312268D01*
X15889949Y13506929D01*
X15890341Y13535000D01*
X15871194Y13730272D01*
X15869413Y13736171D01*
X15869412Y13736176D01*
X15816265Y13912207D01*
X15814484Y13918106D01*
X15722370Y14091347D01*
X15598361Y14243398D01*
X15447180Y14368465D01*
X15346570Y14422865D01*
X15296163Y14472859D01*
X15280500Y14533700D01*
X15280500Y15076317D01*
X15300502Y15144438D01*
X15349690Y15188783D01*
X15404391Y15216414D01*
X16425001Y15216414D01*
X16426209Y15204154D01*
X16431282Y15178648D01*
X16440599Y15156152D01*
X16459963Y15127172D01*
X16477172Y15109963D01*
X16506156Y15090596D01*
X16528642Y15081282D01*
X16554158Y15076207D01*
X16566412Y15075000D01*
X17152885Y15075000D01*
X17168124Y15079475D01*
X17169329Y15080865D01*
X17171000Y15088548D01*
X17171000Y15093116D01*
X17679000Y15093116D01*
X17683475Y15077877D01*
X17684865Y15076672D01*
X17692548Y15075001D01*
X18283586Y15075001D01*
X18295846Y15076209D01*
X18321352Y15081282D01*
X18343848Y15090599D01*
X18372828Y15109963D01*
X18390037Y15127172D01*
X18409404Y15156156D01*
X18418718Y15178642D01*
X18423793Y15204158D01*
X18425000Y15216412D01*
X18425000Y15802885D01*
X18420525Y15818124D01*
X18419135Y15819329D01*
X18411452Y15821000D01*
X17697115Y15821000D01*
X17681876Y15816525D01*
X17680671Y15815135D01*
X17679000Y15807452D01*
X17679000Y15093116D01*
X17171000Y15093116D01*
X17171000Y15802885D01*
X17166525Y15818124D01*
X17165135Y15819329D01*
X17157452Y15821000D01*
X16443116Y15821000D01*
X16427877Y15816525D01*
X16426672Y15815135D01*
X16425001Y15807452D01*
X16425001Y15216414D01*
X15404391Y15216414D01*
X15418191Y15223385D01*
X15418197Y15223389D01*
X15423689Y15226163D01*
X15453515Y15249465D01*
X15573453Y15343171D01*
X15578303Y15346960D01*
X15608084Y15381461D01*
X15702485Y15490827D01*
X15702485Y15490828D01*
X15706509Y15495489D01*
X15803425Y15666091D01*
X15865358Y15852268D01*
X15889949Y16046929D01*
X15890341Y16075000D01*
X15871194Y16270272D01*
X15869413Y16276171D01*
X15869412Y16276176D01*
X15847994Y16347115D01*
X16425000Y16347115D01*
X16429475Y16331876D01*
X16430865Y16330671D01*
X16438548Y16329000D01*
X17152885Y16329000D01*
X17168124Y16333475D01*
X17169329Y16334865D01*
X17171000Y16342548D01*
X17171000Y16347115D01*
X17679000Y16347115D01*
X17683475Y16331876D01*
X17684865Y16330671D01*
X17692548Y16329000D01*
X18406884Y16329000D01*
X18422123Y16333475D01*
X18423328Y16334865D01*
X18424999Y16342548D01*
X18424999Y16933586D01*
X18423791Y16945846D01*
X18418718Y16971352D01*
X18409401Y16993848D01*
X18390037Y17022828D01*
X18372828Y17040037D01*
X18343844Y17059404D01*
X18321358Y17068718D01*
X18295842Y17073793D01*
X18283588Y17075000D01*
X17697115Y17075000D01*
X17681876Y17070525D01*
X17680671Y17069135D01*
X17679000Y17061452D01*
X17679000Y16347115D01*
X17171000Y16347115D01*
X17171000Y17056884D01*
X17166525Y17072123D01*
X17165135Y17073328D01*
X17157452Y17074999D01*
X16566414Y17074999D01*
X16554154Y17073791D01*
X16528648Y17068718D01*
X16506152Y17059401D01*
X16477172Y17040037D01*
X16459963Y17022828D01*
X16440596Y16993844D01*
X16431282Y16971358D01*
X16426207Y16945842D01*
X16425000Y16933588D01*
X16425000Y16347115D01*
X15847994Y16347115D01*
X15816265Y16452207D01*
X15814484Y16458106D01*
X15722370Y16631347D01*
X15598361Y16783398D01*
X15447180Y16908465D01*
X15274585Y17001787D01*
X15151019Y17040037D01*
X15093039Y17057985D01*
X15093036Y17057986D01*
X15087152Y17059807D01*
X15081027Y17060451D01*
X15081026Y17060451D01*
X14898147Y17079673D01*
X14898146Y17079673D01*
X14892019Y17080317D01*
X14801983Y17072123D01*
X14702759Y17063093D01*
X14702758Y17063093D01*
X14696618Y17062534D01*
X14690704Y17060793D01*
X14690702Y17060793D01*
X14677421Y17056884D01*
X14508393Y17007136D01*
X14502928Y17004279D01*
X14339972Y16919088D01*
X14339968Y16919085D01*
X14334512Y16916233D01*
X14329712Y16912373D01*
X14329711Y16912373D01*
X14295326Y16884727D01*
X14181600Y16793289D01*
X14055480Y16642984D01*
X14052516Y16637592D01*
X14052513Y16637588D01*
X13973813Y16494433D01*
X13960956Y16471046D01*
X13901628Y16284022D01*
X13879757Y16089037D01*
X13896175Y15893517D01*
X13950258Y15704909D01*
X13953076Y15699426D01*
X14037123Y15535887D01*
X14037126Y15535883D01*
X14039944Y15530399D01*
X14161818Y15376631D01*
X14311238Y15249465D01*
X14316616Y15246459D01*
X14316618Y15246458D01*
X14414970Y15191491D01*
X14464676Y15140797D01*
X14479500Y15081503D01*
X14479500Y14528339D01*
X14459498Y14460218D01*
X14411876Y14416678D01*
X14334512Y14376233D01*
X14329712Y14372373D01*
X14329711Y14372373D01*
X14295326Y14344727D01*
X14181600Y14253289D01*
X14055480Y14102984D01*
X14052516Y14097592D01*
X14052513Y14097588D01*
X13973813Y13954433D01*
X13960956Y13931046D01*
X13901628Y13744022D01*
X13879757Y13549037D01*
X13348965Y13549037D01*
X13331194Y13730272D01*
X13329413Y13736171D01*
X13329412Y13736176D01*
X13276265Y13912207D01*
X13274484Y13918106D01*
X13182370Y14091347D01*
X13058361Y14243398D01*
X12907180Y14368465D01*
X12806570Y14422865D01*
X12756163Y14472859D01*
X12740500Y14533700D01*
X12740500Y15076317D01*
X12760502Y15144438D01*
X12809690Y15188783D01*
X12878191Y15223385D01*
X12878197Y15223389D01*
X12883689Y15226163D01*
X12913515Y15249465D01*
X13033453Y15343171D01*
X13038303Y15346960D01*
X13068084Y15381461D01*
X13162485Y15490827D01*
X13162485Y15490828D01*
X13166509Y15495489D01*
X13263425Y15666091D01*
X13325358Y15852268D01*
X13349949Y16046929D01*
X13350341Y16075000D01*
X13331194Y16270272D01*
X13329413Y16276171D01*
X13329412Y16276176D01*
X13276265Y16452207D01*
X13274484Y16458106D01*
X13182370Y16631347D01*
X13058361Y16783398D01*
X12907180Y16908465D01*
X12734585Y17001787D01*
X12611019Y17040037D01*
X12553039Y17057985D01*
X12553036Y17057986D01*
X12547152Y17059807D01*
X12541027Y17060451D01*
X12541026Y17060451D01*
X12358147Y17079673D01*
X12358146Y17079673D01*
X12352019Y17080317D01*
X12261983Y17072123D01*
X12162759Y17063093D01*
X12162758Y17063093D01*
X12156618Y17062534D01*
X12150704Y17060793D01*
X12150702Y17060793D01*
X12137421Y17056884D01*
X11968393Y17007136D01*
X11962928Y17004279D01*
X11799972Y16919088D01*
X11799968Y16919085D01*
X11794512Y16916233D01*
X11789712Y16912373D01*
X11789711Y16912373D01*
X11755326Y16884727D01*
X11641600Y16793289D01*
X11515480Y16642984D01*
X11512516Y16637592D01*
X11512513Y16637588D01*
X11433813Y16494433D01*
X11420956Y16471046D01*
X11361628Y16284022D01*
X11339757Y16089037D01*
X11356175Y15893517D01*
X11410258Y15704909D01*
X11413076Y15699426D01*
X11497123Y15535887D01*
X11497126Y15535883D01*
X11499944Y15530399D01*
X11621818Y15376631D01*
X11771238Y15249465D01*
X11776616Y15246459D01*
X11776618Y15246458D01*
X11874970Y15191491D01*
X11924676Y15140797D01*
X11939500Y15081503D01*
X11939500Y14528339D01*
X11919498Y14460218D01*
X11871876Y14416678D01*
X11794512Y14376233D01*
X11789712Y14372373D01*
X11789711Y14372373D01*
X11755326Y14344727D01*
X11641600Y14253289D01*
X11515480Y14102984D01*
X11512516Y14097592D01*
X11512513Y14097588D01*
X11433813Y13954433D01*
X11420956Y13931046D01*
X11361628Y13744022D01*
X11339757Y13549037D01*
X10808965Y13549037D01*
X10791194Y13730272D01*
X10789413Y13736171D01*
X10789412Y13736176D01*
X10736265Y13912207D01*
X10734484Y13918106D01*
X10642370Y14091347D01*
X10518361Y14243398D01*
X10367180Y14368465D01*
X10266570Y14422865D01*
X10216163Y14472859D01*
X10200500Y14533700D01*
X10200500Y15076317D01*
X10220502Y15144438D01*
X10269690Y15188783D01*
X10338191Y15223385D01*
X10338197Y15223389D01*
X10343689Y15226163D01*
X10373515Y15249465D01*
X10493453Y15343171D01*
X10498303Y15346960D01*
X10528084Y15381461D01*
X10622485Y15490827D01*
X10622485Y15490828D01*
X10626509Y15495489D01*
X10723425Y15666091D01*
X10785358Y15852268D01*
X10809949Y16046929D01*
X10810341Y16075000D01*
X10791194Y16270272D01*
X10789413Y16276171D01*
X10789412Y16276176D01*
X10736265Y16452207D01*
X10734484Y16458106D01*
X10642370Y16631347D01*
X10518361Y16783398D01*
X10367180Y16908465D01*
X10194585Y17001787D01*
X10071019Y17040037D01*
X10013039Y17057985D01*
X10013036Y17057986D01*
X10007152Y17059807D01*
X10001027Y17060451D01*
X10001026Y17060451D01*
X9818147Y17079673D01*
X9818146Y17079673D01*
X9812019Y17080317D01*
X9721983Y17072123D01*
X9622759Y17063093D01*
X9622758Y17063093D01*
X9616618Y17062534D01*
X9610704Y17060793D01*
X9610702Y17060793D01*
X9597421Y17056884D01*
X9428393Y17007136D01*
X9422928Y17004279D01*
X9259972Y16919088D01*
X9259968Y16919085D01*
X9254512Y16916233D01*
X9249712Y16912373D01*
X9249711Y16912373D01*
X9215326Y16884727D01*
X9101600Y16793289D01*
X8975480Y16642984D01*
X8972516Y16637592D01*
X8972513Y16637588D01*
X8893813Y16494433D01*
X8880956Y16471046D01*
X8821628Y16284022D01*
X8799757Y16089037D01*
X8816175Y15893517D01*
X8870258Y15704909D01*
X8873076Y15699426D01*
X8957123Y15535887D01*
X8957126Y15535883D01*
X8959944Y15530399D01*
X9081818Y15376631D01*
X9231238Y15249465D01*
X9236616Y15246459D01*
X9236618Y15246458D01*
X9334970Y15191491D01*
X9384676Y15140797D01*
X9399500Y15081503D01*
X9399500Y14528339D01*
X9379498Y14460218D01*
X9331876Y14416678D01*
X9254512Y14376233D01*
X9249712Y14372373D01*
X9249711Y14372373D01*
X9215326Y14344727D01*
X9101600Y14253289D01*
X8975480Y14102984D01*
X8972516Y14097592D01*
X8972513Y14097588D01*
X8893813Y13954433D01*
X8880956Y13931046D01*
X8821628Y13744022D01*
X8799757Y13549037D01*
X8268965Y13549037D01*
X8251194Y13730272D01*
X8249413Y13736171D01*
X8249412Y13736176D01*
X8196265Y13912207D01*
X8194484Y13918106D01*
X8102370Y14091347D01*
X7978361Y14243398D01*
X7827180Y14368465D01*
X7726570Y14422865D01*
X7676163Y14472859D01*
X7660500Y14533700D01*
X7660500Y15076317D01*
X7680502Y15144438D01*
X7729690Y15188783D01*
X7798191Y15223385D01*
X7798197Y15223389D01*
X7803689Y15226163D01*
X7833515Y15249465D01*
X7953453Y15343171D01*
X7958303Y15346960D01*
X7988084Y15381461D01*
X8082485Y15490827D01*
X8082485Y15490828D01*
X8086509Y15495489D01*
X8183425Y15666091D01*
X8245358Y15852268D01*
X8269949Y16046929D01*
X8270341Y16075000D01*
X8251194Y16270272D01*
X8249413Y16276171D01*
X8249412Y16276176D01*
X8196265Y16452207D01*
X8194484Y16458106D01*
X8102370Y16631347D01*
X7978361Y16783398D01*
X7827180Y16908465D01*
X7654585Y17001787D01*
X7531019Y17040037D01*
X7473039Y17057985D01*
X7473036Y17057986D01*
X7467152Y17059807D01*
X7461027Y17060451D01*
X7461026Y17060451D01*
X7278147Y17079673D01*
X7278146Y17079673D01*
X7272019Y17080317D01*
X7181983Y17072123D01*
X7082759Y17063093D01*
X7082758Y17063093D01*
X7076618Y17062534D01*
X7070704Y17060793D01*
X7070702Y17060793D01*
X7057421Y17056884D01*
X6888393Y17007136D01*
X6882928Y17004279D01*
X6719972Y16919088D01*
X6719968Y16919085D01*
X6714512Y16916233D01*
X6709712Y16912373D01*
X6709711Y16912373D01*
X6675326Y16884727D01*
X6561600Y16793289D01*
X6435480Y16642984D01*
X6432516Y16637592D01*
X6432513Y16637588D01*
X6353813Y16494433D01*
X6340956Y16471046D01*
X6281628Y16284022D01*
X6259757Y16089037D01*
X6276175Y15893517D01*
X6330258Y15704909D01*
X6333076Y15699426D01*
X6417123Y15535887D01*
X6417126Y15535883D01*
X6419944Y15530399D01*
X6541818Y15376631D01*
X6691238Y15249465D01*
X6696616Y15246459D01*
X6696618Y15246458D01*
X6794970Y15191491D01*
X6844676Y15140797D01*
X6859500Y15081503D01*
X6859500Y14528339D01*
X6839498Y14460218D01*
X6791876Y14416678D01*
X6714512Y14376233D01*
X6709712Y14372373D01*
X6709711Y14372373D01*
X6675326Y14344727D01*
X6561600Y14253289D01*
X6435480Y14102984D01*
X6432516Y14097592D01*
X6432513Y14097588D01*
X6353813Y13954433D01*
X6340956Y13931046D01*
X6281628Y13744022D01*
X6259757Y13549037D01*
X5728965Y13549037D01*
X5711194Y13730272D01*
X5709413Y13736171D01*
X5709412Y13736176D01*
X5656265Y13912207D01*
X5654484Y13918106D01*
X5562370Y14091347D01*
X5438361Y14243398D01*
X5287180Y14368465D01*
X5186570Y14422865D01*
X5136163Y14472859D01*
X5120500Y14533700D01*
X5120500Y15076317D01*
X5140502Y15144438D01*
X5189690Y15188783D01*
X5258191Y15223385D01*
X5258197Y15223389D01*
X5263689Y15226163D01*
X5293515Y15249465D01*
X5413453Y15343171D01*
X5418303Y15346960D01*
X5448084Y15381461D01*
X5542485Y15490827D01*
X5542485Y15490828D01*
X5546509Y15495489D01*
X5643425Y15666091D01*
X5705358Y15852268D01*
X5729949Y16046929D01*
X5730341Y16075000D01*
X5711194Y16270272D01*
X5709413Y16276171D01*
X5709412Y16276176D01*
X5656265Y16452207D01*
X5654484Y16458106D01*
X5562370Y16631347D01*
X5438361Y16783398D01*
X5287180Y16908465D01*
X5114585Y17001787D01*
X4991019Y17040037D01*
X4933039Y17057985D01*
X4933036Y17057986D01*
X4927152Y17059807D01*
X4921027Y17060451D01*
X4921026Y17060451D01*
X4738147Y17079673D01*
X4738146Y17079673D01*
X4732019Y17080317D01*
X4641983Y17072123D01*
X4542759Y17063093D01*
X4542758Y17063093D01*
X4536618Y17062534D01*
X4530704Y17060793D01*
X4530702Y17060793D01*
X4517421Y17056884D01*
X4348393Y17007136D01*
X4342928Y17004279D01*
X4179972Y16919088D01*
X4179968Y16919085D01*
X4174512Y16916233D01*
X4169712Y16912373D01*
X4169711Y16912373D01*
X4135326Y16884727D01*
X4021600Y16793289D01*
X3895480Y16642984D01*
X3892516Y16637592D01*
X3892513Y16637588D01*
X3813813Y16494433D01*
X3800956Y16471046D01*
X3741628Y16284022D01*
X3719757Y16089037D01*
X3736175Y15893517D01*
X3790258Y15704909D01*
X3793076Y15699426D01*
X3877123Y15535887D01*
X3877126Y15535883D01*
X3879944Y15530399D01*
X4001818Y15376631D01*
X4151238Y15249465D01*
X4156616Y15246459D01*
X4156618Y15246458D01*
X4254970Y15191491D01*
X4304676Y15140797D01*
X4319500Y15081503D01*
X4319500Y14528339D01*
X4299498Y14460218D01*
X4251876Y14416678D01*
X4174512Y14376233D01*
X4169712Y14372373D01*
X4169711Y14372373D01*
X4135326Y14344727D01*
X4021600Y14253289D01*
X3895480Y14102984D01*
X3892516Y14097592D01*
X3892513Y14097588D01*
X3813813Y13954433D01*
X3800956Y13931046D01*
X3741628Y13744022D01*
X3719757Y13549037D01*
X3188965Y13549037D01*
X3171194Y13730272D01*
X3169413Y13736171D01*
X3169412Y13736176D01*
X3116265Y13912207D01*
X3114484Y13918106D01*
X3022370Y14091347D01*
X2898361Y14243398D01*
X2747180Y14368465D01*
X2658014Y14416677D01*
X2651571Y14420161D01*
X2601162Y14470156D01*
X2585500Y14530997D01*
X2585500Y15078843D01*
X2605502Y15146964D01*
X2654688Y15191308D01*
X2723689Y15226163D01*
X2878303Y15346960D01*
X2908084Y15381461D01*
X3002485Y15490827D01*
X3002485Y15490828D01*
X3006509Y15495489D01*
X3103425Y15666091D01*
X3165358Y15852268D01*
X3189949Y16046929D01*
X3190341Y16075000D01*
X3171194Y16270272D01*
X3169413Y16276171D01*
X3169412Y16276176D01*
X3116265Y16452207D01*
X3114484Y16458106D01*
X3022370Y16631347D01*
X2898361Y16783398D01*
X2747180Y16908465D01*
X2574585Y17001787D01*
X2451019Y17040037D01*
X2393039Y17057985D01*
X2393036Y17057986D01*
X2387152Y17059807D01*
X2381027Y17060451D01*
X2381026Y17060451D01*
X2198147Y17079673D01*
X2198146Y17079673D01*
X2192019Y17080317D01*
X2101983Y17072123D01*
X2002759Y17063093D01*
X2002758Y17063093D01*
X1996618Y17062534D01*
X1990704Y17060793D01*
X1990702Y17060793D01*
X1977421Y17056884D01*
X1808393Y17007136D01*
X1802928Y17004279D01*
X1639972Y16919088D01*
X1639968Y16919085D01*
X1634512Y16916233D01*
X1629712Y16912373D01*
X1629711Y16912373D01*
X1595326Y16884727D01*
X1481600Y16793289D01*
X1355480Y16642984D01*
X1352516Y16637592D01*
X1352513Y16637588D01*
X1273813Y16494433D01*
X1260956Y16471046D01*
X1201628Y16284022D01*
X1179757Y16089037D01*
X1196175Y15893517D01*
X1250258Y15704909D01*
X1253076Y15699426D01*
X1337123Y15535887D01*
X1337126Y15535883D01*
X1339944Y15530399D01*
X1461818Y15376631D01*
X1611238Y15249465D01*
X1616616Y15246459D01*
X1616618Y15246458D01*
X1719970Y15188697D01*
X1769676Y15138004D01*
X1784500Y15078709D01*
X1784500Y14530953D01*
X1764498Y14462832D01*
X1716876Y14419292D01*
X1634512Y14376233D01*
X1629712Y14372373D01*
X1629711Y14372373D01*
X1595326Y14344727D01*
X1481600Y14253289D01*
X1355480Y14102984D01*
X1352516Y14097592D01*
X1352513Y14097588D01*
X1273813Y13954433D01*
X1260956Y13931046D01*
X1201628Y13744022D01*
X1179757Y13549037D01*
X150500Y13549037D01*
X150500Y18763598D01*
X151516Y18771315D01*
X151516Y18783978D01*
X155809Y18800000D01*
X152170Y18813583D01*
X152308Y18816043D01*
X165195Y18930420D01*
X171474Y18957928D01*
X210132Y19068407D01*
X222369Y19093820D01*
X284651Y19192943D01*
X302241Y19214998D01*
X385002Y19297759D01*
X407057Y19315349D01*
X506180Y19377631D01*
X531593Y19389868D01*
X642072Y19428526D01*
X669580Y19434805D01*
X783957Y19447692D01*
X786417Y19447830D01*
X800000Y19444191D01*
X816022Y19448484D01*
X828685Y19448484D01*
X836402Y19449500D01*
X8485211Y19449500D01*
X8553332Y19429498D01*
G37*
%TD.AperFunction*%
%TD*%
M02*
