M48
; DRILL file {KiCad 6.0.7+dfsg-1~bpo11+1} date Fri Oct  7 09:30:16 2022
; FORMAT={-:-/ absolute / metric / decimal}
; #@! TF.CreationDate,2022-10-07T09:30:16+00:00
; #@! TF.GenerationSoftware,Kicad,Pcbnew,6.0.7+dfsg-1~bpo11+1
; #@! TF.FileFunction,Plated,1,2,PTH
FMAT,2
METRIC
; #@! TA.AperFunction,Plated,PTH,ViaDrill
T1C0.300
; #@! TA.AperFunction,Plated,PTH,ComponentDrill
T2C1.000
%
G90
G05
T1
X0.91Y7.735
X3.45Y9.132
X3.45Y7.735
X5.99Y9.64
X5.99Y7.735
X8.53Y9.64
X8.53Y7.735
X11.07Y9.64
X11.07Y7.735
X13.61Y9.64
X13.61Y7.735
X16.15Y9.132
X16.15Y7.735
X18.69Y7.735
T2
X2.185Y16.075
X2.185Y13.535
X4.725Y16.075
X4.725Y13.535
X7.265Y16.075
X7.265Y13.535
X9.805Y16.075
X9.805Y13.535
X12.345Y16.075
X12.345Y13.535
X14.885Y16.075
X14.885Y13.535
X17.425Y16.075
X17.425Y13.535
T0
M30
